<mxfile host="65bd71144e">
    <diagram id="AzQARifV1FqsPEH4sZtu" name="Page-1">
        <mxGraphModel dx="1790" dy="405" grid="0" gridSize="10" guides="1" tooltips="1" connect="1" arrows="1" fold="1" page="1" pageScale="1" pageWidth="827" pageHeight="1169" background="#ffffff" math="0" shadow="0">
            <root>
                <mxCell id="0"/>
                <mxCell id="1" parent="0"/>
                <mxCell id="9" value="Tudu" style="html=1;shadow=0;dashed=0;fillColor=#343A40;strokeColor=none;fontSize=16;fontColor=#ffffff;align=left;spacing=15;" parent="1" vertex="1">
                    <mxGeometry width="827" height="60" as="geometry"/>
                </mxCell>
                <mxCell id="11" value="Tareas: 1/3" style="fillColor=none;strokeColor=none;fontSize=14;fontColor=#9A9DA0;align=center;" parent="9" vertex="1">
                    <mxGeometry width="96" height="40" relative="1" as="geometry">
                        <mxPoint x="706" y="10" as="offset"/>
                    </mxGeometry>
                </mxCell>
                <mxCell id="17" value="Tareas" style="html=1;shadow=0;dashed=0;shape=mxgraph.bootstrap.rrect;rSize=5;fillColor=none;strokeColor=#999999;align=left;spacing=15;fontSize=14;fontColor=#6C767D;" parent="1" vertex="1">
                    <mxGeometry width="160" height="30" relative="1" as="geometry">
                        <mxPoint x="64" y="119" as="offset"/>
                    </mxGeometry>
                </mxCell>
                <mxCell id="22" value="Agregar" style="html=1;shadow=0;dashed=0;shape=mxgraph.bootstrap.rrect;rSize=5;fillColor=#0085FC;strokeColor=none;align=center;fontSize=14;fontColor=#FFFFFF;" parent="1" vertex="1">
                    <mxGeometry width="159" height="40" relative="1" as="geometry">
                        <mxPoint x="67" y="274" as="offset"/>
                    </mxGeometry>
                </mxCell>
                <mxCell id="23" value="" style="shape=image;verticalLabelPosition=bottom;labelBackgroundColor=#ffffff;verticalAlign=top;aspect=fixed;imageAspect=0;image=data:image/png,iVBORw0KGgoAAAANSUhEUgAAAaYAAADlCAYAAAAYylN1AAABQ2lDQ1BJQ0MgUHJvZmlsZQAAKJFjYGASSSwoyGFhYGDIzSspCnJ3UoiIjFJgf8bAySDGwMGgzcCWmFxc4BgQ4ANUwgCjUcG3awyMIPqyLsis3vfuQdMvv15ekWU9QY3pXSemehTAlZJanAyk/wBxanJBUQkDA2MKkK1cXlIAYncA2SJFQEcB2XNA7HQIewOInQRhHwGrCQlyBrJvANkCyRmJQDMYXwDZOklI4ulIbKi9IMDt467gFurjo+DhQsC1ZICS1IoSEO2cX1BZlJmeUaLgCAylVAXPvGQ9HQUjAyMjBgZQmENUf74BDktGMQ6EWCHQj1aeDAxMuQixhAAGhh0fQF5FiKnqMDDwHGdgOBBbkFiUCHcA4zeW4jRjIwibezsDA+u0//8/hzMwsGsyMPy9/v//7+3///9dxsDAfAuo9xsAqPZflUpwRJgAAABWZVhJZk1NACoAAAAIAAGHaQAEAAAAAQAAABoAAAAAAAOShgAHAAAAEgAAAESgAgAEAAAAAQAAAaagAwAEAAAAAQAAAOUAAAAAQVNDSUkAAABTY3JlZW5zaG90OgfwggAAAdZpVFh0WE1MOmNvbS5hZG9iZS54bXAAAAAAADx4OnhtcG1ldGEgeG1sbnM6eD0iYWRvYmU6bnM6bWV0YS8iIHg6eG1wdGs9IlhNUCBDb3JlIDYuMC4wIj4KICAgPHJkZjpSREYgeG1sbnM6cmRmPSJodHRwOi8vd3d3LnczLm9yZy8xOTk5LzAyLzIyLXJkZi1zeW50YXgtbnMjIj4KICAgICAgPHJkZjpEZXNjcmlwdGlvbiByZGY6YWJvdXQ9IiIKICAgICAgICAgICAgeG1sbnM6ZXhpZj0iaHR0cDovL25zLmFkb2JlLmNvbS9leGlmLzEuMC8iPgogICAgICAgICA8ZXhpZjpQaXhlbFlEaW1lbnNpb24+MjI5PC9leGlmOlBpeGVsWURpbWVuc2lvbj4KICAgICAgICAgPGV4aWY6UGl4ZWxYRGltZW5zaW9uPjQyMjwvZXhpZjpQaXhlbFhEaW1lbnNpb24+CiAgICAgICAgIDxleGlmOlVzZXJDb21tZW50PlNjcmVlbnNob3Q8L2V4aWY6VXNlckNvbW1lbnQ+CiAgICAgIDwvcmRmOkRlc2NyaXB0aW9uPgogICA8L3JkZjpSREY+CjwveDp4bXBtZXRhPgr2v9n2AABAAElEQVR4Ae2dBViUWRfH/5S1BnYLNoqCAnbrKgY2Yndhu/bauXZ3N3auu66uga2rInZ3wtorGCDz3XPxnW+GGAZmwJE553lg3rj5e3X+nHvPe6+FShjYmAATYAJMgAmYCAFLE2kHN4MJMAEmwASYgCTAwsT/EJgAE2ACTMCkCLAwmdTj4MYwASbABJgACxP/G2ACTIAJMAGTIsDCZFKPgxvDBJgAE2ACLEz8b4AJMAEmwARMigALk0k9Dm4ME2ACTIAJsDDxvwEmwASYABMwKQLWISEh+PTpE758+YKvX7+aVOO4MUyACTABJmB+BKzfvHljfr3mHjMBJsAEmIDJEuChPJN9NNwwJsAEmIB5ErCmbidLlgzJkyeHtbU1LCwszJME95oJMAEmwARMgoB10qRJkTp1apNoDDeCCTABJsAEmIAFry7O/wiYABNgAkzAlAjwHJMpPQ1uCxNgAkyACYCFif8RMAEmwASYgEkRYGEyqcfBjWECTIAJMAEWJv43wASYABNgAiZFgIXJpB4HN4YJMAEmwARYmPjfABNgAkyACZgUARYmk3oc3BgmwASYABNgYeJ/A0yACTABJmBSBFiYTOpxcGOYABNgAkyAhYn/DTABJsAEmIBJEWBhMqnHwY1hAkyACTABFib+N8AEmAATYAImRYCFyaQeBzeGCTABJsAEWJj43wATYAJMgAmYFAG5UaAxWvTu3TsEBQUhJCQEYisNYxTJZTABJsAEmMAPToA2n7WxscFPP/2ENGnS6NUbg/djCg0NRWBgoNz91tbWVn5aWrIjphd9TsQEmAATSOQEwsLCQDrx5s0bfP36FZkyZZI6oavbBgvTs2fP5LbsadOm1VUP32MCTIAJMAEzJ/D69Wt8+vQJ2bJl00nCINeGhu/IO2JR0smYbzIBJsAEmIAgkC5dOlhZWYG0Q5cZJEw0p0TDd2xMgAkwASbABPQhkDp1ahmPoCutQcJEgQ40qcXGBJgAE2ACTEAfAkmSJJFBcrrSGiRMFH1HbhkbE2ACTIAJMAF9CJBmxBS5bZAw6dMITsMEmAATYAJMIDYEWJhiQ4vTMgEmwASYQLwTMNoLtvHeUq6ACTABJsAE9CKw7tRX7L0cBr+HYXj2VoWvYXplg5VwVbLZWsDFzhK1ilqiVZnvM1Vj0HtMDx48gL29vX495lRMgAkwASYQrwRIkCbsCcXj18ZZfSdnOgsM87A2ukDFpB08lBev/0y4cCbABJhAwhAYsCkE3mtCjCZK1GoSOCqTyk5IY2FKSNpcFxNgAkwgHgiQcCzy/RoPJYcXSWUnpDixMMXbo+SCmQATYALxT4CG7+JTlJQeUB1UV0IYC1NCUP7OdZz388PRY8e/cyu4eibABOKDAM0p6TLbFBbw6WqDDwuTYVO3JJGS2mewQODsZPL+9p6R72tmiKkuzbSGHJuMMNEqEsNGjIRdnvxYvWatIX2SeWlx2T1//InpM2fBZ8NGXLx0KU5lnj59BqXKlpc/ugrQN52uMoxx77Cvr2xrlWo1ZHEBAYFo0rQFWrdtj2vXrhujCi6DCTABEyFAHoyuQAe79BY4NSwJqjhEH1030dMaLz+o8FGPaSSqKyG8JpMIFycR6dajF16LZdFp7w5Dbb3PRowaMzbSshcedWpj6uRJSJEiud5VfPr8GS9eBMSYXt90MRZkYIKPHz/J9ip9TJvWFvnz5cN/Hz4gS9YsBpbO2ZkAEzAlAhQSrstImB69UsFzwRecGZ40UtJy+S1R19kKrZeGYH4r/ZaXozrjO4zcJDymeg09kTxFCvy+c4dcrTwSvVhcOPPPWQwdPgK0B0g37y5YtGAexowaIZdZJw9q2owZsSjtx09K61Lt27sHJ44eRjremuTHf6DcAyagQYDeU9Jl/o/DUHvWFzx/GzkV+QCThbd04nYYdvjpP3cUU52Ra4r9FZPwmOrUroURw4fCWqyhRP6SIV7Tvv37JQWnokUwZNBANRGnokWxYeMmsbZfeJfv3b+Pnr37yvvr16wWW3eEr5JOQ38HDx1G5YoVMWhgf3V+OggM/Bdjx0/AP2fPomCBAvD0bIz6dT200tAJDZ+ROJ49dx657e3Qs0d3VP+5mjrdkydPsWjxEpw4eQrBH4NRpnRptG/XBs5OTlppJk6eIocg37x5iwIF8qN5Uy94NfFUp/ksvLk5c+fL9n78+BGNGzVE3rx51PfpgPK2bNNWXps3Zxby5M6N2XPmYd/ff6N8ubIoWaKELOPO3buy/t8mjBVttpfplfIPieHBoA9B8GzcCE5ORTFl2nSkFLtRbt7oI9PxLybABL4PAXp5Vpe9/xj93aYlrOCc0xIVJ32JPlEUd2KqM4ossb5kEsJEHo1ihDmmBf6UtFF9KntDXbt+A1u3bQcN3yVLlgwuLsXlj5Lnkxjyunr1mjwNDf3/4CqJBl3Pl0f7C54SdvHuhgv+F2UeEp9jx08gTapUqFy5krym/OrUxRtXrl6VXpv/xUvo0asP/vrzdykKJBQ030PCSGKYMmVK7Ni5S4rL1s0bpOC9ffsONevUxX///Se3IqZhOT+/C/KH2DT1aiKrGjl6LDZu2qxUK+fTihdzVp/TAfVN6Sf1meypGDqlayQ8a9etFxt3fZZtPXnqFKZMnY6F8+fKdEOGDsf2HTvlMf2xQKJdzNlJ5k0l+s3GBJjAj0nARkw5jahnLVeHuP9SBQqQIA8quRjNy5zaAgHvdQtefPfaJIbyjNnJuh515JAVfen2HzgYTsXd0KhJUyxctARPnz41qKqkQuBOHPXFwf1/IX/+fFJAx074LVKZpUqVxPUrF7F6xTLp/VFbKDiCbIb4cidRKl26FM6dOYXjRw7LIcf3799jzNgJMs2NmzdRVYhdpw7tceHcGZw9fVJ6K3Tzz71/yTS3b99Ri1KL5s3gJ9Jt2rAed+7ek/f1+fXw4SMsXrgAVy76SY+N8hw5ekzOzV25clUtSt29u+La5YvYs3sHHj16rE/RnIYJMIEEIEDLB8XFsqSxAM0/1XayxJPpSeVPqmRAhQKW2Nkric4i41qnzkIj3Ex0wmRvZ4eNG9aBhgdpfoVE4fx5P0yaMhWVqlbHvv1/R0Cg/+nokcORI0d25MuXF4MGhA/zPXjwUNahWQrNbZGXRp4UDfmR3RfpyPz8/eVnZrHvPYkADRtmzpRZXqPIQfKISgthmzN7phzefPHiBS5dvqzeWOvR43BhIPEio3rGjRmF9GJnSMrXoX1beV2fXy7Fi6FihfL4SQzLtWndSmahzR+viui9q9fCvUnyjGhIk7y2okWKoEOHdvoUzWmYABNIAAK0pl1c7HWQCn18QrR+aD29689VmPSn7vDzuNYZm3aaxFBebBqsT1oSgwXz5uCDiETzu+CP/UKMdu7+XQ6NkRelOd+jT3lKmnx58yqHUI6/fv0ayYsgkVAsY8YMIBEJE+lIdG7dui1v7RLtoR9No/Y+ffoMmTNnwvjfJon7u+UckWYa5ZgEkSxnzhywtv7/Y8yr0UYlbXSftM2xYpkyZlQO8fVrqBzuowvZsmbVmvPLkT27Oh0fMAEm8H0J0EKruy7oH7igtDboM7D8mHa+qV42MvQ8pvKozvi2/3+jxXdNCVT+XTGUFSLmVbJkziK2fU8jPQLyCmh4jYIdaN6G5pE0AyyCgoOhfC2ThxWd0bwSeUxkLwJeqJNlyZJZ/UWuvhjFAdVJX+w0lEdeyM/VqmqlovskSjNnzcGq1WtglysXhg4ZjDx5cmP3739ovd+VJUt46De1SdMChIdlDFOE98HDhwgO/qgOsae5OzYmwARMgwCFbeuzaCt5SCm7hc8xR9fydL1036d8tKhrfIeKUz3xL31USwLa5KnT4F7LA7/0H6D1HhN5ImQkViQumYWYKObre0QeUtABhZtHZxRJR14PeUlLl62QybJly4bYBAJQVBvZg/sP5DAfeXdpbdPi8OEjOHLkqNwR+Nz58zINDUdSFJ6bq6vwnN7Ia8ovB4fwIUKam6JoQzI69tkQfqyki+tn8WLFZJQkCXXvvr+ICMNzoPfDVq5aHdciOR8TYALxQIBW/04oS6i6Eq5HcSQ3euw4MUd0ATu2b5FflDEVQ1/k+/8+gEOHfVGxcjUUKeIow7eVlR/q16sn35Wid3py5coph+FGjRknAgm2SC/I0iJ6rd67b78Ms/7y5QtIxMg6d+wQU5O07nft3EnOK23eug3Pnj+HvQgn//vAQdlGCve2tLSEo2NhKZCr165DQGAgnj9/AUWslMIKFyqEsmXKgCLpKHpuwaLFMpydovyMYTREOHr0SAwfMUq2j9pIHl09EVyy6/c9xqiCy2ACTMAIBMiD8X8UFu/r5XlXtkoQb4mQRP8tbARgxiji5ctXePX6Nb6G6p6QU+qi4bGVy5cgqxjqoi9+EikSJfrC7te3j3zZVklL81A0DEdG80CejRujUqWKyu1In8uWLJLBBiRKGTJkgHfXzrEKNqACCxcuhBXLlqC4CDw4feYfrFu/Qc4jtWvbBhMnjJN1UjspcOLTp0/Ytp1eOrbAL317a7XHSrzzNW/uLFSpXBlJkyaVAkvvQw0eNEArnSEnrVu2wM5tW9C3Ty90EYK6QxxXr/6zLNLKyuT/6RjSdc7LBH4oAtOa2oCEI76MyqY6Esp+iI0CaeiMvohja69evcLde/elSNHwnea8kmZZtCQSDcfpOyRH5VLgQHTlaZat65jmbl6+fIns2bNF2T+a+yJBTp06ta5iQC/XEiNjeUtUGf0xsGnzFlkvvTelBHT0GzBIiiUJ4qoVS3W2i28yASaQsARoHTt95pz0bdX32ijwhxAmfSFyOuMRoLm0GjXr4Nbt29KrdHVxAQWWkGdpY2Mjl3qKGLxhvNq5JCbABAwhQAJlylurx7SDLQuTIU8/ked99+4dpk6bgRNiHuvx4yfIKELKCzkURK+ePRBxhYlEjoK7xwSYgBEJsDAZESYXxQSYABNgAoYTiEmYeAbbcMZcAhNgAkyACRiRAAuTEWFyUUyACTABJmA4ARYmwxlyCUyACTABJmBEAixMRoTJRTEBJsAEmIDhBFiYDGfIJTABJsAEmIARCbAwGREmF8UEmAATYAKGE2BhMpwhl8AEmAATYAJGJJDohYk2vrsnliUKCxO7YH0no7ppGwvadTaxGe3MSwvmktFqEavXrJWrRcgL/IsJMAEmEAcCiVaY1qxbjwaNPOFUzBVVfq6BwkWLyf2YSKgS2mgh2jHjJqi3KjdW/bTieMRVx41Vtr7lbNm2HcuWr5TJX4v19aifW7Zu1zc7p2MCTIAJRCJg8tteRGqxHhdWrFwtviDHo67YomFA/37Iny+f3E/o12EjhFg1wZ7dO+SK3HoUZZQkmTJlxKnjR8WSPhmMUp5SyPwFi+ThyuWmsZhq+vTpcfLYEWQwcj+V/vInE2AC5kEg0QkTbZY3Y9Zsua3EnFkz5P5G9Cg96tRG1qxZ0MizqdxfiM4T0pTtNRKyzu9Rl7n083uw5TqZgLkQSHRDeX4X/OX26RPGjlGLkvIwaYXs5s2a4r7YPZaM9kJq0aotTp06jbr1G8GtVFl5nbaQmLdgIX52ryWHABs0boK/xCaBmnblylU0b9kGRZxdULlqdUybPhOhIl90VsujHvb88ae8feLkSVSt7i63q9BM371nb8ydv0B9Kbo6QkJCZP7TZ86IPZ3OyONFi//vNdG8T7cevVDctaTsFwm1rrZRhbTdPG04WK5iZbnB4rARI+XmherGiIPrN26gV59f4OziJlcep80DI1qdeg3w+54/1JdpU8UpU6ejdt36cClRWg6nnvfzU9/nAybABJhARAKJzmO6ceMmUqRILjfki9hZOp/023j1Zdqu/NLlyxg5eizc3WvA3i6XvDd77jzQF33vXj2QM0cO7Nv/N0g0tm3eKD0x2kPJs2lz1K5VU6y03Q13xHYQkyZPlZP/Awf0U5eveUABGOTNkX34ECS3kAgTwQKaRuJAK3iT6aqjf7++6NO7FxYvCRejrl06I3/evDLf9es30KFTF5QtWwYjRwzDw4ePsEJsh07l/TY+fCNCmVDj14cPH9C+Y2dYWVuJzQ+7yD2g1vlsQIfOXbB10wYkT55c7tjbsbM3Uot9qwb274+Pnz7it4mTYW1trW4zFXnv3j28exfeTzofNGQojh49hvbt2iJbtqzYLXa/bdehs9yAMG/ePJSEjQkwASagRSDRCRP9VZ8vbz69N/H777//sGH9GhQtUkQNhrYtX792FUq4uclrdcSwX6ky5XFEfMHSzrMnhIdFm/ONGzsaP6VIIbc4dxQ7077896W6DEMPdNVB26/Xr+uBnTt3yWroWLEx4yfI7eSXLFqg9hgLFXJAF+/uaNGsmbynpFU+l69YJYVr/19/qEWm+s/VUKOWB0igaPv4ZctXIDg4SAoKzZmRVaxQHh71GqrzKOUpn2f+OYsdoo3r165G+XLh3mj9enXlcOpvkyZj+dLFSlL+ZAJMgAmoCSS6oTzajjxZsqTqDsZ0QBP2mqJE6WsK74lEiYa/AgICcV94O+RV0FbtZHly20vhGzFyNK5duy49JRomJK/LWBaXOihcm4b/PETQB4mXYjXEdujkRV6+ckW5pPVJ18uUKa0lMNmzZ4ebmysuXw7Pc/XaNSnAiihRAQULFICjY2GtsjRPqFza+VYRJbpHHhZ5mtG1RTM/HzMBJmCeBP7/7ZVI+l/IwQG37+j/vlCyZMki9ZzeN2rWsjUcRYh5yTLl4F7bAyR4ipGQTZ86WUb60dyRa8kyGD9hopzbUtIY+hmXOkhEyQO0t7PTqp62gM+VM1e0XKi/EfNQAXRNYUm710aXRqsyjRMq185euy2yXHFNaatGcj5kAkyACUgCiU+YxLDVmzdv1d5NxOdMQ33k5URnFPjg1awFrK2ssHb1Sly9dAH3bt9AyRLhw3pKvsaNGuLo4YPYt3cPWrdqgU1btqJHrz7KbZ2fJBRkoSKIQdNCQrXPY1sHhWknSZIkUtAC1REQGCDmeLJpVqc+pusBgYHqc+UgICAA2b/lySrmh6JOEzmfkp/ykgBFNCo3lZiroh82JsAEmEBEAolOmFzEHBB94Q0fMSpiX/FKvADaWISL01xRdHZXTN6/FkER3by7SDFKmTKlHNK7LoIqFHv69KkMXiCBcShYEL/06S3T05wKDafFZJkzZ5JJLn0bJqMTmrOiQAXF9KnDSohnsMinGIkpteek2Apd00iMSayLODpqXlYfFyniiHPnzoMi6BQLDv4If/+L6jy0pfrZs+e00lCZV65eVbJE+qRynz17hgcPH2rdo/kzXUOAWon5hAkwAbMjkOiEiaLa5s2eicO+RzBg0GAZCk4Rab7i3NOrGZKJCDMKGY/OaLiKhvfWrF0vv1Bv3rqFHiIiT3NJI/pipVDy7Tt2glaSePjoEfb/fUAKmeINRVc+XS+QP7+sY8HCxaDQ6Xv372OwiF4TqqbOpk8dbq6uuHjxkuirrxRdyty9W1fs3LUb8xcuku06dvyEDNEuXboU3Fxd1OVrHrRo3hTv3r/DgIGDpTdJ8z99+w+QguzVpLFM2rJ5cxkgQWko8u+CCMvv2buP9NA0y9I8LivmrYo5O8nQdRLL+w8eyHfMDogw824ikpCNCTABJhAlAfEXfpzt/v37cc4b3xk3b9mmqlO3gco+bwFVrtz5VHnyFVS1addBJYaW1FXPmTtfVaZ8JfW5ciDez1EVdysl8zk4FlWJde5UYnhPNXDwrzJJSGioauq0GapCRZxlmnwFC6tEiLbq33//VYqI9FmgUBHVep8N6usHDx1WuZUqI/Pnd3BUiWV9VOJdKpUIXde7jqfPnqnatO+oKli4qGr8b5PUZfts2KiqVqOmLNvRqbhKROSp3r17p74f1cH5836qhp5eqjz5HVR5CxRSCRFXicAHraQHDh5S1ahZR5ZL/Vm4aImq34BBKvE+lzod8Vq7zkd9/vLVK8mGWNnlya+q7l5btW37DvV9PmACTMD8CMSkHRaEJErF0uPiA/EXsL29vR4pv18SGm568vSJ9FKSJk0aq4YEBv6LdOnSykiy6DLKNOnTyTmp6NLQEJn4YsasGdPkMkma6YSYwdbWFjY2NpqXtY5jqiM0NFRGCdLQnqZR31OnToWI1zXTRDymITyaAqN3l6IzGhJNkzq1Ti4R81KE44f/Poi+pol4i8+ZABMwMwIxaUeie48p4vNNm9YW9BMX0wyNji5/TGlomG/ZshVSOCpXqhipGOWF2kg3NC7EVAeFYEdlcek3hZXHZBQCHluj+S8WpdhS4/RMwDwJJLo5JlN7jBRUECC8otkzp3MUmqk9HG4PE2ACJkkg0Q/lmSR1bhQTYAJMwIwJxDSUxx6TGf/j4K4zASbABEyRAAuTKT4VbhMTYAJMwIwJsDCZ8cPnrjMBJsAETJEAC5MpPhVuExNgAkzAjAmwMJnxw+euMwEmwARMkQALkyk+FW4TE2ACTMCMCbAwmfHD564zASbABEyRAAuTKT4VbhMTYAJMwIwJsDCZ8cPnrjMBJsAETJEAC5MpPhVuExNgAkzAjAlEvfpnLIDQ0hJsTIAJMAEmwASMRcBgYTL1bS+MBYrLYQJMgAkwAeMQiMmh4aE843DmUpgAE2ACTMBIBFiYjASSi2ECTIAJMAHjEGBhMg5HLoUJMAEmwASMRICFyUgguRgmwASYABMwDgEWJuNw5FKYABNgAkzASARYmIwEkothAkyACTAB4xBgYTIORy6FCTABJsAEjETA4PeYjNQOLoYJMAEmwASMRGDdqa/YezkMfg/D8OytCl/D9CvYSrgq2Wwt4GJniVpFLdGqjJV+GY2cykIlLK5l0ktS/IJtXOlxPibABJiAcQmQIE3YE4rHr+P8ta7VoJzpLDDMw9roAhWTdvBQntZj4BMmwASYwI9JYMCmEHivCTGaKBEFEjgqk8pOSGNhSkjaXBcTYAJMIB4IkHAs8v0aDyWHF0llJ6Q4sTDF26PkgpkAE2AC8U+Ahu/iU5SUHlAdVFdCmMkJ06NHj/Hy5cuE6LvZ1fHff/9h567dePXqldn1nTvMBBIrAZpT0mW2KSzg09UGHxYmw6ZuSSIltc9ggcDZyeT97T0j39fMEFNdmmkNOTYZYdq8ZSucXdxQsUo1uJYsgyrVauDW7duG9E3mff/+PQ77+mLu/AVYunwFTp46hc+fP8e63C9fvqBU2fLyx8/vgs78HTt3lemovu9pLVq1le1Y77NRNmPylGno80t/DP512PdsFtfNBJiAkQiQB6Mr0MEuvQVODUuCKg7RR9dN9LTGyw8qfNRjGonqSgivySSE6dBhXwwaMhS9evbA1cv+OH7kMFL8lAJNm7XE169xdx3PnT+PajVqol2Hzpg2fSbGT5iI5i3boH5DTzx89ChW/zQoePHFiwD5QyKly8gjobQfPnzQlSze7/3777+yHUFB4e1wcnbCTylSwMWleLzXzRUwASYQ/wQoJFyXkTA9eqXCz9Oi/mO8XH5L1HW2wrBtoQjR7Xipq4mpTnVCAw5MQpgOHjoEN1dXdOrQXn5x5syZAyOG/orXb97g2vXrcerex48f0bptewQG/ovatWpi3pxZmD51Mkq4ueH6jRvw7t4zTuX+yJm8PBvjyqUL6O7d9UfuBredCTCBbwToPSVd5v84DLVnfcHzt5FTWVgAk4W3dOJ2GHb46e8AxFRn5Jpif8UkhMmpaFF07dJJq/W5cuWU58+fv9C6ru/JseMnEBz8ERaC/oxpU1DXow48GzfCsiWLQF/QRQoXxqvXr2VxXs1aoHbd+jhy9Ji6+P1/H5DXSNwiWkhoKCZOnoJyFSujbv1GmDN3frSe3Zq16/Czey24lSqLfgMG4dOnT1rF0RBm2/YdUbSYKzy9msshx4he4tr1PmjQyBOOTsVRoXJV9OrzS6R5uFOnTkuxLVmmHFq1aYcbN29q1UMn8xYshEf9hhg3/jd5j4Y4qd/NWrbGffFOWpt2HWQdNWrWge+Ro1r5qfxuPXrJocGWrdvi5q1b6NKth8y/a/fvWmn5hAkwgYQhQC/P6rL3HxHty7VNS1jBOaclhmzV01X6VlFMdepqj773TGLlh6ZeTSK19+y587CyskIRx8KR7ulzIV26tDIZDcHNmDUH3l07I326dLC1TYOpUyZpFXHt+g1QYMC7d+/U19++fYurV68hU6aM6mvKwfQZM3HB/6I8ffLkKS5dvozgj8EYMmigkkR+Hjh4SJZB4hgWFoZt23fAytJSXf+q1Wswasw4KZ758uWV5Zw9dw5U5uSJE2QZ02bMwtx582Ep8uXMkQNPnz4FBYj4XbiAo4cPSkZ3794DzWsFBQfLPAEBgWjXvhPCVNp/TT179ky2J3u2bDLd27fv5HmKFMnRqYs37t27L9tJotN/4GCcPX1C1ksi16FzFyn0lJG8UCo/9GuoPH75koMpJFD+xQR+EAI2YsppRD1ruTrE/ZcqUIAEeVDJbYDMqS0Q8F634MV3N03CY4rYSfJkJk6agmZNmyDbty/RiGliOnd2ckIxMadCtmTpMriJgIrq7rWlt3Dx0qWYsuu8/1gIx64d28QX90nUq+sh0y5avBQ0p6Np5O3t/+sPnDtzEtWqVpG3fI+GeyIUeThm3AQpSmtWrcCBfXvhe+hvpEubFhs3bQYJFBkFb9QXdWz0WYejvgdx8MA+KRbhgnhFppk+c5YUpTRp0mDr5g3wO3saFSqUBwmUPkaeZYP69XDj6iXMnjldZqH2+X8T36nTZkhRypw5E/bt3YPL/ufh7l5dipI+5XMaJsAE4ocALR8UF8uSxgI0/1TbyRJPpieVP6mSARUKWGJnL92ReXGtMzbtNDlhCgkJQTcx/2Nra4thYp4prmZjY4O1q1eibZvW8suePBaK8lu2YiXqNWgsh+LiWnbP7t2k6JE3NWHcGCku5JnduHlLq8g6Ym6rQP78SJ8+PbyaeMp75G2QEPhfvCS9E8pHfT546DCuC8/tq2gnmSIKY0ePxJzZM1GkiKMcPiPxo76QPX78WH4qw3adO3aQc2hUH7WLGOhj1tbW8O7SGUmTJpUCpXiJ/5wNF0fyHMk6d+oIh4IFkTJlSgwfNlSm16d8TsMEmED8EKA17eJir4NU6OMTovVD6+ldf67CpD91D+3Ftc7YtNMkhvKUBtOX9IBBQ3BXDCn9vnObDIRQ7sXlM3Xq1KAv9pHDh+Ly5Ss4euw4Nm/dKofKyMOpW6eO/MKPbdk07KYY1ZEhQwbpLdE8TYXy5ZRbSJc+nfo4Y8YM6uOwsK9ac0AdOnVR31MOFJE77+eH4SNH46YQvYhzT5SWmD188FBmy5Mnt5IdSZIkkUN/9+7fV1+L7iBVqpRaIpYxY0bpDdFQXaiIigwIDPe8cmTPri7CWgyzZsmcOdbRjeoC+IAJMAGDCdBCq7su6B+4oFQYJIL0lh/TzjfVy0aGnsdUHtUZ32ZSwkQh3eQ5bN6wPs5DeAqw5y9eyDkjEo5sWbOiePFi8ofms8pVqCS/cCnijzwRmgMiC/42R0PHn3S860Sh4IqRt/PmWxBF1ixZlMsxfubMGR7cQV7NH7/v1EpP7UmVKpUMN2/WojUoPL11yxb4+edqwvtKB496DdXpKW1mUS/NPWkO3ZFgBQT8v53qDLE8IAGyt7eT80/Eq1ZNd1kCzclRnWxMgAl8PwK0+rc+i7aSh5Sym3bgVcRWp+ul+z6lp0VdE2LF8fiXvoi9j+bcZ8NG+QLs8qWLUbhwoWhS6X957959cK/lgYaNm2itdPBCfFmTF0BWxNFRftJf/mQUlUfDZOSZHDhwUF6L6teqNWvU0XX0Eq1SHg1z6WvOTkXVScm7KViggPy5c+cuDh3yBQUqkJdHokRDbb/+OhiVK1VEiuQp1PmUA4eCBeThOh8fBAUFyWOK5FOCIZR0cf2kEHuyJUuXY8vW7Th95h9079lb3e+4lsv5mAATMJwArf6dUJZQdSVcj3SQo7DlX4eNkIEE5IEcP3FSnTp79mzIbW8v/2Jv3a49Bg0cIIMB1AmiOajrUVu8VDtDvmBaqWp1uIqXSkPEG2RKUEEhBwcUKuQgcxcr5iznn/7c+xfKV6oqIt0sEfQh/As+quLJY3JxKwVbEaigeA3u7jVA71/pa/Z2djJ8feu27WjStIUMjiDR9PU9gmTJkmHPrh3IkDuDDHQIFeHpzZq3goNDQRHGfURG4mkO63Vo306Gd1N0Hq2akSFDejkUR3NBxnjJd/jQITgr5ptoWHDAoMGyi/SSbo4c2eWwqL595nRMgAkYnwB5MP6PwuJ9vTzvylYJ4i0RIZPwmJYsXSGf1u7f94DekdH8WbfOR96jYbY3r99ohXTLG9H8onmSPWKIrLgQHfpypvdyTpw8Kedk6tSuhW1bNqqH8OiLl4b6aFiMhCa7mEuhVSiiM5q3Kio8HkpLodYkSjPEy7uxtSmTfkObVi1FvZCReCRK5HWtXrEM+fPnQ9q0tpgza4YM3qCQ9L/27cfQIYPF9fBQeKW+8uXKYvzY0bDLlQv0YjH1d+b0qXIIU0ljyCcNh+7YtgWzZkyTwSRjRo2Az9rV6uAHEnI2JsAEvh+BaU1tQMIRX0ZlUx0JZT/URoHkJdC7TbE1Gt66dfsOkidPhnx588qhsajKePPmrRw6o7BofYxCucm7oaE4Q41EjuaVSASiMorGSyfew4qp/7QcEgkXvfdkLNsnBPGu8Jby5s4tRZjKpSWdKgtPlIY+d4tAFQrPZ2MCTOD7EqB17PSZc9K3ld9ro8AfSpj0hcnpjEvgjz/3yjkl8ihLlSqJVGKI8KRYCYIE39XVBds2/9/7NG7NXBoTYAJxIUACZcpbq8e0gy0LU1yeuhnmoWjJhYuW4O7du/gollWi97MoNL5vn15aoeZmiIa7zASYQCwJsDDFEhgnZwJMgAkwgfglEJMwGW8iIn77waUzASbABJiAmRBgYTKTB83dZAJMgAn8KARYmH6UJ8XtZAJMgAmYCQEWJjN50NxNJsAEmMCPQoCF6Ud5UtxOJsAEmICZEGBhMpMHzd1kAkyACfwoBFiYfpQnxe1kAkyACZgJAbMRJloIlVbu/qxjO4uEeObXrl3HuvUbEqKqBK2DVjJf77NRvYsvbXpIK5yzMQEmwARiSyDRC9PJU6fQtn1HOBVzRbUaNVGoiDMaNPKUK2XHFpYx0q/fsAGjx44zyqrfSnvevXsHWhmdPr+X0QK7Q4ePwIOHD2UTNojt4UePGfdd2/S9WHC9TIAJGEYgUQsTbV/etn0n0OKsEydOwLkzJ+GzjvZS+oz6DT21dpE1DKP+uceMGomTx47I7cn1z6U7JS2o2q1HL5PaTZZ2DaZ+pkmTRnfj+S4TYAJMIAKBRC1MEydNlqt/L128UO7hRFthlBaLkG7euB42YvM9ZUuNCEzi9ZQ2/cuUKWO81mEKhVM/9V2l3RTay21gAkzAdAgkWmGifYn+EZvb9endM9IXJG0t0bdvb7z6tiU6PY7q7rXlcNjgX4ehmGsJrFm3Xj6l22K7DBoKpGtlyldCvwGD1LvEUgLaimPK1OmoUq0GiorhwmYtW+Pq1Wsyb1S/Nm3eAq9mLdS3unh3x6LFS9XndHDmn7OoWt0dtH05ma46aAdd8pbI6JPyUd/Jnjx5iiFDh6NcxcqoWLkaho0YqbX9ukwU4RftmEv9qV23PlxKlEbP3n1x3s8vQirIBV1redSDs4sb+g8cDNoCRNM2b90GT6/mmpdw+vQZ2cbiriVRt34jzJg1m3fB1SLEJ0yACRCBRCtMN2/dlnsFubm6RvmkaYO+hfPnqu/dvXdPfiEHBgaiX98+KOHmKr9sG4it2Wnn21EjhqN1qxZys8Eevfqq802cNAUbhdj07tUDc8WmfqnFnkqeTZtFO7dCw4r3HzxQ53/0+DFeij2UNC04OEis4n1PCFKYvKyrjvJly6JZUy+Zjj779BarfYv9oWizwPYdO8P/4kV4d+2CDu3bSsHr0LmLWrg061SOBw0ZKjctrOXujmFiO3cSx3YdOsv2KGmWLluOKdOmo1TJEhg7epTcfLH/t51tlTRv37zR6icFQ3To1EWwDMHIEcPkjr2rVq/FyFGjlSz8yQSYABMIJ6AywO7fv29A7vjNumHjJpVdnvyqD0FBelWUO19Blfgi10r7+PETFZUTFBSsvr5y1WpVvoKFVSK6T16rXLW6avxvk9T3hbei2rhps+rJkyfqa5oHYusIlVupMupL7rU9VOMmTFSf08Ghw4dVuXLnUwkRk9djquPipUsyPX0qNmv2XFUxlxIqIbTKJdmmwkWLqZYsW66+pnlw+sw/spxjx0+oLwshUQnvRiVERV6j/uXJ76CaPGWaOg0d9O7bT+b95+xZeX3xkqUq4XGp0zRt0UrVpGlzlfD+1NfEjrwyz+XLV9TX+IAJMIHETyAm7Ui0HtMnsWcQ7eKaxEb/7YCrVKms9fdKjhzZpTdC26eT5/Do0WOEiLBzGu5ShgHz5MmNHTt3Yeeu3dLDoh1tm3o1kduzaxVmwElc6rh85QrKlCkNmldTjLaMdxOeoBAC5ZLWJ+VJL3bJpa3aFaO5otq1aoLukd26fRsUet+wQX0lifxs1LCB1rnmifhvhitXrsLDo47Wzro1qv8st6ZXytbMw8dMgAmYL4FEK0wODg5ybuae2BJcX0uWNJlWUvpCFZ4HyleqgiLOLqhQuSrGT5iolWbKpN/ksB/Nszi7lIDwDODre0QrjaEncamD5sbs7ewiVU3Xbt+5E+k6XaA8dvZR5BHXAgICpTjTECOZnV0u+an8so8in3JPyRuxPbQjbq6cuaJtj5KfP5kAEzAvAolWmAo5FJRPMrpAhGfPnkEMXel82jQHMmfefHT37opTx4/gzs1r2LB+jVae9OnTy7kq//P/YNGCebC0sER7MZdy7vx5rXTRndCXc2hoiNZtmtPStLjUkS1bNgSI+bKIFhAQgOziXlRG10lEIhrlSSXmzugna9as8nZg4L9ayaLKpyTIkDEDkoh5r6jSBAQGgNrKxgSYABNQCCRaYaL3Z4oXc8bUaTOiDETo3rO3iCxbrHCI8lPMl8CleHG0aN5MfnnaiGFBGpJSjCby6ZyG+ehL271GdaxdvQLJkyfH2bP6CVPmTJlxKcLQ2s2bt5QqZLBATHVYWVrJ9MHB4dF4dFKkiCPOnTsvhx2Vwui+v/9FFHF0VC5pfVIeEmzlJVnl5olTp+HoWFieOhQMF/zjJ04ot+XnsePHtc41T6ytrED56GVnTbt+44Z8xyy69mim5WMmwATMh0CiFSZ6hAtE1N1nMR/UsbO3DAV/+fIlLogvZopWuywExbtLZ51PupAYDrzg748DBw/JpXZ2/74Hy1euUuexEl+4Xbv3QGcR8k1DXPTFv13MNwUFBcmINXVCHQfOzkVxUbwIvHrNWikKIiAAtGqCYvrUUaBAfimMPhs2ypeGw8LChJg2xbv37zBADDFeE8sg0TxO3/4DZHi2V5PGSvFan2XFnFQxZycZ0k0iQtGDFNJ94MBBdPvGytY2DbyaeEIEbGDPH39CBIhABIhgy5ZtWmVFPOnerauch5u/cJF8EVgEWMhQ9NKlS8HN1SVicj5nAkzAnAkYEv8RU2SFIWUbK6+f3wVVy9ZtVfkdHGUEGEW7iaWJVH4X/LWqoKi8zVu2aV2jiD7xnpGK7lG++o08VSLIQR4/e/5cphVDhao6dRvICEBKU7JMOdXWbdu1ytE8iRiVR9F9nbt2k5FulJ/KEgIj61Ci8vSpY/mKVSqK3qMylCjC8+f9VA09vWTZeQsUUnl6NVPFFAEnQtdlBJ5Yukn2Sbzfpdq2fYdmF2REIkXhURqqz6NeQ9WJkyflcXRReVQA9YvYUx5Hp+KSrVhGSatsPmECTCDxE4hJOywIQVyF+YH4i9re3j6u2RM0Hy3eeuPmTRkQENtlcuiF1WDxQxFr0Rl5S58+f0K6tGmjSyKvkwdCnsahv/dppaMoQloI1dA6qJ9JkybVKpvaJqay5BCj1g0dJ6HixeEP/30AeUjRGUXnvRMv1upqc1R56V2u1KlTgbxBNibABMyPQEzaYW0uSOjL2tnJKU7dpTkj+tFlFFJOP7pMhpXv3I1atdwjJaMwc/rRZfrUEVGUqLyY2hVVnTQvpEuUKA+FksdWlChf2rS29MHGBJgAE4iSgNkIU5S9T+CLtEJE7do10a5NmwSumatjAkyACfw4BFiYEvBZbfJZl4C1cVVMgAkwgR+TQKKOyvsxHwm3mgkwASZg3gRYmMz7+XPvmQATYAImR4CFyeQeCTeICTABJmDeBFiYzPv5c++ZABNgAiZHgIXJ5B4JN4gJMAEmYN4EWJjM+/lz75kAE2ACJkeAhcnkHgk3iAkwASZg3gRYmMz7+XPvmQATYAImR4CFyeQeCTeICTABJmDeBFiYzPv5c++ZABNgAiZHwOAliWiVWDYmwASYABNgAsYiYLAw/SjbXhgLGJfDBJgAE2AChhGIyaHhoTzD+HJuJsAEmAATMDIBFiYjA+XimAATYAJMwDACLEyG8ePcTIAJMAEmYGQCLExGBsrFMQEmwASYgGEEWJgM48e5mQATYAJMwMgEWJiMDJSLYwJMgAkwAcMIsDAZxo9zMwEmwASYgJEJGPwek5Hbw8UxASbABJiAgQTWnfqKvZfD4PcwDM/eqvA1TL8CrYSrks3WAi52lqhV1BKtyljpl9HIqSxUwuJaJr0kxS/YxpUe52MCTIAJGJcACdKEPaF4/DrOX+taDcqZzgLDPKyNLlAxaQcP5Wk9Bj5hAkyACfyYBAZsCoH3mhCjiRJRIIGjMqnshDQWpoSkzXUxASbABOKBAAnHIt+v8VByeJFUdkKKEwtTvD1KLpgJMAEmEP8EaPguPkVJ6QHVQXUlhJmcMAUFBeHNm7cJ0Xezq+O///7Dzl278erVK7PrO3eYCSRWAjSnpMtsU1jAp6sNPixMhk3dkkRKap/BAoGzk8n723tGvq+ZIaa6NNMacmwywvTP2XOoWt0djk7FUcy1BEqWKYdt23cY0jeZNzQ0FFT2ipWrMWfufPx94CBev3kT63K/fPmCUmXLyx8/vws683fs3FWmW7p8hc508X2zRau2sh3rfTbKqiZPmYY+v/TH4F+HxXfVXD4TYAIJQIA8GF2BDnbpLXBqWBJUcYg+um6ipzVeflDhox7TSFRXQnhNJhEufl9E97Vo1QYNG9THyuVLkSRJEqxavQb9BgxC9mzZULp0qTg94oCAQHj36ImIQmJrmwZzZs1EpYoV9C6XghdfvAiQ6UmkdBl5JJT2w4cPupLF+71///1XtiMoKLwdTs5O+GnHTri4FI/3urkCJsAE4p8AhYTrMhKmR69U8FzwBWeGJ42UtFx+S9R1tkLrpSGY38om0v2oLlCd8R1GbhIe0/79B5A2rS2mTPoNdrlyIWuWLPh18CCkT5cOx0+eioqNXtf69OsvRalw4UKYOmUS5s+djSaejfD27TuQV/Pq9Wu9ykksibw8G+PKpQvo7t01sXSJ+8EEzJoAvaeky/wfh6H2rC94HsXsiIUFMFl4Syduh2GHn/5zRzHVqas9+t4zCWGqUqUS1qxcAQsipWEpU6ZEaKge/qVGHuWQxOfMmX/k6eCBA0Bfyh51amPalMno5t0FDevXw7179+R9r2YtULtufRw5ekzJjv1/H5DXWrdtr76mHISI4cGJk6egXMXKqFu/kRwi/Po16ge7Zu06/OxeC26lykoP8NOnT0ox8nPzlq1o274jihZzhadXc8ydvwARy1q73gcNGnnKYc4KlauiV59f8PLlS61yTp06De/uPeUQaKs27XDj5k2t+3Qyb8FCeNRviHHjf5P3Dvv6yj42a9ka5LW2addB1lGjZh34HjmqlZ/K79ajlxwabNm6LW7euoUu3XrI/Lt2/66Vlk+YABNIGAL08qwue/8R0b5c27SEFZxzWmLIVt1zVBHLj6nOiOnjcm4SQ3kF8ueP1PY9f/yJFwEBqFunTqR7+lxImfInOSRIQrB8xUrkypkTefLkllmHDBqoVcS16zdAgQHv3r1TX3/79i2uXr2GTJkyqq8pB9NnzMQF/4vy9MmTp7h0+TKCPwYjYrkHDh6SZZDghoWFyTkzK0tL6b1RZhquHDVmnBTkfPnyynLOnjsHKnPyxAmy/GkzZmHuvPmwFPly5siBp0+f4tGjx/C7cAFHDx+ElZUV7t69Jz3AoOBgmYeGMNu174QwlfZfU8+ePZPtoeFRMhJv6mOKFMnRqYu3EOr7sp0kOv0HDsbZ0ydkvSRyHTp3QXCw+FcuLDDwX1l+6NdQefzyJQdTSDD8iwn8IARsxJTTiHrWcnWI+y9VoAAJ8guSi9G8zKktEPBet+DFdzdNwmNSOkl/wZP3QEEQK1etwfq1q+DoWFi5HatPa2trtGzRTOY5euw4qvxcA2XKV8Iv/Qfi0GFf4YnF7q8EzcofC+HYtWOb+OI+iXp1PeStRYuXguZ0NO358xfY/9cfOHfmJKpVrSJv+R4N90TI4xkzboIUpTWrVuDAvr3wPfQ30qVNi42bNoMEiuz9+/eoL+rY6LMOR30P4uCBfVIswgXxikwzfeYskCilSZMGWzdvgN/Z06hQoTxIoPQxEpwGwoO8cfUSZs+cLrNQ+/y/ie/UaTOkKGXOnAn79u7BZf/zcHevLkVJn/I5DRNgAvFDgJYPiotlSWMBmn+q7WSJJ9OTyp9UyYAKBSyxs1cSnUXGtU6dhUa4aVLCZJvGFgULFkBue3vcvXcXu3fvMSi0ecSwoRj262DkyZ1bdps8hu1i8r99x85oJYboFA8gApMYT3t274ZiIpCAvKkJ48ZIcaHgiBs3b2nlrVOrJsgbTJ8+PbyaeMp75G1Qvf4XL0nvhPKFhITg4KHDuC48t6/CsyJTRGHs6JGYM3smihRxlMNnJH7kfZE9fvxYfirDdp07dkAJNzdZH7XLxka/yUwSce8unZE0aVIpUIqXSNGMZORVkXXu1BEOBQuChliHC7aUno0JMIHvR4DWtIuLvQ5SoY9PiNYPrad3/bkKk/7U/Ud7XOuMTTtNYihPaXDx4sVAP2Q0tFa+UhWkSpUKgwb2V5LE6pOG0Lp07iR/bt++gzP/nMXW7dtx4YI/aM5k/YYNoC/z2BoNuymWOnVqZMiQQXpLNE9ToXw55RbSpU+nPs6YMYP6OCzsq9YcUIdOXdT3lANF5M77+WH4yNG4KUQv4twTpSVhe/jgocymDFXSCUU20tDfvfv35T1dv1KlSqklYhkzZpTeEA3VhYq5s4DAcM8rR/bs6mKsxRBilsyZ8fDRI/U1PmACTCBhCdBCq7suRD2/raslQZ+B5ce08031spGh5zGVR3XGt5mEMNFcR7JkScWP8CW/GQlSo4YNsGPnrjgJE80XPX/xAtZW1iAhyZ8/n/yh4b3qNWuDhOrateuyNiXoIvjbHA1d/PRZPLloTAkbp9vk7bz5Ft1H0YT6Wk4x50VGXs0fv+/Uykbtof5TuHmzFq1B4emtW7bAzz9XE95QOnjUa6hOT2kzi3pp7klz6I4EK0DM0RlqJED29nZy/una9euoVdNdFkl/OFCdbEyACXw/AhS2rc+ireQhpeymHXgVsdXpeum+T+lpUdf4DhWneuJf+qiWGKxXn74YNPjXSKloyMtWhJHHxZ49ew73Wh4yIu7c+fPqIt69e48P/4W/11PE0VFep7/8ySgqj4bJyDM5IF7Ejc5WrVkDJbqOXqIlr4KMhrn0NWenouqk5N0ULFBA/ty5cxeHDvmChh0vX74iRYmG2n4VQ5KVK1VEiuQp1PmUAwcx/Em2zscHtHIGGUXyKcEQ8oIBv2h4kGzJ0uXYsnU7Totox+49e6v7bUDRnJUJMAEDCdDq3wllCVVXwvVIB7mmXk3Qu28/4dnkQ/36daUXsW/f39i6bbuIdBsgc967dx+t27UX3tMAGQygozh5q1AhBzgVLSoj3Zo2awlXVxc5N0LDeLTyA3kk1YUHQlasmDNu3b6NP/f+JYYPq4pIN0sEfQj/gpcJIvwij8nFrZQQzbRqr8HdvQZy5swRIWX0p/Z2dvBs3Ej2sUnTFjI4gqIQfX2PSM9xz64dyJA7gwx0oECNZs1bwcGhoAjjPiIj8TSH9Tq0byfDuyk6z7VkGTG0mF4OxdFckDFe8h0+dAjOivkmGhYcMGiw7BS9pJsjR3YZQRh9L/kOE2AC8U2APBj/R2Hxvl6ed2WrBPGWiJdJeEz0fhFFg23asgUVK1dDmXIVsWjJEowY9quccKeG0jDbm9dvtEK66bou27B+jZzMpzhIml+iAIM3Igy8aJEi2L1zG3LlCh9Ooy9emtuiYTEansou5lJ69ewRbdEUkFBUeDyUlkKtSZRmTJ0cbfrobtALxW1ataTmyUg8EiXyulavWCaHHeml4zmzZshIPQpJ/2vffgwdMli8jJxWq8jy5cpi/NjR8uXkjx8/SjGaOX0qsmXNqpUuric0j7Zj2xbMmjENbdu0xphRI+CzdrU6+IGEnI0JMIHvR2BaUxuQcMSXUdlUR0KZyW0USPNNNKeiRIZpgiAvgd7bia2Rx3Hn7l18FEODBcUXP4lJVEaLx1LdFBatj1EoN82L0VCcoUYiR14ciUBURtF46cRKGDH1n5ZDIuGi956MZfuEIN4V3lJeEd1IIkxGQQ+Vq1aXQ58k8s5OTsaqjsthAkwgjgRoHTt95pz0Lf57bRRocsKkLzBOl3AE/vhzr5xTIo+yVKmSSCWGCE+KqEaaz6Ih0m2bN0pvM+FaxDUxASagiwAJlClvrf5ARDDbi9eCojMWpujI8HUtAjQMunDRErHKhPA8xWoa9H4Whcb37dNLK9RcKxOfMAEmwASiIMDCFAUUvsQEmAATYALfj0BMwmS8iYjv10eumQkwASbABBIRARamRPQwuStMgAkwgcRAgIUpMTxF7gMTYAJMIBERYGFKRA+Tu8IEmAATSAwEWJgSw1PkPjABJsAEEhEBFqZE9DC5K0yACTCBxECAhSkxPEXuAxNgAkwgEREwK2Gi/ZI0t0//Hs+RttpYt37D96g6XuuklczX+2xU7+JLmx7SCudsTIAJMIHYEkj0wkTbR/Tq8wvcSpWVa7s5FXeTGxDSSgbfw2hzwtFjxxll1W+l/SS2tDL69xRdWmB36PARePAwfNPCDWJ7+NFjxn3XNil8+JMJMIEfi0CiFiba8qGxV3Oxf9AZ9OjmjRNHfbF3z24UL1YMnbp4yy0nEvpxjRk1EiePHZFbcBirblpQtVuPXia1m+zI4UNlP9OkSWOsbnI5TIAJmAkBk9iPKb5Y0yZ+5DGtWrEUVSpX/lZNdrmVBHkXCxcvkXsixVf9UZVLm/5FtXJ6VGl/5GvUT31Xaf+R+8ltZwJMwPgEErXHdOTIUbkZ4P9FKRwgrZLdp3dPZMyYEc+eP5cXq7vXlsNhg38dhmKuJbBm3Xp5nbZgb9u+o7xWpnwl9BswSL1LLCWgrTimTJ2OKtVqoGgxVzRr2RpXr16TeaP6tWnzFng1a6G+1cW7OxYtXqo+pwPaO6pqdXfQ9uVkuuog8SVviYw+KR/tyUT25MlTDBk6HOUqVpb7XA0bMVJr+3WZKIpfG8UwXItWbUHDnq3btse27TsipaIFXWt51IOzixv6DxwM2gJE0zZv3QZP4a1q2unTZ2Qbi7uWRN36jTBj1mzeBVcTEB8zASYgCSRaYVKpVLh56xbcXF2jfNSuLi7YuH6tejO9u/fuSYEJDAxEv759UMLNVX7ZNmjcBCEhoRg1Yjhat2qBEydPokevvuoyJ06ago1CbHr36oG5YlO/1GJPJc+mzaKdrxjraQAACFJJREFUW6E9nygIQ7FHjx/jpdhDSdOCg4PEKt73hCCFycu66ihftiyaNfWS6eizT2+x2rfYH4qGMdt37Az/ixfh3bULOrRvKwWvQ+cuauHSrFM5JuH8ddgIFCiQD+O+bT5IwrP79z1KEixdthxTpk1HqZIlMHb0KBDr/t92tlUSvRW7BGv2k4IhOnTqIliGYOSIYXLH3lWr12LkqNFKFv5kAkyACYQTEF8qcbb79+/HOW98ZxRfiqpcufOpRJCDXlXlzldQJb7ItdI+fvxEtWHjJlVQULD6+spVq1X5ChZWff78WV6rXLW6avxvk9T3hbeiEh6H6smTJ+prmgfC01C5lSqjvuRe20M1bsJE9TkdHDp8WLZdiJi8HlMdFy9dkunpU7FZs+eqirmUUAmhVS7JNhUuWky1ZNly9TXNA7FJouzb1GkzNC+rRLCGivKFhYWpqH958juoJk+ZppWmd99+sg3/nD0rry9eslTlUqK0Ok3TFq1UTZo2VwnvT31N7Mgr81y+fEV9jQ+YABNI/ARi0o5E6zF9EnsGkSVLljRcgfX4XaVKZa1UOXJkl94I7XhLw2qPHj1GiNgNl3a5ffX6tUybJ09u7Ni5Czt37ZYeFu1o29SridyeXaswA07iUsflK1dQpkxpOVypVE1bxrsJT1AIgXJJ6/PWrduyb/Xr1dW6Xr9ePemBUcTdrdu3QTsCN2xQXytNo4YNtM41T8R/M1y5chUeHnW0dtatUf1nuZswtZWNCTABJqAQSLTClC9vXrmBHc0R6WvJkibTSkpfqMLzkOHlRZxdUKFyVYyfMFErzZRJv8lhPxrucnYpAeEZwNf3iFYaQ0/iUgf1297OLlLVdO32naiZKNft7HJp5VPKoTJpiJEsUhr7yHUphQQEBEphV8pRrtNcX66cuaJtj5KOP5kAEzAvAolWmCgqLF++vLgSTSACzcGcEtuDKwEGUT12mgOZM28+unt3xanjR3Dn5jVsWL9GK2n69OmxcP5c+J//B4sWzIOlhSXai7mUc+fPa6WL7oS+nENDQ7Ru05yWpsWljmzZsiFAzJdFtICAAGQX96IyykMWGPiv1u2AwAB5TvmyZs0qjyOlEeITnWXImAFJxLwXCVREo7KVeiPe43MmwATMk0CiFSZ6nJUrVcR2EVF24YJ/pKc7d/4CePfoqXNbcDFfApfixdGieTP55WljYyOHpJTCaCKfhqhI3FKJoAf3GtWxdvUKJE+eHGfP6idMmTNlxqUIQ2s3b95SqpDBAjHVYWVpJdMHB4dH49FJkSKOOHfuvByaUwqj+/7+F1HE0VG5pPXpWLgQSChPnjqldf3kydOSU4EC+eFQsKC8d/zECa00x44f1zrXPLG2spL5IpZ7/cYNUDBIdO3RLIOPmQATMB8CiVqYBvT7Ba6uLujeq49cBojeaaI5komTp2DJ0uXo1KGDmIPSHr7TfPSFHBxwwd8fBw4ekkvtUGTa8pWr1EmsxBdu1+490FmEfNMQF33xbxfzTUFBQTJiTZ1Qx4Gzc1FcvHgJq9esle9ciYAA0KoJiulTBwkGCaPPho24cfMmRJCCENOmePf+HQaIIUZaBonmcfr2HyDDs72aNFaK1/r86aef0K5ta4wZNwF7/vhThpvT3NnkqdPQtXMnKU62tmng1cQTImBDphEBIhABItiyZZtWWRFPunfrKufh5i9cJF8EPnb8BHr27ovSpUuJyEmXiMn5nAkwAXMmYEj8R0yRFYaUbay8IhRb1aNXH5V430ZGgFGknniPRiXCorWqoKi8zVu2aV37EBSkEu8Zqege5avfyFMlvqjlsXj/SaYV7yyp6tRtoLLLk19eL1mmnGrrtu1a5WieRIzKo+i+zl27yUg3qoPKEgIjy1Ki8vSpY/mKVSqK3qMylCjC8+f9VA09vWTZeQsUUnl6NVPFFAFHUXOjxoxVlShdVpZVqkx51YSJk2REntIPajNF4RUq4izTeNRrqBJh9PI4uqg8ykv9qlajpkzn6FRcshUvOivF8icTYAJmQiAm7bAgDnEV5gcPHsDe3j6u2RM0H3kRNESWRvzFn+3bPIm+DaAXVoPFT/p06aLNQt7Sp8+fkC5t2mjT0A16qZS8kUN/79NKR1GEtBCqoXUI0UDSpEm1yqa2iRE6OcSodSOGE4o81NUeis57J16s1ZUmqipo+C516lQgb5CNCTAB8yMQk3Yk6iWJNB+3paUlChVy0Lyk9zHNGdGPLqOQcvrRZTKsfOdu1KrlHikZDSnqGlakDPrUEVGUlHyRKtTjQkyCQwEmMaWJqpq0aW2juszXmAATYAKSgNkIkyk8b1ohonbtmmjXpo0pNIfbwASYABMwSQIsTAn4WDb5rEvA2rgqJsAEmMCPSSBRR+X9mI+EW80EmAATMG8CLEzm/fy590yACTABkyPAwmRyj4QbxASYABMwbwIsTOb9/Ln3TIAJMAGTI8DCZHKPhBvEBJgAEzBvAgYJE62rZsD7ueZNnnvPBJgAEzBDAqQZpB26zCBhokVNaaUBNibABJgAE2AC+hAgzSDt0GUGCRMt+qlr2whdFfM9JsAEmAATMD8CpBmkHbrMIGFKkyaN3JbhvVgvjY0JMAEmwASYgC4CpBW0XRBphy4zaBFXKpgW8gwUG9KRa0ZbL9BabTGNH+pqEN9jAkyACTCBxEOA5pRo+I48JRKlTJkygdbZ1GUGC5NSuNi+QO5DRBVzQIRChT+ZABNgAuZNgBwVclxo+C4mT0khZTRhUgrkTybABJgAE2AChhAwaI7JkIo5LxNgAkyACTCBqAiwMEVFha8xASbABJjAdyPAwvTd0HPFTIAJMAEmEBWB/wHcTmigFTcdQwAAAABJRU5ErkJggg==;" parent="1" vertex="1">
                    <mxGeometry x="381.0049928501676" y="105.0005776541575" width="422" height="229" as="geometry"/>
                </mxCell>
                <mxCell id="24" value="Descripcion" style="html=1;shadow=0;dashed=0;shape=mxgraph.bootstrap.rrect;rSize=5;fillColor=none;strokeColor=#999999;align=left;spacing=15;fontSize=14;fontColor=#6C767D;" parent="1" vertex="1">
                    <mxGeometry x="67" y="166" width="160" height="83" as="geometry"/>
                </mxCell>
                <mxCell id="38" style="edgeStyle=none;html=1;exitX=0.5;exitY=1;exitDx=0;exitDy=0;fontColor=#FFFFFF;" parent="1" source="27" edge="1">
                    <mxGeometry relative="1" as="geometry">
                        <mxPoint x="-572.552250788762" y="182.35108595628003" as="targetPoint"/>
                    </mxGeometry>
                </mxCell>
                <mxCell id="40" style="edgeStyle=none;html=1;exitX=0.5;exitY=1;exitDx=0;exitDy=0;fontColor=#FFFFFF;strokeColor=#000000;entryX=0.5;entryY=0;entryDx=0;entryDy=0;" parent="1" source="27" target="34" edge="1">
                    <mxGeometry relative="1" as="geometry">
                        <mxPoint x="-536.7111841837565" y="178.0697898864746" as="targetPoint"/>
                    </mxGeometry>
                </mxCell>
                <mxCell id="42" style="edgeStyle=none;html=1;exitX=0.5;exitY=1;exitDx=0;exitDy=0;fontColor=#FFFFFF;strokeColor=#000000;" parent="1" source="27" edge="1">
                    <mxGeometry relative="1" as="geometry">
                        <mxPoint x="-262" y="243" as="targetPoint"/>
                    </mxGeometry>
                </mxCell>
                <mxCell id="27" value="APP" style="rounded=1;whiteSpace=wrap;html=1;fillColor=#1ba1e2;fontColor=#ffffff;strokeColor=#006EAF;" parent="1" vertex="1">
                    <mxGeometry x="-473" y="71" width="120" height="60" as="geometry"/>
                </mxCell>
                <mxCell id="39" style="edgeStyle=none;html=1;exitX=0.5;exitY=1;exitDx=0;exitDy=0;entryX=0.5;entryY=0;entryDx=0;entryDy=0;fontColor=#FFFFFF;" parent="1" source="34" target="35" edge="1">
                    <mxGeometry relative="1" as="geometry"/>
                </mxCell>
                <mxCell id="41" style="edgeStyle=none;html=1;exitX=0.5;exitY=1;exitDx=0;exitDy=0;fontColor=#FFFFFF;strokeColor=#000000;" parent="1" source="34" target="35" edge="1">
                    <mxGeometry relative="1" as="geometry"/>
                </mxCell>
                <mxCell id="34" value="Navbar" style="rounded=1;whiteSpace=wrap;html=1;" parent="1" vertex="1">
                    <mxGeometry x="-635" y="186" width="120" height="60" as="geometry"/>
                </mxCell>
                <mxCell id="35" value="Contador" style="rounded=1;whiteSpace=wrap;html=1;fillColor=#6d8764;fontColor=#ffffff;strokeColor=#3A5431;" parent="1" vertex="1">
                    <mxGeometry x="-635" y="293" width="120" height="60" as="geometry"/>
                </mxCell>
                <mxCell id="43" style="edgeStyle=none;html=1;exitX=0.5;exitY=1;exitDx=0;exitDy=0;entryX=0.411;entryY=0.005;entryDx=0;entryDy=0;entryPerimeter=0;fontColor=#FFFFFF;strokeColor=#000000;" parent="1" target="37" edge="1">
                    <mxGeometry relative="1" as="geometry">
                        <mxPoint x="-262.0000000000002" y="244" as="sourcePoint"/>
                    </mxGeometry>
                </mxCell>
                <mxCell id="48" style="edgeStyle=none;html=1;exitX=0.5;exitY=1;exitDx=0;exitDy=0;entryX=0.5;entryY=0;entryDx=0;entryDy=0;fontColor=#FFFFFF;strokeColor=#000000;" parent="1" target="44" edge="1">
                    <mxGeometry relative="1" as="geometry">
                        <mxPoint x="-262.0000000000002" y="244" as="sourcePoint"/>
                    </mxGeometry>
                </mxCell>
                <mxCell id="37" value="&lt;font color=&quot;#ffffff&quot;&gt;Formulario&lt;/font&gt;" style="rounded=1;whiteSpace=wrap;html=1;fillColor=#fa6800;fontColor=#000000;strokeColor=#C73500;" parent="1" vertex="1">
                    <mxGeometry x="-418" y="308" width="120" height="60" as="geometry"/>
                </mxCell>
                <mxCell id="49" style="edgeStyle=none;html=1;exitX=0.5;exitY=1;exitDx=0;exitDy=0;entryX=0.5;entryY=0;entryDx=0;entryDy=0;fontColor=#FFFFFF;strokeColor=#000000;" parent="1" source="44" edge="1">
                    <mxGeometry relative="1" as="geometry">
                        <mxPoint x="-285" y="433" as="targetPoint"/>
                    </mxGeometry>
                </mxCell>
                <mxCell id="50" style="edgeStyle=none;html=1;exitX=0.5;exitY=1;exitDx=0;exitDy=0;entryX=0.5;entryY=0;entryDx=0;entryDy=0;fontColor=#FFFFFF;strokeColor=#000000;" parent="1" source="44" edge="1">
                    <mxGeometry relative="1" as="geometry">
                        <mxPoint x="-154" y="433" as="targetPoint"/>
                    </mxGeometry>
                </mxCell>
                <mxCell id="51" style="edgeStyle=none;html=1;exitX=0.5;exitY=1;exitDx=0;exitDy=0;entryX=0.5;entryY=0;entryDx=0;entryDy=0;fontColor=#FFFFFF;strokeColor=#000000;" parent="1" source="44" edge="1">
                    <mxGeometry relative="1" as="geometry">
                        <mxPoint x="-23" y="433" as="targetPoint"/>
                    </mxGeometry>
                </mxCell>
                <mxCell id="44" value="ListaTareas" style="rounded=1;whiteSpace=wrap;html=1;fontColor=#FFFFFF;" parent="1" vertex="1">
                    <mxGeometry x="-214" y="308" width="120" height="60" as="geometry"/>
                </mxCell>
                <mxCell id="52" value="" style="shape=image;verticalLabelPosition=bottom;labelBackgroundColor=#ffffff;verticalAlign=top;aspect=fixed;imageAspect=0;image=data:image/png,iVBORw0KGgoAAAANSUhEUgAAAEcAAABPCAYAAAC549hyAAABQ2lDQ1BJQ0MgUHJvZmlsZQAAKJFjYGASSSwoyGFhYGDIzSspCnJ3UoiIjFJgf8bAySDGwMGgzcCWmFxc4BgQ4ANUwgCjUcG3awyMIPqyLsis3vfuQdMvv15ekWU9QY3pXSemehTAlZJanAyk/wBxanJBUQkDA2MKkK1cXlIAYncA2SJFQEcB2XNA7HQIewOInQRhHwGrCQlyBrJvANkCyRmJQDMYXwDZOklI4ulIbKi9IMDt467gFurjo+DhQsC1ZICS1IoSEO2cX1BZlJmeUaLgCAylVAXPvGQ9HQUjAyMjBgZQmENUf74BDktGMQ6EWCHQj1aeDAxMuQixhAAGhh0fQF5FiKnqMDDwHGdgOBBbkFiUCHcA4zeW4jRjIwibezsDA+u0//8/hzMwsGsyMPy9/v//7+3///9dxsDAfAuo9xsAqPZflUpwRJgAAABWZVhJZk1NACoAAAAIAAGHaQAEAAAAAQAAABoAAAAAAAOShgAHAAAAEgAAAESgAgAEAAAAAQAAAEegAwAEAAAAAQAAAE8AAAAAQVNDSUkAAABTY3JlZW5zaG907ZoqiAAAAdRpVFh0WE1MOmNvbS5hZG9iZS54bXAAAAAAADx4OnhtcG1ldGEgeG1sbnM6eD0iYWRvYmU6bnM6bWV0YS8iIHg6eG1wdGs9IlhNUCBDb3JlIDYuMC4wIj4KICAgPHJkZjpSREYgeG1sbnM6cmRmPSJodHRwOi8vd3d3LnczLm9yZy8xOTk5LzAyLzIyLXJkZi1zeW50YXgtbnMjIj4KICAgICAgPHJkZjpEZXNjcmlwdGlvbiByZGY6YWJvdXQ9IiIKICAgICAgICAgICAgeG1sbnM6ZXhpZj0iaHR0cDovL25zLmFkb2JlLmNvbS9leGlmLzEuMC8iPgogICAgICAgICA8ZXhpZjpQaXhlbFlEaW1lbnNpb24+Nzk8L2V4aWY6UGl4ZWxZRGltZW5zaW9uPgogICAgICAgICA8ZXhpZjpQaXhlbFhEaW1lbnNpb24+NzE8L2V4aWY6UGl4ZWxYRGltZW5zaW9uPgogICAgICAgICA8ZXhpZjpVc2VyQ29tbWVudD5TY3JlZW5zaG90PC9leGlmOlVzZXJDb21tZW50PgogICAgICA8L3JkZjpEZXNjcmlwdGlvbj4KICAgPC9yZGY6UkRGPgo8L3g6eG1wbWV0YT4KmQwYDgAAAx1JREFUeAHtm09rKkEQxMeHgqgHD4bgSbyoB69+/w/g1YMGIXiKogcPKoJC3itDLx0w9WbU6CLVYNZMr9u1P2t2/NMWPv9FUJwl8OfsqAZPBASHGEFwBIcQICk5R3AIAZKScwSHECApOUdwCAGSknMEhxAgKTmHwCmSXHJqt9uF5XIZ1ut12G634XA4hN9+018oFEKpVArVajXU6/Xw8vISKpVKsvZzDyjc4iMLQJnNZmGxWJyrcfex19fX0Gq1roZ0NZyPj4/w9vb26w5JJQxHdTqd0Gw2Ux+a7X8VHLjl/f09OxjuwNp2q9VqoVi86cz9Vgv/HI/HsNlsTlMZ0xk3H+12++QiPxZ7/2I4cMxkMsnqAEKv1wuNRiMbe8Sd1WoVxuPxCZrV73a7FznoIji4xgyHw2wqwSH9fj+Uy2XT89Dtfr8Po9Ho5CgIwRQbDAbJ16CLlnJMJ1uF4Jg8gQEMPEnQZFMaWqE5NZLhwDV+VcJUyotj/MlDE7RZQDO0p0QyHLyOscCF99HXGNNybgtt0GjhtdsY2ybD8auBL8yKPDLnNXrtMZqS4eCVr4UvbGN523qNXnuMzmQ4eEtggVUq7+E1eu0xupPh2CqFg9tqEFPoUft4jV57jJ5kODEHfZZ9BIc8k4IjOIQASck5gkMIkJScIziEAEnJOYJDCJCUnCM4hABJyTmCQwiQlJwjOIQASck5gkMIkJScIziEAEnJOYJDCJCUnHNLOGjnsEDjUN7Da/TaY3QnOwfNiRboqMp7eI1ee4zuZDjo2rRI/WLeHnfPrdfotcdoSIbjv5j3hWOKPWIfr9Frj9GSDAd9vhYojB68vMZ8Pv/WQOm1x2hOhoMGaPT5WqA5ET14eQtomk6nmSxoTm3eToaDamiAtis/VgM0J+YJkDVM2koFrdCcGhd1k6JIXlttMZXgGAMDrXdttUVBhJq0vzj8+Fft/T+i+UrohyH/AYQ0IOknRRGgnmGXi5byZzjxmHMQHEJJcASHECApOUdwCAGSknMEhxAgKTlHcAgBkpJzBIcQICk5R3AIAZKScwSHECCpv5DNSnQLSnIJAAAAAElFTkSuQmCC;" parent="1" vertex="1">
                    <mxGeometry x="741" y="131" width="40.45" height="45" as="geometry"/>
                </mxCell>
                <mxCell id="53" value="" style="shape=image;verticalLabelPosition=bottom;labelBackgroundColor=#ffffff;verticalAlign=top;aspect=fixed;imageAspect=0;image=data:image/png,iVBORw0KGgoAAAANSUhEUgAAAEoAAABcCAYAAADJXyP3AAABQ2lDQ1BJQ0MgUHJvZmlsZQAAKJFjYGASSSwoyGFhYGDIzSspCnJ3UoiIjFJgf8bAySDGwMGgzcCWmFxc4BgQ4ANUwgCjUcG3awyMIPqyLsis3vfuQdMvv15ekWU9QY3pXSemehTAlZJanAyk/wBxanJBUQkDA2MKkK1cXlIAYncA2SJFQEcB2XNA7HQIewOInQRhHwGrCQlyBrJvANkCyRmJQDMYXwDZOklI4ulIbKi9IMDt467gFurjo+DhQsC1ZICS1IoSEO2cX1BZlJmeUaLgCAylVAXPvGQ9HQUjAyMjBgZQmENUf74BDktGMQ6EWCHQj1aeDAxMuQixhAAGhh0fQF5FiKnqMDDwHGdgOBBbkFiUCHcA4zeW4jRjIwibezsDA+u0//8/hzMwsGsyMPy9/v//7+3///9dxsDAfAuo9xsAqPZflUpwRJgAAABWZVhJZk1NACoAAAAIAAGHaQAEAAAAAQAAABoAAAAAAAOShgAHAAAAEgAAAESgAgAEAAAAAQAAAEqgAwAEAAAAAQAAAFwAAAAAQVNDSUkAAABTY3JlZW5zaG90F0xwlgAAAdRpVFh0WE1MOmNvbS5hZG9iZS54bXAAAAAAADx4OnhtcG1ldGEgeG1sbnM6eD0iYWRvYmU6bnM6bWV0YS8iIHg6eG1wdGs9IlhNUCBDb3JlIDYuMC4wIj4KICAgPHJkZjpSREYgeG1sbnM6cmRmPSJodHRwOi8vd3d3LnczLm9yZy8xOTk5LzAyLzIyLXJkZi1zeW50YXgtbnMjIj4KICAgICAgPHJkZjpEZXNjcmlwdGlvbiByZGY6YWJvdXQ9IiIKICAgICAgICAgICAgeG1sbnM6ZXhpZj0iaHR0cDovL25zLmFkb2JlLmNvbS9leGlmLzEuMC8iPgogICAgICAgICA8ZXhpZjpQaXhlbFlEaW1lbnNpb24+OTI8L2V4aWY6UGl4ZWxZRGltZW5zaW9uPgogICAgICAgICA8ZXhpZjpQaXhlbFhEaW1lbnNpb24+NzQ8L2V4aWY6UGl4ZWxYRGltZW5zaW9uPgogICAgICAgICA8ZXhpZjpVc2VyQ29tbWVudD5TY3JlZW5zaG90PC9leGlmOlVzZXJDb21tZW50PgogICAgICA8L3JkZjpEZXNjcmlwdGlvbj4KICAgPC9yZGY6UkRGPgo8L3g6eG1wbWV0YT4KZ8tiLgAABBlJREFUeAHtmz1oFEEUx9/e5dSAElBEkKhVLCwuCAoK0cZG0KCVIBHFLiKC2GmhYBELIQgiphPEELCyULSxUlBQEFJYaOUHgojiF8SPXNb7nzmyGW/cNzs3czPJe0XuZu7d7X9++5+P3cwmaT1IIpdAKTdDEhoEBBTTCAJKQDEJMNPEUQKKSYCZJo4SUEwCzDRxlIBiEmCmiaMEFJMAM00cJaCYBJhp4igBxSTATBNHCSgmAWaaOEpAMQkw08RRAopJgJkmjhJQTALMNHGUgGISYKZ1MfNYaS/fp3TrWY0evJih5+9S+vAtpdoM66uFk8r1PrF6RUKb1ia0Y2OJ9m8uU9+apPDv6b6YtGPvAQBduDNNN5/UdMfxWn9ga5lO7+lqKzBrUNce1ujkxG/nzjElDaddOlihowNl06+2zLcazC/em6YT4+FBQkvR5aENGtsRhR0FJ0FIDHF5yN5ZhUBhTNpy/mdw3U130tANn55dajVmFep6GLhdz2a6Rheph1ZotgljUHBTKLObScOhGdqLhjEorJNiDRvtxqCwmIw1bLQbg8KKO9aw0W4MCpclsYaNdmNQMc126gm10W4MSj34Yim39e6BL2iHtpdp/cqEXn1Mafyxn1k4KlA93QmNHanQYP9cR8CtleHr7i+logEFSHdPLaFq7/x7TXDX608pjdy2W3nn9Ya5U5OX2cHPdZCaknbWXeU63B/BsgV5kPDzGKtcR9CgOJC+TpHzboeT4A0UGj3QV6INq+aPMToncCHtHv3lxVFeBvPB/nJjturp/osFA+/If257mECafOvn2tO5o6q9JZoYrlATElCd2dtFY4crLc0UIiQIdQ7q+K7WN/cxrauwQoXkBVRL28xWZmGFDAlynY9RV+7XaGhba1dBAGAhqutK/ywmGx/M/sHshoHb15iUPTbeO+96aFjeJQZgqSvurNBOQ/ICCge58aiWCysLJvs+BEjQ49xRzUYXgRUKJK+gcDATWCFB8g6KCys0SB0BlQcrREgdA5WFBTDNCBUS9DlfRzUhtHrFmDX5Jm2spT5PpYQ115f6a4hhvElj+bEfIbaDren71WXs3Gyit+VB9qAxvjcGhS00sYaNduNmY2NprGGj3RgUdt/GGjbajUHh/2ixho1241ZjH3esYaPdGBQ2u2Mfd2wBzTYb9Y1BARA2u9vMIL4hQys020QhUDgz2OweS0CrjZvQzkKg8EU8EXBun91Zwu+4Dmhsx9MLxpcwasMWyyMe1qAATh4aUu2TUwYweQwtB9JC/7jwYL7QwajtE1AqEU1ZQGnAqNUCSiWiKQsoDRi1WkCpRDRlAaUBo1YLKJWIpiygNGDUagGlEtGUBZQGjFotoFQimrKA0oBRqwWUSkRTFlAaMGq1gFKJaMp/AEvHe+BL61UhAAAAAElFTkSuQmCC;" parent="1" vertex="1">
                    <mxGeometry x="745" y="190.09999999999997" width="38.44" height="47.79" as="geometry"/>
                </mxCell>
                <mxCell id="54" value="" style="shape=image;verticalLabelPosition=bottom;labelBackgroundColor=#ffffff;verticalAlign=top;aspect=fixed;imageAspect=0;image=data:image/png,iVBORw0KGgoAAAANSUhEUgAAAEcAAABPCAYAAAC549hyAAABQ2lDQ1BJQ0MgUHJvZmlsZQAAKJFjYGASSSwoyGFhYGDIzSspCnJ3UoiIjFJgf8bAySDGwMGgzcCWmFxc4BgQ4ANUwgCjUcG3awyMIPqyLsis3vfuQdMvv15ekWU9QY3pXSemehTAlZJanAyk/wBxanJBUQkDA2MKkK1cXlIAYncA2SJFQEcB2XNA7HQIewOInQRhHwGrCQlyBrJvANkCyRmJQDMYXwDZOklI4ulIbKi9IMDt467gFurjo+DhQsC1ZICS1IoSEO2cX1BZlJmeUaLgCAylVAXPvGQ9HQUjAyMjBgZQmENUf74BDktGMQ6EWCHQj1aeDAxMuQixhAAGhh0fQF5FiKnqMDDwHGdgOBBbkFiUCHcA4zeW4jRjIwibezsDA+u0//8/hzMwsGsyMPy9/v//7+3///9dxsDAfAuo9xsAqPZflUpwRJgAAABWZVhJZk1NACoAAAAIAAGHaQAEAAAAAQAAABoAAAAAAAOShgAHAAAAEgAAAESgAgAEAAAAAQAAAEegAwAEAAAAAQAAAE8AAAAAQVNDSUkAAABTY3JlZW5zaG907ZoqiAAAAdRpVFh0WE1MOmNvbS5hZG9iZS54bXAAAAAAADx4OnhtcG1ldGEgeG1sbnM6eD0iYWRvYmU6bnM6bWV0YS8iIHg6eG1wdGs9IlhNUCBDb3JlIDYuMC4wIj4KICAgPHJkZjpSREYgeG1sbnM6cmRmPSJodHRwOi8vd3d3LnczLm9yZy8xOTk5LzAyLzIyLXJkZi1zeW50YXgtbnMjIj4KICAgICAgPHJkZjpEZXNjcmlwdGlvbiByZGY6YWJvdXQ9IiIKICAgICAgICAgICAgeG1sbnM6ZXhpZj0iaHR0cDovL25zLmFkb2JlLmNvbS9leGlmLzEuMC8iPgogICAgICAgICA8ZXhpZjpQaXhlbFlEaW1lbnNpb24+Nzk8L2V4aWY6UGl4ZWxZRGltZW5zaW9uPgogICAgICAgICA8ZXhpZjpQaXhlbFhEaW1lbnNpb24+NzE8L2V4aWY6UGl4ZWxYRGltZW5zaW9uPgogICAgICAgICA8ZXhpZjpVc2VyQ29tbWVudD5TY3JlZW5zaG90PC9leGlmOlVzZXJDb21tZW50PgogICAgICA8L3JkZjpEZXNjcmlwdGlvbj4KICAgPC9yZGY6UkRGPgo8L3g6eG1wbWV0YT4KmQwYDgAAAx1JREFUeAHtm09rKkEQxMeHgqgHD4bgSbyoB69+/w/g1YMGIXiKogcPKoJC3itDLx0w9WbU6CLVYNZMr9u1P2t2/NMWPv9FUJwl8OfsqAZPBASHGEFwBIcQICk5R3AIAZKScwSHECApOUdwCAGSknMEhxAgKTmHwCmSXHJqt9uF5XIZ1ut12G634XA4hN9+018oFEKpVArVajXU6/Xw8vISKpVKsvZzDyjc4iMLQJnNZmGxWJyrcfex19fX0Gq1roZ0NZyPj4/w9vb26w5JJQxHdTqd0Gw2Ux+a7X8VHLjl/f09OxjuwNp2q9VqoVi86cz9Vgv/HI/HsNlsTlMZ0xk3H+12++QiPxZ7/2I4cMxkMsnqAEKv1wuNRiMbe8Sd1WoVxuPxCZrV73a7FznoIji4xgyHw2wqwSH9fj+Uy2XT89Dtfr8Po9Ho5CgIwRQbDAbJ16CLlnJMJ1uF4Jg8gQEMPEnQZFMaWqE5NZLhwDV+VcJUyotj/MlDE7RZQDO0p0QyHLyOscCF99HXGNNybgtt0GjhtdsY2ybD8auBL8yKPDLnNXrtMZqS4eCVr4UvbGN523qNXnuMzmQ4eEtggVUq7+E1eu0xupPh2CqFg9tqEFPoUft4jV57jJ5kODEHfZZ9BIc8k4IjOIQASck5gkMIkJScIziEAEnJOYJDCJCUnCM4hABJyTmCQwiQlJwjOIQASck5gkMIkJScIziEAEnJOYJDCJCUnHNLOGjnsEDjUN7Da/TaY3QnOwfNiRboqMp7eI1ee4zuZDjo2rRI/WLeHnfPrdfotcdoSIbjv5j3hWOKPWIfr9Frj9GSDAd9vhYojB68vMZ8Pv/WQOm1x2hOhoMGaPT5WqA5ET14eQtomk6nmSxoTm3eToaDamiAtis/VgM0J+YJkDVM2koFrdCcGhd1k6JIXlttMZXgGAMDrXdttUVBhJq0vzj8+Fft/T+i+UrohyH/AYQ0IOknRRGgnmGXi5byZzjxmHMQHEJJcASHECApOUdwCAGSknMEhxAgKTlHcAgBkpJzBIcQICk5R3AIAZKScwSHECCpv5DNSnQLSnIJAAAAAElFTkSuQmCC;" parent="1" vertex="1">
                    <mxGeometry x="745" y="263" width="40.45" height="45" as="geometry"/>
                </mxCell>
                <mxCell id="57" value="" style="ellipse;whiteSpace=wrap;html=1;aspect=fixed;" vertex="1" parent="1">
                    <mxGeometry x="-543" y="80.05000000000003" width="41.9" height="41.9" as="geometry"/>
                </mxCell>
                <mxCell id="60" value="" style="shape=image;verticalLabelPosition=bottom;labelBackgroundColor=#ffffff;verticalAlign=top;aspect=fixed;imageAspect=0;image=data:image/png,iVBORw0KGgoAAAANSUhEUgAAAckAAABmCAYAAACgAmr+AAABQ2lDQ1BJQ0MgUHJvZmlsZQAAKJFjYGASSSwoyGFhYGDIzSspCnJ3UoiIjFJgf8bAySDGwMGgzcCWmFxc4BgQ4ANUwgCjUcG3awyMIPqyLsis3vfuQdMvv15ekWU9QY3pXSemehTAlZJanAyk/wBxanJBUQkDA2MKkK1cXlIAYncA2SJFQEcB2XNA7HQIewOInQRhHwGrCQlyBrJvANkCyRmJQDMYXwDZOklI4ulIbKi9IMDt467gFurjo+DhQsC1ZICS1IoSEO2cX1BZlJmeUaLgCAylVAXPvGQ9HQUjAyMjBgZQmENUf74BDktGMQ6EWCHQj1aeDAxMuQixhAAGhh0fQF5FiKnqMDDwHGdgOBBbkFiUCHcA4zeW4jRjIwibezsDA+u0//8/hzMwsGsyMPy9/v//7+3///9dxsDAfAuo9xsAqPZflUpwRJgAAABWZVhJZk1NACoAAAAIAAGHaQAEAAAAAQAAABoAAAAAAAOShgAHAAAAEgAAAESgAgAEAAAAAQAAAcmgAwAEAAAAAQAAAGYAAAAAQVNDSUkAAABTY3JlZW5zaG909RaomgAAAdZpVFh0WE1MOmNvbS5hZG9iZS54bXAAAAAAADx4OnhtcG1ldGEgeG1sbnM6eD0iYWRvYmU6bnM6bWV0YS8iIHg6eG1wdGs9IlhNUCBDb3JlIDYuMC4wIj4KICAgPHJkZjpSREYgeG1sbnM6cmRmPSJodHRwOi8vd3d3LnczLm9yZy8xOTk5LzAyLzIyLXJkZi1zeW50YXgtbnMjIj4KICAgICAgPHJkZjpEZXNjcmlwdGlvbiByZGY6YWJvdXQ9IiIKICAgICAgICAgICAgeG1sbnM6ZXhpZj0iaHR0cDovL25zLmFkb2JlLmNvbS9leGlmLzEuMC8iPgogICAgICAgICA8ZXhpZjpQaXhlbFlEaW1lbnNpb24+MTAyPC9leGlmOlBpeGVsWURpbWVuc2lvbj4KICAgICAgICAgPGV4aWY6UGl4ZWxYRGltZW5zaW9uPjQ1NzwvZXhpZjpQaXhlbFhEaW1lbnNpb24+CiAgICAgICAgIDxleGlmOlVzZXJDb21tZW50PlNjcmVlbnNob3Q8L2V4aWY6VXNlckNvbW1lbnQ+CiAgICAgIDwvcmRmOkRlc2NyaXB0aW9uPgogICA8L3JkZjpSREY+CjwveDp4bXBtZXRhPgpZYty4AAA+OUlEQVR4Ae1dB3xU1dKflN30HkLvxdAFEVARe++C2FCfDRR7xy7I+xB9+hR77x0F67OhKFZURHpvIUBI79lsdvPNf+6em7ubDWSTDSTrmd9v9557+v3fMmfmzDkT1rVbj1rSpBHQCGgENAIaAY1APQTC68XoCI2ARkAjoBHQCGgEBAHNJPWDoBHQCGgENAIagQYQ0EyyAWB0tEZAI6AR0AhoBDST1M+ARkAjoBHQCGgEGkBAM8kGgNHRGgGNgEZAI6AR0ExSPwMaAY2ARkAjoBFoAIHIBuL3SXRMRhdKzhxOtW4XFa1aTFX5O/ZJP3SjGgGNgEZAI6ARAAJhrWWdZI/TL6f2B5/odVeyv3mPtn31tlecPtEIaAQ0AhoBjcDeQqBVqFtTB42uY5C1dXsbdD56AiX2Gri3sNDtaAQ0AhoBjYBGwAuBVqFu7Xj4GUanmEEueeAKioxLpEHXPiRxHQ8/k0o2rvDqdP/+/alDh44S9/33C8jtdnul6xONgEZAI6AR0AgEA4FWwSTjOveSa6nM3U6Owl3U4dBTzWtL6NnfDKvAfdOmU/fu3eX0lJNPotzcXJWkjxoBjYBGQCOgEQgaAkFhkkccczwNO2DEHju1dcsmmvP2m975wsIoLMLoRlVuNsVkdKYOY04y84Tb7GZYBzQCGgGNgEZAI7A3EQjKnOTC7+ZTaUnxbvtdXe2kLz79pF4eG6tWFbkcFdTvotvFurV0y2qJDguPYCYaobLIsayslFwul/ycNTVeafpEI6AR0AhoBDQCwUIgKJJkTY2TPv94Hp098aIG+/X9/C+prLSkXnqtZT4xZeAoioiKoS0fvUBJmQfU5bUY8yDy0ksuqUvTIY2ARkAjoBHQCLQQAkGRJNG37G1Z9PfiP/12E2rWZX8v8ZtWU1FqxoNBQuW686fPKDImTuKxZtLKSM3MOqAR0AhoBDQCGoEWRiBoTBL9XLjgm3pq14bUrNbrcjsd5unaV2dKOLpdJzm6qirMNBXo2LEjZWZmyi88PKiXoJrQR42ARkAjoBHQCFBQOQwYItSuVvr+26/8qlmteYrXLTVPo9t1pnYjjmRJMl7iilb9YaapwKOPzaZXXn1NfmlpaSpaHzUCGgGNgEZAIxBUBILKJNEzqF2XLflLOilqVk94d73e/u0cMxmGO70mXGOeb//uAzOsAxoBjYBGQCOgEdibCASdSaLzkB4LCvL9WrP6u7iyrWtpw9v/FatWlV7rqqE1L8+gyl3ZKqruaDHkqbWE6zLokEZAI6AR0AhoBJqPQIvt3Wrj9Y1OZ3XAPcTGAm5e1lGZszXgsrqARkAjoBHQCGgEgolAUJaA+OtQUxgk6inP3uivOh2nEdAIaAQ0AhqBvY5Ai6hb9/pV6AY1AhoBjYBGQCPQAghoJtkCoOoqNQIaAY2ARiA0ENBMMjTuo74KjYBGQCOgEWgBBDSTbAFQdZUaAY2ARkAjEBoIaCYZGvdRX4VGQCOgEdAItAACmkm2AKi6So2ARkAjoBEIDQQ0kwyN+6ivQiOgEdAIaARaAAHNJFsAVF2lRkAjoBHQCIQGAppJhsZ91FehEdAIaAQ0Ai2AQIvtuNMCfW3TVXY/9VJKGXCg1zVs/uh5Klrl3wenV8Z9dBLXpQ/1nXiztL55Hvd1devoa1hYBPXuchQN7nsOJSd0J0d1Mb31vzMDQik1sReNO/p1s0xVdRG9/ulJ5rkOaAQ0AhoBIKCZ5F56DrAnbVRqe6/WopIzvM6bctJu5NHU9bjzpejKp++gqrwdTanGbxlbfKLZ56iUdn7z7IvIYftdSGMPuJ3ctS4qLt1KLlfgewRX11RQbuEq6X63jodQdFTyvrgU3aZGQCPQyhHQTHIv3aCtn75CUekdKb5rX+ow5uSgtRqVlE62BOMDHxEVE7R6W3NFmb1Ok+499e4wqnFVNamrZRU7ad53l0nZyeN/JbstoUn16EIaAY1AaCMQkkwywh5NiX2HUFzn3uxRxEmlm1dR6cYV9e5kfLd+lNBzALvocnP6cq/N1WM79hDm48jfSSmDRlPFjs1UummlOIQOi7RT7u/fkKuqgsIjbZTQa6DUXZmTRRFR0Zz/IHIU7qLC5b+R2+mQtLKsdYSfq7K8UUwyLCKSEnsPIvSxpqKU+7eSKnZuMa8htlNPssUnUXRGFzMO1xIZl2i0x+7H0D9QWHgEJfUbSjHtu1FkbILUl/fX9+QsKZR08y8sjJL3G0ZxzMhLNiw3o30Dja6PC3bs2JEyM/tLFcuWLaW8vDzf6hp1Hm1PovZpgyVvWlJfqqmppM4ZI+S8xuWg7F2/m/VERsZQz06HU0piT3K7nbQz72/Kzv2TalnybCrZImOpd9djKCWhBxWXZdHGbfOpitW8vpQU3426dhhNcTEZtCN3MW3d+bNvFn2uEdAItCEEQo5J4iPf98LbKNwW5XUbMJ+25qUZEhcRHUuZl98nUp01U/G6v2ntK//HjK2a+px3gzAV/rIylwmTbM7yErJ5mFDGyKNo6cPXUXR6J8q87F5JBxOL7dDdrNJZVkzLHr6WUC4QAgPsP2maMDRruaLVi2ntq/9HtS4X9+8misnobE0mzHsqWvvKTCpcuUhOR8x4W5i5SsOx20kXUd7iBbThncckOiw8nAZc9UAdJseQF1O2lm1MfSr/xIkX0Ljx4+X0mWeepldeflklBXTs0WksHX/Iw3Vlwm10xpEvyTnUrrPfMhhxQlwnuvT0BXX5PCEwtve+OofKK3Prpe0p4vQjXiC0byVrmyr+iBH30ND9JqpTOeYVraV3v5xATlbvatIIaATaHgIhZd0aGRtP/S6+s45BMoNzlhbJXVESFk56TbimjhmACeLHlNR3KDMaQwUnEfxX63aZ0iAYZHVxviRBKoO0ZyVhkJ66EA9Jr9vJ/7Jm2WMYzKr/5Okmg6wuyhNpGAWTM4dT1+ONj3DVrixhvpCUFUFyBEPGD9KnonDuJ/JBkgWjdTkqJSl9+OGU0D1Twu0OPLoOE8TwdVgZvmTy/DWmPmv+YITXZ31Nr316gvxcLB1WO8vN89c+Od6riYLi9fTVL1PppY+OFMa4efsPlBTflY4ZPdMrX2NOumSMFAYJ5gom++yc0fTRgkm0heu00uA+ZwuDrHIU0Xe/T6MP5l8okmR6cj86auQ0a1Yd1ghoBNoQAt5f+TbUcX9d7Xz0OaJaRBokx/VvPiwMwZ6UxgzmACkCKTKV1acgJemFscp0yM2Ps6o0hjLYEGbz3GckHX8Fy35lY5jt1PnoCcJolj5yHY2Y9oakgwlaCYxo6UNXMZO205CbHhcJFKpXene2Ndtuw+0OPIoiY+Ilz/YFH1LW54YF5gH3vSaMs/3BJ9DWz16lta/NkjxdjjmHOh9ztoRXPXu3l8pYNbTujYeocMVvFM5qaHtiCkW360L9LpoqyVBLl25ZTe0PqmM0yF+yfikNvuFRAna+1Jj6VJnS0lI2rDHUnJUVBnNWaYEcMfdYULxBitS6a5iH15jn1npKy7cz8zzRjCop20af/3g9TZmwmNW1g8z4xgYgmYKgzt3O6lPQpuwF8pMTz9+YYYYV8IffXky7CgzV/vs559NV5yylfj1Opi9+vsWaXYc1AhqBNoJASDHJuC69TdjBXJTEBOlv129fSRpUmYoKVywyVaFQtQrzZNVqNBvYKHKWFlJ1SYGcoj7MKSpSzEydl7Ok5ig01HlgrNHtOsscpUpvzBHzgYrShx1GqQNHYVJRGDjioUbGPKhVglT5GzpigNDn/JvMAYQ1n7K4tSWmSnSti5nPUmMeDccOh55izS7hxtSnCkHFit/eJKhGDxpyPS8P6UqRPJeoyBYRuGHTuqwv6djaB6hf9xO5vm60eftCWrVpLhWWbFbVUjgvSYniOVPQhGPfMeMRiGC1MCg+tj2VVeRIWP9pBDQCbQeBkGKStgSPZMeqwoqcrX7vAiQpRRU7NqkgVe7YQuSRMO3J7cx41jvWhS2qVESGRUTI/KDKUJW7XQWFWYJJgmBI5KquMtN2F7Cztaoif1Ic0sDQHAWN++B2OPRUgnSqCEywhhm9koLD2QgJBIMjkHX+1B+Gja1PKtsHf+nJ+xHmEGtr3VRYupmNdubzfGAlDel7rgw2Au0SDIQ++OZCOnT4VJFEM1IH0chBV7Ik+R2rXSdLdTHRxgADeVdt+shvE+iDJo2ARqDtIRBSTNJRsIui01gKZGkwkS1O/VloVuXtNO8SrEFzfv6fnMf3yDTjq3KzzXAgAaskG9O+q1GUGauVQbotzNKeUscQVTuOfKxzHCan27/7gMqz1qsk86jmRc0IFWCJ05c6HTnOjIJRUuHK39nSdX/T2EglgnHaWUq1J9QNIuK79lPJ5rGx9akCSUlJYuGK86ysLCovr5PEVZ5gHo8e/W+p7ktWb67e/ImEIcUN7WesJfXXlpvnncP8YKfybtu1iN7+4kyWSmNocJ8JdMjQG6ln5yMoI2UA7SpcKcZAYMoudzXNX3SPKqaPGgGNQAggUP+r2oYvyrrMo+e4KcIoYQgDNWr30y6TK6vEMgqPRIgdcLDMIrn/AZIXGSBpKZVpoFBg2Uja0DGUMepYcy6vprLMqxosDVGUvv9Yw0LVYz2L+BLLUpXEPkOofPsmKlj+q8yx2pPTZDkK+qjIWV6sgrI8BfOhyhpXEizSb+nm1ZLW/qATzDIq4FCbEHBfup5wAS+f6UVp+49RyXXHRtanCkyaNJleefU1+Z01YYKKbrFjbLQxhwrGpmhArzNU0O8xJ3+pqExTEnv4SQ8z4yAp/rX6VWa+n0pcl/asCvdQacUOUblmpBrLgVQ8jmCumjQCGoG2iUBISZIwdOl4+Bkyf4d5xf5XzDDvCiw7QZjL27HwY+o49jSZ3+s/+X4zDwJZX77ldR7QCTMYzP1ZKeeXL62nwoCh0oSlrD05nQ2GnpD08m0baPnsm2U+EKpUzBVi44H9pz4jjFtZ0vqqWYXxeVqAUQ9+ICU1lm5aQamDD5a4YXc+L2tC/W06sH3BXNrPs96z0xFnEn7+qLH1+Su7N+KwJjIxrjOdedSrtHjVS2LVOmLA5btteuXGudSLt7k79/i5zAA/4g0KHPTzkkfkOHLQZJZCL6CVGz+UHXoyUgdQ/16nS31bd/5k1vvNr3dym6/Q2ce9J+3mFa6mZF6nmdnjFFbY15KvBa5ZUAc0AhqBVo1ASEmSWD+4jK1PK33nI1n6wUYAimAdunOhoYpTcZAus79+l3YwswDVeiQmOXjCZl5PQOVR8bCoxZIRRSUbllH2N96GHEhb88I0Y06xgXqXz76FitcuUdWYS01QdzFbnVqpgiXNbczYZeMAP/VtfP9JUupjGP2AQXrvwWrMuSJOqZ6lfq4r78/vzKbUtTa2PlXQzWpIkyzTu2ZcEwOqP77Foe6EJSoW/R89agYdOHAyrdv6BWFpRkOEjQHWZ33FEl80z12eR8MzL2bVs2FhXFKWTZhzRD0njnmURgyYRBVVebTgj/sJayAVYdOAzxZex/e/RvKeMOa/bDx0LSWxsU/Wzl9UNn3UCGgE2hgCYV279Qjip6v1XD2YAVSGrmoHM80sc62jtYfYOUasXflDXrFjs0hZ1vTGhLGWcPCNj0rW7PlzmNG+I7vkwLoVS0yaQzAMQv0RMXGE9ZKQIrE7UFMIe69GpXUgSKxqJx5/9WCJTBxbAJfxjj27s6BtbH3+2tgbcZER0bJDT07+siZvXWftJ1SxCbGdZHmHv512rHnjYzsQNlAvq8wRK9jm7PRjrVeHNQIagb2PQMgyyb0FpS+T3Pblm3urad2ORkAjoBHQCLQwAiGlbm1hrHT1GgGNgEZAI/APQyCkDHf2xb2rLsmnHT98JE0XrarbZHtf9EW3qRHQCGgENALBRUCrW4OLp65NI6AR0AhoBEIIAa1uDaGbqS9FI6AR0AhoBIKLgGaSwcVT16YR0AhoBDQCIYSAZpIhdDP1pWgENAIaAY1AcBHQTDK4eOraNAIaAY2ARiCEENBMMoRupr4UjYBGQCOgEQguAnoJSHDxDGpt2DGo28kXS53bvnhTnCMHtYEGKms34ihKP+BwTq2lNS/ev9uddxqoQkdrBDQCGoGQQCDkmWSf827ibeL6UlX+Tlr9/H1t6qZFpWSIlxJ0Gr4pS7ewF4+9QIm9B5rthrGDZ+JN4dsKRe0/iOIvGE/Vy1dT6cvvUFhkJKXOuotqq51UcPu/zcuI6JBBkZ3am+fWgLuikpyr67sos+bR4dBFIP3R+6kmewcVPfSU34tEevXqdVTyzGt+01syMrJbZ0q583qq+Hw+lX/0RdCbCouOJvuAvma9tQ4nY7Gd3EUlZlxbCITFxlDq/bdRbVk5Fdz7kHQ56fpJFNm1ExU/9jzVbM1u9GWEPJMEg4RHjcjYhEaDojO2XQQimPHZevcgYhdpQswk5dznkuLPOZ1iDje8o/gkUS0zyZzzrvSNbtR50tWXUNQBQyl38i3MmKsbVUZnal0IRHbvQmFxsQ12KrIH+4pVz1eDuVomIZz7FdG+HX/sDYfuwW4F70rKPd6ejNCGu7iUih5+iqqXrgp2k02qLyIjndJm3U2V8xdS6Rtz6tURFhVlvPfs9EJR1LDBFJ6UQOEpyUSaSSpY2vaxdOsa2vLxi3IR8CiytwjeQMqzN0pzbt4gPpSp6tc/qXrFGq9LdBc3fdQc2aUTv4RJRBEeJu1Vsz4JBQRKX32PXDtzQuFSGrwGV14Blb/3ETPkDIo+dBSBKaXeezPtuuQGZphNfz8abDDAhLDoKHnPIjp3CLBk4NlDTpK0J7Fj4oEjBYn8JQt3iwj8NSb07E9h4ZFUto3VJxuWw0dWvTIxGaziGHSQxMO7R/Gav8jlqKyXz5aYQkl9hlJMh67kLC2iolV/UJVyZuzJndR3qDg+hkcPeAmB4+fo9E7sbHk5law3GCF8YUL6BVXu2iZH3/bQFjZXB5VuWsW+J/tQAjuQLtuyxsvNlmTw/MW07ybOpe0p6eRg9XP+0p/JVVluZonv1o/gBQSk2q21uroyc7IjYZbMk/rxtWZ0pQp2ZA3XXlbvIvASAhUxCG7KcN2xPMcK7OBhxJc6duxImZn9JXrZsqWUl5fnm6VFzqsXL6WKr77fY91QQ0WPGk54KV07d5Fj0V/kZlWOEPsRjRpqOFvGSBUUtf9Aqq00Bhg1Wdnkyi+UePxhJBt1wBCRCNwcX71qLdVsMe4z0iPapVFk547kKiik6NEHkOOv5aL+iznqUCJWG1d8zf21eoNhbzFoD1KAq6CIqv9eQa7cfFRVj9B2zJiRFBYTLW1W/fE3kWW0Xa9AQxF8zfbBmdImRu3ODZtFxV1bWVVXgqWtqCEDCB/cWodDrgXu7By/87Pip3+Q0MKTEqX/EWkpFH0Iv8c82Kj6cZFX/vD4OLKzWh2qs5qt28jB11DrqJPakW7r05OcjCmcrkeNHi5q96qff/eqR3XUtl9vuX81cl/rXNSpdByhvrOxhAlysqrVXertTF0SPH9Q5UcN6S/3uZrV9rgfVhJVP+epXrmWIrvwu87PgquwmKoW/up1HVIG93b4YMEZUwC1zoanPmz9erOqtJ88G5hucG7cYm02oLA7v8B8L0pff5/av/2MPDNRB+5Pld/84FWXrW8vsg/cT76djiX8rFqeZZUR0rl9UCaFJyeRa9t2eVas74TKhyOeUTxbkJbd/Jzgvql3LaIjawVZkgaGoIj0VH72B0m41lnDA97gT0mFFJNMzhxO+118lzAhoNbtpIv8Gp3A9VTmZfeKU2NB1/PnKNxFq565SxwjIyqp3/7U94Lb2AdjtDWbMIM/7jnfK67zUeOpy7HnmW0jsfspl9Dmec95+WnMvPw+KQfGEpPBah121wXqTBPo74euYt+P26Vccv8REq/+Nr73BOX+MV+dUsbIY7i9c+UcUh+MfBQVr/vba/4VDpv7XnCrMGSVB8ee46bQ37Om8HztDone79K7KTLG8KOo8uE6rcwP8WnDxlLvs681+464WlcNrXv9QSpcaexf2/Gw09kB9IlIkvqj0zpKuMsx59DGOU9S7qJv5Fz9TZx4AY0bP15On3nmaXrl5ZdV0j4/ptxzI3+ohnj3gz/2O8ddKnEY1abcd7NXevJt15jn5XM+YZXQB3Iee+zhlDjlX2aaClT98ifPgT0pH7i4cSdR7PFHqiSKP+9MUXcpBmzr35eKH31O0sFQoXYKT2UVkiIe6JW88CZVfFaHMdR0aY/NkI+Kyoajc9NWyr/hHmtUo8IZrz1O4QnezwoYVeH0h03JHMwKuEB9DaZMzFiFLp9IRQ+yn9Nf/vBqK/mGyYSPKbBKmDjOTIs/fxzljL9MzmMOO4iSruUwMw9FYMz5U2eYH2c7M5XkG68g57qNhA+4ooQLz6K8G+818yE++aYrRVJSeaBWNPupIvkYfdAISrrGuN+IxpxW3rV3WnIYwUS+ttiTjvaKB9PIv20G1VYZAwhcW/SYUcIowDgUJVxwFktq15uDFjDm9P9Ol8GUyuPmQVA9YixS+Rm1ewZqKh3MBTgHg5zrNzHj6k8RludM5v34/oI5K8IQEYPOkqfq3t/kqdfIAEnlUcfSl96m8o+/VKdyxDRI/Nmned2DxCsvotwpU8m1I4dwD3EvFOH+mu+e5Z1U6cE4RgajktZSR+9zb6gDlz8UcDKMny/1OfdGk0FCQoPfRFtcIsFQpt/Fd7LjZn5QmVCfMEiuC4wHTo8hbYHpWCl5v2HU5bg6pon63E6HMJxIrtcfKSlQfDaytGbtJ6RPZ3kJhUfa6zFof3WBQaJviuFCaksZOIoKV/wm2cGsIbEqqqks47ptBj72OnzAoOFzMpIHEaouVUYdISH2OYfx8XzwwByBhzDiC2+jxdMvppoK/tBYCAwSeKhr7MpY+TJJS/ZmBTHarvjiW3Ku3yz1YOSNc4wy/VHc+FMo+rCDvZIcvy02X177wExhkG4e6Rc9+ARLdDv5o9CLmdgRZhl8pPOuvkPOk2+ZIh/6/FvvF+aASEiEiuAPtHrJCqm/ZkuWSDwJl57HL/4BUicMMhRVfPmdMMf4CadSmN1GBffMopTbrxOJttiTKem6y4VBguFADWjr3V0YBD7WDlYlq9E6Pj4YdUOqKXnxLaotr6CoEfuLJKPaC+QIabr8oy9ZKvxLPurRYw8i9BNGJb7zufiYot3ip18VSQfMJokZYhVL4/6k2ITzz5QPbdWPv4pkiYEFCNIDyqFM+dz/UdVPiwSzmKPHyjxa7qX8/lsIH1AwCtz/+AmniSSTcOEEKrz/EckFqQiqRDDGwun/YfUIG3mxStEfAV8lIaX9515/WQj9BIOElFn29lyqYYkp4bxxZMvsQ4lXXGgObFRhSF/lH3wmRkBJV/5L7mMsXwvuOyjxknOFQUIqLH7yZbKzxIv77UtxpxwrDNK1K4+KZs6WAUTK3TdQ9MEHUsyRY6jy2x99iwR0Di0KBmagygU/m2WTb5wsDBIDrbI3PyAMihIuOptxOIzv93K+P8aAGcYzYJyV838gd14hP3dDCc98Al8fpjvQb1AUa2rwnGKwVTz7eZa014n0njj5AgqzGd/cEn6Gyt78kDUtHSj59mtloKEMqKClUFRbUWG89zxAU1Q+73PB07V9p4pq1NFouVFZW3cmqE6VFATJaPmjN1Ha/oeytHSlV8ehpoTECarYsZmW/dd4sfpddLuoacG8oO4EowKzAFUX59O6Nx4yJaq4Ln0kXv11O6VuhLn105dp54+finPkhB6scrEwIZVfHde/9TDlLzEeYEitUNGCtnzykvxSB42mvsx49kRwKr189s0i4fUaf5Vkb3/wCcIkoW5qf9DxRhXM7Fc+ezeVbjTUP4h3lqvPLdGKJ4y2ICWmH1DHBKztdz3hQpNBbvmEr3Xhx9T1hInU6Yhxwlg7H3M2bfnoBWsR8ZKy9dNXaNhdL5I9MZVs8Ule6TgpLS3lb5/xkFdaHux6GfcQARWT02p1yHWql8hfUcy1QBqzkrukjMgzwo1olypJUONUr1onYaj38LMSPoggpW6EilWFrfmgqrKqq4SJ8T1Kvu1qHqkPEKtFlR+SoLu0XJiPc80GMZqAWlNUW5wpzG6XDz8+KiIx8P0V5tW7B8WdydLoaccTRuugcFZfgirY0EFZ9qmPsSQE+Jd/y3SvEmVvfUhQB0NNCqYI6dEkvgeF9/+XamtqqJKZqzAnlgZimEFZP7oqf/XfK70kkaqFxmAPTANU9v4nVPbOPAkXP7FJBiVgiPhBelRkDGwMSao4O4favfiIqGhVevy4k406HnuO1cVbjPCTL1HyLcY7pPLhiOuBNLU7imcpB1R430NmffkrZlL7d5+Va1XSv6oDamSoMkFlGZ8SBja2vj2JPEwSAw9M/4Cp4x5XsiQFNbOvwVksM0lQ4X3/oRoPAyhkZpn2wF0Ud8aJTWKSkT26Ueq/bxf1KBgSqPK7n0yGJlMGPMiC1Xj+zdPMwQ6erbRHphEGn4pJFj/xkpRXf3juwHRxHZCkFRNPZMYJKn3xTbOso7CIcq+s+wa6S0oJPwoPk7wYkKh3TyI8f8DL973HwKopFDJMMrpdJ/P68xf/IHOGuxZ9TT3PvML8qCODVS0ZldqBht7yBKeHU2QcFAUGxXbqKUyybPNqSug1kOzJ6TRi+ptUmbOVtn83l/IWL1BZ5RiVaujHIVXt+OFjM6108yoz7Buo2L7JZJBIw5xeUynvzwUsqVVT3h/fUi9WoULKU30Cw1dSX1nWOpNBoq2cX74IuMnYjt3NMjk/fybhHd/PEyaJk7jOdaoXlVENBMDMwSRVf1Q6jlCx4re3CWqh3c1JQoLA6B3qsTSeD3EsXkZV/LFQH6OA+8v3Ju7kYyj2hKPE8IB4hBzmkcrDE+K8qoO0hxExyF1ZKUe8/Ao/WPKC5OPNH1NFmPMDk8R8lyIwZkgWyXwtDpYuqnmeE3FubqMpFNmpg0gDtj49WJUaIx8tLLcBhScmkMvCJF05ecIgVTtoGyozLGfwR5U8N+ePxKqUE+LGnyzXp/IoKQMSvpVJOixzgS6eYwOTBgNXhAESCHO+ihy/ew9+VPwej6zyhCQFSp15l1d2hQsGEEqyRwZIuYogLYKAHQhloD3A3K3cc4nlvvIcui+ThBoeeazPpCxh4mcCbTaFwqJ4AMYSsFJrY/BZ8uzrZlW47yD0EfOVvhTpmTOUPIx5wsTxFDVymKGi53nmMI+6XF0v8qm+VvLgoTVRyDBJq3SijE4wCoNq0br8AypVRVClRniMS1QcjlHMFEGb5j5Hfc69nsA0QTB86X3OdaxaPZeWzGS1j4egugRV5ed4YvZ8qC4p2HOmRuao3JUlOaHKc1VXsYo2hg1wjBfWntzOrKVsqyEJmRFNCCgsoaZW6o2aijKZk4TK1ZZQX0qEz00QGHlbI3x8Cu6aRQkXny2qURtLafFnncKS5BIqnPFowJeTdNXFBPUgPtg1rKbCxyc8NlbUfupjqiqtrXFxPo8KySNlW9WTan4IzNRKyqgERjCKwNwxIIg7+3QxdICxQ8K/zmZJZg6Vf2gMdlTePR3Rz7RH7iOo4fDRr2aVK1SWMLTBB9v3OtweRq/qxTpUEKQRf2RlHtZ0NQcKs39/5FznLem5cnK9s7nrBhJIkHlSDC4sA4ymLttRH3s8L5ULfvJu13NWW+Xwivfqn5oO8EhIav7Zt0wttBw+BLzdVeU+sXxZXCeYXVPIuWa9zKOGJyeSLGtiqRFTCUpVrbQvmCd0LF1ZrwmZ20UsDwDVvCqkcRipubbnEIyl8C5BxS3E2hQwZGhfvLQQRuo+/Q8ZJukoMvTaQDOOLT3z//5RRivqo65QxrybIqgdoRr1JUhcIEiOyx69UZhk+vDDRAWp5i4T2ZJUrGE5n8sBxhRNMSzNYoSkmIdU0sBfY/I0ULRedHz3TDGYCbdhDtMYKdeUG/OClbuyzfxQ6TaXwNxtCckGI+a2wCzBiNU8raNgV5OaSEpKIli4grKysqi8vP5L36SKg1AIqlaolPDBiTn2cGNUzB8NW6/uDVsQeqRD3+ajWcWEj3LuZTeaC7QhVWJuLFBy7TSYgCw5sRQOTzNUxG62KrUSJGb8MGKPPfU4imN1bPx5Z1D5vP+JwZA17+7CkOTAIKt+/I2K/vO0mdVXwlEJioGY5/zhBcHq1R/5U1NLfjZageqvjBm7snb0V76xcRhMRLBBEZgMBi0gq6TZ2HqQz81qQdxXzIFj3qy5BCtlEAyurKTU5tY4qDxhPOZF/PxBylMDJq+0AE6wiUDhzMep/RtPihWurWc3MfZSKs6arO27vV4YYmFdJ1Tfuy6+zmwZxnBexAN8uQ6+HxH8/ELybxwZatfG5W1aLmbfoUEVOzabF9JuxJGyPKL7qZeZcSpQnr1BBYX54aNfsPxXKmAjFxjRwCoTc5CgzkexJRUzPqhGMaeGLdoUJfYerII8z7LFCPOD2ff8mymajV9gpILy2OItYMIHVv1UYYwwfeM8aRmjjhFDJOv8a1WuwRyri3JFykNWLGWBdSmWedjik9ni9Rbpq2rCrB/tKFJteuKsKuSe46cQ5nhFpe3Jj+UeTaFJkybTK6++Jr+zJkxoShUtU8aCBaSEik++oqoffpG2rJaJqnGlvrRn9lVRdUceLcsHmSUK6w4msNhsCtVAUuIPM5g15icVxRxxiARhUGGS5Tog/WE3IhhMoD8w6AmEItKNOVwsYVAE1WlDDAZqTSUFIj/UvqA9zfFJJssfpBuQmoOzJDVJYsLyEVC0BX9ZZmOtOIAwmL4sP2HjKV8KWKLj+4qBAKyWrRJ3zNjRvlWzMUyB3EcYmSmKPniEBDFH3WxiLUYpzzmDEiezTQKTGMZxH2FRC2bsS+p6lcTp9SxyZvug/r5FZJkTImOONJ5flQEDMqX2VXEyL8kntl7dVFSLHUNGkoSEiLWHanedwTc+6hc0qAZ3/fYVZYw6VpjFwKtneVmGWgt1GHsqq1bPE2kJFptYg6nIyiw2znmKhtz0mCSlsLENfoq2ff2OCjbqiDnQAVfMqJcXBjnKKGfNS97pkJYHXvOgV5ns+e+b51s/f02WlSAChjX4Kcr+xsjX/ZSLqcOhp6po8zhi2htm+LdbzyDsIdt+9HEiOaYNHUP4KYJEvf27D9RpmzjGnno8G5IM8+orpIqiWU9IXBwbd8SxxSJUfM7NbI3KL2W0hwlZ57xUBTDuwbq3JLb8q/r+F1n/hrWYsmaNR8sYUUPyS2HLPMx3wogF1o9NIv54VXIbkODSH7ufythSEgxTJDpOK5/3hVkttujCB7zye14byx9V7D4C5oXRu7IuNDPvIeBYuoJVxocSlizgA4Y1kAm8TGN3lMZbucHiE+v48AMDgBVxIFTKVrkYUGCJAKST6r+WyRwe7p99YD9zSU5j68RSE1j4Jk35lzGfyPPDCeee4be4WNhaVJe4h4pZu1iawvpAGKikTruFt0G8myoYeydbL2PuVhng5F19u9+6G4qsYOMxLP9Jf/g+NlSaK5akvss8ULb0zTlibATpDLvPhEVGEJbNSBpbPAeDYHWNeUU8q5gbruF3AYZlsTy/3u75h8VKF5sMRPL6VAzS8OyXPP8GOdcahlRRwwYRDHPALKHB8MdYSx5/UYx+0HdIzE5+lyJ4vTDy59/GWwVym4owyMSzi+cgdfptbOW6iqDGr/j0a5UlaMfIoNXUCipa/eJ0GnTtf0yVI6xcsVEAli1YafPcZ4XxdQRT4BG2dbkDVKyKMLeZwKpMmePzqDExcs/55X9ehjYos+q5e6jfhVPNxfioA4Y8kEL9UUOL9P3l3VMcDInShx9uZgNjLt9mjLoRuXPhJ3KNsEK1XisYv+9yDbOSBgJQry5jy+H+k6aJ2lVlwxrT1c/da6qaaxknk8y5IEucmWgE3NZNCxrO5lOq+acwbrEauPjW6NqVyx/ieDEWUWlgMuVzPzeXBKh4HBFvZ8s9+9AB5nq5Mh5pC5PkdFgdwhAI5u744XnC0o2EiyZw0HPhCi91joo9SZh3tlLJU6+wBSIvX+I5RswdgbAeT6xJPevyEAejjthjDhMTfZyjXSxpKHnudTkN5K/qh1+pgiUBMGOsWwNhbsrFlqXGR9z7BiINTMXsH887Fdzxf/WbtF5v/VQxMsrjNZ0pd98obVvVu16SiqpHHVVdPuf46MIYJXHSRJ5zPkdyQTrG/QM+VsJaPdG0eCIhGStrTAyMwCSxzAVrXZOuvdzrecE8csWXC+qqU1Vb2mBFrZGu0vgMVrxQV2KuN3HKxZIOwx1jzW5dRliRlnWdJ8snVJ/kueJBhTIIqmt8T6H6/ZASGHTxs40lGomXnc/z9A8YS4lYuxJ35omynEPVjOdPMUcwTjyjYHxqUKE0MsZ53XXgHcE6W1gXyzphz1phDKhq/WzeUPTAbEq88l9k540b8BOcW4BJhnXt1qOul+oq2/gRhjZuNmDx3e2m3mUxg4xmC9eotPbkLCmURe++xiUwysHOMZiHq+G1i5jjw5q/hghqTFiAVqM+Vnli/WJLUOejJ5ibCSyffYu0Bcvdsqz1u+2f7ObDxkvABoytOYRrxe5CFds3B8xsm9PuvigLiSCcl4rUbNgclPkwqNAwN4glHb4f5KZcH4xQYAgBBt6Qig2qVexSg31JZTkLf/iaRfz+wAADhhhK/WWtD3OR2HQA2/4V3DlTpFwxWApg30xrfdYwVLuwsITRUs22HV4WoNZ8jQqzHYG9X2/Cjjsyt9ioQrvPhHm1CB6AYUclsTr1GdzsvrR3qlwr5r/XbzY3JPDO4Tnj64Amgfib49zEUlcz2vRbf0OR/BzgucJgzbVjl99djVAUKnkYE2HQtCfC+4H8rtw8eb72lL8l00OSSbYkYK2lbl8maZUcW0sfdT/+2Qj4Msl/Nhr66tsqAuFtteO63xoBjYBGQCOgEWhpBEJqTrKlwWpN9RetXmzOf1Y3U23amq5L9yV0EMDcFHweOtfWWZSHztXpK/mnIKDVrf+UO62vUyOgEdAIaAQCRkCrWwOGTBfQCGgENAIagX8KAppJ/lPutL5OjYBGQCOgEQgYAc0kA4ZMF9AIaAQ0AhqBfwoCmkn+U+60vk6NgEZAI6ARCBgBzSQDhkwX0AhoBDQCGoF/CgL/+CUg/SdNl+2mCpb9TDk/szcETRoBjYBGQCOgEfAg8I9nkol9DG8eLvY72ZJMsvupl1LKAMP7gXr6Nn/0PBWt+lOd7tMjtr7CJti1vE9iwb0PSV+Srp8k200VP/a86c0eGwrDXRE8uWNfRkXYYg37TNZsyQ7AzY0qrY/BQAAeF2KPO4KiRh9AcERc9u5Hptf3YNTf3DqwZy2enfxb729uVa2yPPYATr1/qtk3uKnKu/ZO8zyQgI09iVj9gforC28u2H+3ORR77GGETfyLHn4m4PWsybddLZvkFz34JME3ZtwpxxJcwWHj88pvf2xOt1pV2ZBkkkNumi2OlovXLaEN7xjeOZqKenRaRxowxdiMedtXb7EHkabtMo99VeGhxEpRyRnW030aDouKMpygWvbzhKcIOH8VVz2e/TbjzzpVPEBgh3+8DIrgZxHeGcrn/o837H5XRevjXkQg/fF/i1cOeBoRl10u783Q92JX/DZlH7gfOzlP85sWCpG1lQ7eM3WLXEoUXEglxDX5spJvnkIRHb2/F76VwdUY/Jw2h+BlAwNf7LsaKGFTfewZjO0HwSRtvDE89g/GTzPJQNHcy/mxiTecAMdkdN1jy1s+foHzhHl5zbAWCmdnytjcHGRPSrcmBRSGP8oo7ld8177UYczJAZXVmTUCe0LAxi6K4Laq8puF7LLpxT1l3yfppa+/TxHJSfuk7b3RKBwFF05/RJrKePVx3kg+psnNlrC/TzAvReLdg72GlLz0tooiuOjS1PIIhIwkCXdW8d33E8SUO6jIuARK6re/xMGDR3m24dvMFpdIsSzZgeDVA+QsK5aj+rMntxMnxTHsAURRTPsuZn3iv5K3gwtjR7qJfYZIFvGswT4tw212Sug5QOIq2CEzPIyUZa2Tn6uyvFFMEkw+qe8QimOmCifQJev+Zq8duaor5jGaP4wHHcTe7pmysrbS+vV1LrLMTPsoAMerUSOGsoqto+z+D/c51avYUW8D3gmw67+9fz/xJVfDvviqfl0s7m+s3YdPRDuPYOF1AE5zHX/87dcDBBwi17JzY4y24U09auQwcXRcueAnv/mtbfgLw30SfOnBa4dz5Tqy9e1J8B6PETQIvhnxwxZs8HNnRLJ3CS7nzzNHRIcMimL3PpDSq1evFzdLRqHA/sEcgYlyHFzLjsMxwgfVZEH1XShh8Q7BKljnmrot4qDOExzZZRTcEYFQ1lVQaPicxL1jacbxJ/vDZBz9EfpvH5zJ9XQmd24+Vf38u1mX5GcPEXaPv0w4B3btrP8Mq3rl3rLfQTwv6Lvjr+VUyz4CFSEd1+tkFSPeu6jRw8XZMNp0cdu+1NhnxbdcQ+fBrq+hdhDvWPSXV3LiJeeKGzo4/falQJ69cPYAAxdt4akp/O4s8a1Kzhv7rPgtHIKRIcMk47r2oczL7vW6RVHsEkrFgcEsmTlJ0uEUuee4K73yFi7/lda+NsuM6zj2NGZmJ5nnCKQOPlh+COf+Pp82vv+E7J+q2sj941va+N7jFNO+m9kufDtmfx2Y+jG2Q3fqf8X9ojJGW4qyv3mPtn1VN5JEfN++fWnmAw9IluXLl9Nll16isu/TI9RqcMbqS2Aq+VP/7eWSKMxuJ8xvwFmxlfDh3jXxKjMKDneTrr3My0t5LfsmzJ86o97cDOZXwSDQHtR8iuD1PP+2Gep0z0d2P5Q6/VavOlAnRvnwH6jmb+FXMXrMKMq/8V7Td2Qk50mdMVU+RoUzHjXbSrx8oulrUkVibgn9wn6ngVDKndeLr0ZVBn74xBcfR8AfYdmbH0gSfDDCL+bOcZeqrBRzFDtO5n7D31/FVwvEEW7KfTcLw4EKTXmXj2dHxCXPvEYVX3xrlkUAvgWhYrf6WYTfxdwpU013SFDHpc60zMuxNLTzDMM3orUyMOfku64Xpqfi4Xew4J5ZJmO3Dx9MyTdeQU72W2nrawxykRfXkMe4W+fnAnlWVHu7Owa7vt21FWhaY589zHOmzrzLdHicMHGcl12Barcxz4rK+084hgyThITmZGkRBElRiF9IJzsWBsGBsiJnWVH9vCrRc6wu2iV5wlmii4iOlVg3j9LhdBjkKNgpx6D/8cg7c/J0k0HCcTOkShDcY5VlrW0RY5/aigr5CFpH7uXzPhdm4GKHvb4Ud8aJFH1wnSES/C36Ug2rg+CoFf4EI1KTKe6sU8RhbNI1l4pzVZU/8YoLhUHCz1zx7BfItSufpcWBxgfYkwmSV9INk0WyxLxn1U+LmBkcwfOjYynlnpso99IbVHXmMSKdffqxs184NYaEh7mSiC6dzPTGBOLY8zqYLPoG44aI9unyoW5MWX954OE+9qSjCUYdZW/PZV+I2ynhvHEipQKH4kef81eswbj8W6czM4sSLOAlHsY6VQt/k/yQCJtCGOCA4ZS+9h47sx0gnuHxIbYySUgjYJJgZMWzn6dqSNdsuJU4+QIxGlLtyiDGM2+WcvcNMn+l0swjD0SSp14tDBLz2VU/LqIYdhAdP+FUSrnjetp10TVmVgTAICE9oj/xE04jaA0SLpzAjqYfkXxNeVa8GvA5CXZ9PtXvtdPk264RBonBU+XX34uhjXKE3JRO4N0O5/caPh9BVd//In5Fq3yk4KbU3ZrKhAyThCp18bSLBNuRM98XxoK45bNvrod34YpFhB9o1INz66UjYscPH8sPDpwHX2+8fDsWzK0nyfkt3IzItKGHmEy+eO0SWvPSDIrv1s80Hup+8sVeTNJRXc0OuV3SYlmpMSBoSvP42EFasBKYUUMkDIgtWk1i5m4lqL/yrrnDjIL05fzP09T+racNAyFPChwBxxw5Rs7yb2cJs8gY6FTOX0j4KYK6CSTS0TvzJFz8xCaxqMVHEz9IGL6EuZ0Kj7dyMOtASX1ECniuCYwSasdyZrZxZ3prGRpbbzwzG1DhfQ+JhTDC+StmUvt3n6WYQ0cFzCSVmlGpVXEOxttcwr3AgAmqVjB2WD+LxMgDT5DMkfGx9MU3ecDyu8Q5Coso98rbJGz+YaDqUdXiGfNH0VCb8rRB9fLVYviFPGVvfUjRrCKP7NFVBinWewfDJFhUgoqzc6jdi4+I2lgi+K+pz4oq73sMdn2+9e+N80geHEIti2dYaRdKXnyLonigC8v0plDZex97Fav6bTHhF2oUMkwyVG4MDHsU7fzxU6plL+Olm1eJVAsJ2c4qZCutXbOGDjn4IGvUXgn7WrdCJSeqN0vrUaweiz/vTMJIPCw6ykyxhiO7G3O+bp7fUwzSzGgJ4GMJiht/sheDwlIHkK2ffyZZ9cOvkt7UP1j94eOOj4six+9LvPqg4vd4ZIkJ81ogqL2shMECCB8sxfCs6XszjPatGgXMD9r69SbMZ6m5S/VhrWSpr7mE+UwQGLKVHKzOxn2P7NZFtBEqDfGKYCxTW8PaFjBxDzX1WVHlfY/Brs+3/r1xrt6z6hVrvZpzso1ABE8TaGoYAc0kG8Zmn6TYElLNdsu310lGDjYIApMMj7SZ6a05gA8L1KDEkkRN9k7DoIUNaWJPONJrDisiPU0uo8azxKShawpPiJckq3RpzetcV9+wxF1cKuofa75Aw2Be7qpyr2KotymEeT4QmC4MiPwRjI32NblZIrRSbY2hqSA2lhHCkRk+VKlWZmotE0g4nFXiIKigraTOVbpKg1bCi9yGdKvimvKsqLL+jsGuz18bLR0X7rEqdlca00WqPTXoUef6WB8BzSTrY9JwTJjnI2HJUetRPyFKzV3GtOtkyeEddFfXGWbYU+ovKbHOdSb2Hkz5f/0gFajlLC5HXXkkRPJHvE+fPpInPz+fcnN9PiCSsvf/kq4yjDOK/vssKWkO0kfsiUd5dQYMFGTbr7dXvO8JLEmxEL3s9TmmNOObx/e81umxMvVNCOAclqowLLIS5mF8STGSsBiLRNOnh1c2YT78vKBfJU+/6pXW0ie1sCgGc4Na3PPM2np1a1qzXJfgwkY5EWmpzd48wpVjzGlBhW+lCLacBbl2GenWtN2Fm/KsBL0+xijMZwpid200J60xz54aWESwRbOVFPO0xgX1WbFW3EbD9b/6bfRCrN2GgQ0opkM3igbD8vewIs4aDwboG8d1wMhHUcqAEcZ8oaWcq6pCJVNCj/5kS0yh9oecZMb5Bhy8bERR+v5jZZmJtR/F6+tUTl2OOUc2IOh0xDiK4PWaoMqcraq4HPv370+vvPqa/GY+MMsrbV+eqJfPaZkHjD7CmHu09qsGRkE8pworSCwBsZJSTSLOuWa9JKk5Qms+ZYVpjQtW2M3qvDC7jedRu5tVRo8dbYZVAPNkoChewqAo+qARKmgesRwE12WtTyW25HVgJyU8Z1hCocg+eIAKBnysyd4hZWAtbCXMLULKDISwrAYUfchIOao/7BwEUnOaKn5Px2A/K02pT+bHGQd/Bm176n+g6Y159mo2Gd8N+9CBddXz84BND3wp2M+Kb/1t7TwkJcnKnVtlzSRUk0NvMSb4wZyWzGTrSKZRsz70ZpAclzJwpBHPYeyqs+mDp5BV1jiC6aKu2I49aPi9hgSQu+gb2jiH6+ZROaxqoQq1xSfR8LteknIN/WEpispvT06nITc/IVnLt20QI6OS9csIayuxDASbIuw/9RmvqjbNMfrlFdkKT/BhgZVkyrRbqeLjL9hooB1vf+Vn8MAj7tK35xHM0dMeupfK53xiWLfy2jt8NHPOvUKurpSNDGCGj3lPWX7x1zKxlIw6cBgbdvTzWtoQTDhgKIRlJ7iOUl7IjbZhyOJLjiXLKe6MEyj21OOYU9rJBoOTwf19s/FC/5coddotlDrrbqqY9wWv+cuSD2n0WJ5X5mcp7+rb65UJRgQMX7BtYAovs6j4coEYCWE3paZSyeMvUtoj0yj+/HGyrtW5ah1h95a4047npSz3Uw2vvQRhWU+Ex/JZ1Jb8YVYDHahqoT7HUhrMg2LNJvpX9fMfYswFzQMspFVdje1rsJ+VptRX+d2PsjY37eH7qPL7n0XyLntjTt0a2sZeTCPyNebZA754J2379ZFlSZXf/SQW0Ric+lKwnxXf+tvaeUhKkhveeZQqtm8So5dg3JB1r8+SBf1KTeVbpzAujwoLaYUrLcYMlnhVbs0L03gJSY6p9lLx6rjyqTvYWGe1OpWj2+kQS1cwUCu5LfMxVtWvNU9ww575H9/rUudQ6zFBnSgvG6tIE6dcLAY3stDcZ94JecEYS/kDAokNH92kGybJ0g6RMpGBCdus5d1wj6zhi+H9IbEcJOHS83iJQn9y7mE+06ihaf/YXgvm8pD+wCzBpPFR9yXEVS9ZIdeAPSyxLKH8w8+MbJYpM+QreogHV7xlHIyQkm+6kmD0FNmB110uXelbbQDnlkb8lMJyE+y1iw0EsLQCi8nxoTTIU1Y9S+peqnrUuTpyvHPjFlnGg3lJrMvE/UC9UCXXWu5xwgVniSUsrGHVBxlh+U2+ULVABXf8n2cDg/0FZ+Dn2p7D6yQfNPOY75+lH5Locx7sZ6Up9VUtWkJVv/wpzwPwiePBk1UVX3dRzQ819tnDWl0YoAFbLMPCpgFO3sjCF8NGPSvN73abqSGsa7ceu3+72syl7NuOYj4S+7Ni2YlVBducXkXYoymuS29h0FX5rJZsg4T5POxOA8OaWl6usieCeio8HRLEDq8NB6zlYMlo4/m+WmacNdt2NGkHHWt9jQmLipTnTaEaxLpVLDvAx0ltJqDqkN1PeJ6umtdlQo28O8J8XgRviu3mUb4MCDwDjN2VaVYa1K0s4WIwFah0trt2sesOVOVYLwfG1hySurryjjubtzXb6Ar9CPazEuz6moOVb9nGPnvQ8ISzlI4dsBra/UpU8y3wrPj2uS2caybZFu6S7mOrQgDMrSEm2ao6qjujEdAINBuBkFS3NhsVXYFGQCOgEdAIaAQYgZA03NF3ViPQkghgjqri8/nGZu0t2ZCuWyOgEdjnCGh16z6/BboDGgGNgEZAI9BaEdDq1tZ6Z3S/NAIaAY2ARmCfI6CZ5D6/BboDGgGNgEZAI9BaEdBMsrXeGd0vjYBGQCOgEdjnCGgmuc9vge6ARkAjoBHQCLRWBDSTbK13RvdLI6AR0AhoBPY5Av8PpLymvYUepBgAAAAASUVORK5CYII=;" vertex="1" parent="1">
                    <mxGeometry x="-254.29" y="105" width="192.68" height="43" as="geometry"/>
                </mxCell>
                <mxCell id="61" value="" style="shape=image;verticalLabelPosition=bottom;labelBackgroundColor=#ffffff;verticalAlign=top;aspect=fixed;imageAspect=0;image=data:image/png,iVBORw0KGgoAAAANSUhEUgAAAc0AAABnCAYAAABitRkhAAABQ2lDQ1BJQ0MgUHJvZmlsZQAAKJFjYGASSSwoyGFhYGDIzSspCnJ3UoiIjFJgf8bAySDGwMGgzcCWmFxc4BgQ4ANUwgCjUcG3awyMIPqyLsis3vfuQdMvv15ekWU9QY3pXSemehTAlZJanAyk/wBxanJBUQkDA2MKkK1cXlIAYncA2SJFQEcB2XNA7HQIewOInQRhHwGrCQlyBrJvANkCyRmJQDMYXwDZOklI4ulIbKi9IMDt467gFurjo+DhQsC1ZICS1IoSEO2cX1BZlJmeUaLgCAylVAXPvGQ9HQUjAyMjBgZQmENUf74BDktGMQ6EWCHQj1aeDAxMuQixhAAGhh0fQF5FiKnqMDDwHGdgOBBbkFiUCHcA4zeW4jRjIwibezsDA+u0//8/hzMwsGsyMPy9/v//7+3///9dxsDAfAuo9xsAqPZflUpwRJgAAABWZVhJZk1NACoAAAAIAAGHaQAEAAAAAQAAABoAAAAAAAOShgAHAAAAEgAAAESgAgAEAAAAAQAAAc2gAwAEAAAAAQAAAGcAAAAAQVNDSUkAAABTY3JlZW5zaG905v8R7AAAAdZpVFh0WE1MOmNvbS5hZG9iZS54bXAAAAAAADx4OnhtcG1ldGEgeG1sbnM6eD0iYWRvYmU6bnM6bWV0YS8iIHg6eG1wdGs9IlhNUCBDb3JlIDYuMC4wIj4KICAgPHJkZjpSREYgeG1sbnM6cmRmPSJodHRwOi8vd3d3LnczLm9yZy8xOTk5LzAyLzIyLXJkZi1zeW50YXgtbnMjIj4KICAgICAgPHJkZjpEZXNjcmlwdGlvbiByZGY6YWJvdXQ9IiIKICAgICAgICAgICAgeG1sbnM6ZXhpZj0iaHR0cDovL25zLmFkb2JlLmNvbS9leGlmLzEuMC8iPgogICAgICAgICA8ZXhpZjpQaXhlbFlEaW1lbnNpb24+MTAzPC9leGlmOlBpeGVsWURpbWVuc2lvbj4KICAgICAgICAgPGV4aWY6UGl4ZWxYRGltZW5zaW9uPjQ2MTwvZXhpZjpQaXhlbFhEaW1lbnNpb24+CiAgICAgICAgIDxleGlmOlVzZXJDb21tZW50PlNjcmVlbnNob3Q8L2V4aWY6VXNlckNvbW1lbnQ+CiAgICAgIDwvcmRmOkRlc2NyaXB0aW9uPgogICA8L3JkZjpSREY+CjwveDp4bXBtZXRhPgq28YclAABAAElEQVR4Ae1dB3xbRdIfF8lyr7HTe4LTC6FDqKH35AKE0AOhlwAHHCWF3BfKAaEHOCD0FgjtOFogEI4SIKR30pzmuHdLsuRv/iPt85Msx3K3xc7vJ71929//ldmZnd0J69GzdzWFGPXs1ZsyunQ1rur3pT+T2+02zlUg2Hwqfygfw8LCaPCw4XTSqWdQZUUFPfP4I7UuNzomhq65cRrtzNpB777xaq30xkR05vvUg++XopV//E52u12dGsdg8xkF2mEgPDycIiIjaeCAgfTY3LmUkJBAJ504joqKitphb3WXNAIagUAIRAaK7OhxO7ZvI/zqo2Dz1VdPR09PSkqmy6++Ti6jurqa/vPxwla7pL17dhN+9VGw+eqrpy3T589/hQYecIDRha1bt2qGaaChAxqBjoFASDLNjgF9++lleUU5QRovLy+nTRvWU2FBfsDOOR0Oybdn966A6Tpy/wi8/8H7NHLkSHK5XLR+3Xr6gM81aQQ0Ah0LgbBQVM92rFuge6sR0AhoBDQCHQWB8I7SUd1PjYBGQCOgEdAItDUCmmm29R3Q7WsENAIaAY1Ah0FAM80Oc6t0RzUCGgGNgEagrRHQTLOt74BuXyOgEdAIaAQ6DAKaaXaYW6U7qhHQCGgENAJtjYBmmm19B3T7GgGNgEZAI9BhEGg36zQtCckU26W3AGcv2EcV+/RawA7zFOmOagQ0AhqBvwgCbc40U0ccSX0mXEsRUdEG5IUb/qANL84yznVAI6AR0AhoBDQC7QGBNlfPRqd392GY7QEU3QeNgEZAI6AR0AgEQqDNJc2KfTspf9WPVLD2N+o38QYi3jh8fzRo0CDq3LmLZPnuu8UBN2LfX3mdphHQCGgENAIagcYi0OZMM2/FD4QfSJhmPVcyY+Ys6tWrl+Q64/TTKCcnp54SOlkjoBHQCGgENALNg0CTmeax406mUQeOqbc3O7ZvpQVvvVFvPp1BI6AR0AhoBDQC7RWBJs9pLvl2EZUU798foMPhpM8//aRZMCgtLREvEfAU4ayqapY6dSUaAY2ARkAjoBEIBoEmS5pVVU767OMP6bzJl9TZ3neLvqDSkuI60xuScMXllzcku86rEdAIaAQ0AhqBZkOgyZImerJrZxatWPZ7wE5BLbtqxfKAaTpSI6AR0AhoBDQCHQmBZmGauOAli7+upaZtTrWsArVLly6UmZkpv/DwZuu+ql4fNQIaAY2ARkAjUCcCTVbPqprBIP3VtN9982W9atnY7v0JazXNZEtJp7TRx0hU0YZl5CyrUe3OffwJbT1rBkuHNQIaAY2ARqDVEGg2pokeQ027avkfNGzkKBK1LIfro+4nTaKkA0b5ZLN16kb9zr9J4jbOn8NrOJf6pOsTjYBGQCOgEdAItAUCza7fhHSZn58XvLVsdXU91+2XbspfbQrXU4lO1ghoBDQCGgGNQJMRCOvRs7cfV2pynWSxWMnpdDS9Il2DRkAjoBHQCGgE2hECzS5p4to0w2xHd1h3RSOgEdAIaASaDYEWYZrN1jtdkUZAI6AR0AhoBNoRAppptqObobuiEdAIaAQ0Au0bAc002/f90b3TCGgENAIagXaEgGaa7ehm6K5oBDQCGgGNQPtGQDPN9n1/dO80AhoBjYBGoB0hoJlmO7oZuisaAY2ARkAj0L4R0Eyzfd8f3TuNgEZAI6ARaEcIaKbZjm6G7opGQCOgEdAItG8ENNNs3/dH904joBHQCGgE2hECzbphezu6rnbVlV5nXkHJgw/y6dO2j16gwnWBfZD6ZGyjE3ifGTD5Nml924fc1/Xto69hYRHUr/vxNGzA+ZQU34vsjiJ687/nNgillIS+NP6E14wylY5Ceu3T04xzHdAIaAQ0AnUhoJlmXcg0Y3xst74UlZLhU2NUUrrPeWNOOh18AvU46UIpuvbZf1Bl7p7GVBOwjCUuwehzVHKngHnaInLUARfT2APvIne1i4pKdpDL1fA9jh1V5ZRTsE6637PLEWSLSmqLS9FtagQ0Ah0QAc00W+Gm7fh0PkWldaG4HgOo85GnN1uLUYlpZIn3fPAjoqKbrd72XFFm37Oke8+8M4qqXJWN6mpp+V768NspUnbqhJ/JaolvVD26kEZAI/DXQyDkmGaE1UYJA4ZTbLd+5K5yUsm2dVSyZU2tOxvXcyDF9xlM1W43p6+msl1bjDwxXXoLM7Ln7aXkoYdS+Z5tVLJ1LXUacxyFRVop59evyVVZTuGRForvO0TKVWRnUUSUjfMfRvaCfVSw+hdyO+2SVpq1ifBzVZQFxTTDIiIpod9QQh+ryku4f2upfO/2mv517UOWuESymZx341oiYxM87e3YKP3DSVh4BCUOHEHRGT0pMiZe6sv94ztyFhcY9UkgLEz8msYyYy/+c7Vvmuks6Pq4TJcuXSgzc5CUXrVqJeXm5ppqCj5osyZSRuowKZCaOICqqiqoW/oYOa9y2WnXvl+NyiIjo6lP12MoOaEPud1O2pu7gnbl/E7VLJk2liyRMdSvxzhKju9NRaVZtGXnIqpktbA/Jcb1pB6dD6XY6HTak7OMduz90T+LPtcIaAQ6OAIhxTThzHrAxXdQuCXK57ZgPm7DS7MlLsIWQ5lXzhCpz5ypaNMK2jj//5jROaj/pFuEyfCXlrlOmGRzlhWTxcuU0g8+nlY+chPZ0rpS5pTpkg6mFtO5l1Gls7SIVj1yI6FcQyiGGeKgq2YKgzOXK1y/jDa+8n9U7XJx/26l6PRu5mTCvKkis+PuMbPfEuau0nDsedollLtsMf359uMSHRYeToOve6AGk3Hkw6TNZYOpT+WfPPkiGj9hgpzOm/cszX/5ZZXUoGPvrmPp5CMeqSkTbqFzjntJzqGmfeJND2OOj+1KV5y9uCafNwRG9+6X51NZRU6ttPoizj7234T2zWRuU8UfO+Y+GnHAZHUqx9zCjfTOFxPJyepgTRoBjUBoIBAy1rORMXE08LK7axgmMzxnSaHcJSWB4aTvxBtqmAOYIn5MiQNGMOPxqOwkgv+q3S5DWgTDdBTlSRKkNkiDZhKG6a0L8ZAEe55+qTlLvWEwr0FTZxkM01GYK9IyCiZljqYeJ3s+ypX7soQZQ5JWBMkXDBo/SKeKwrmfyAdJF4zXZa+QpLTRx1B8r0wJdzrohBpMEMPXYR4ASCbvXzD1mfM3R3hz1lf06qenyM/F0qPDWWacv/rJyT5N5Bdtpi9/upNe+ug4YZTbdn9PiXE9aNyhc3zyBXPSPf1gYZhgtmC6zy04lD5afBVt5zrNNKz/ecIwK+2F9O2vM+n9RReLpJmWNJCOP3imOasOawQ0Ah0cAd8vfwe+mG4nnC+qSFwCJMvNbzwiDMKamMoM50C5MkiZKaxuBSlJMIxVrMNve5JVq9GUzoY12xbOk3T85a/6mY1rdlO3EyYK41n56E00Zubrkg6maCYwppUPX8dM20rDb31SJFSoaumdJ8zZ9hvudNDxFBkdJ3l2L/6Asj7zWHgeOONVYaQZh59CO/7zCm189UHJ033c+dRt3HkSXvfcvT4qZtXQptcfpoI1v1A4q62tCclk69SdBl5ypyRDjV2yfT1lHFbDeJC/ePNKGnbLXAJ2/hRMfapMSUkJG+p41KIV5R5mrdIacsTcZX7Rn1Kk2l3FPL3KODfXU1K2m5npqUZUcelO+uyHm+naictYvTvUiA82AMkVBPXvbla3grbuWiw/OfH+HTnKY2X8wTeX0b58z1TAe9kX0nXnr6SBvU+nz3+83ZxdhzUCGoEOjEDIMM3Y7v2M2wBmoyQqSIf7fvlS0qD6VFSwZqmhOoVqVpgpq2JtbLCjyFlSQI7ifDlFfZiTVKSYmzovY0nOXuBR/4HR2jp1kzlOlR7MEfOJitJGHU0pQw7BpKQwdMRD7Yx5VLOEqfLXdcSAof+FtxoDCnM+ZdFrSUiR6GoXM6OVnnk4HDsfdYY5u4SDqU8VgkoWv9YkqFIPG34zL0fpQZE8F6nIEtFwQ6lNWV/QidUP0MBep3J9PWnb7iW0butCKijepqqlcF4CE8VzrqCJJ75txCMQwWpkUFxMBpWWZ0tY/2kENAIdG4GQYZqWeK/kx6rF8uwdAe8KJC1F5Xu2qiBV7NlO5JVArUmdjHjWU9aETapXRIZFRMj8ospQmbNbBYV5gmmCYJjkclQaafsLWNkaVlEgKQ9pYHD2/OA+wJ2POpMgvSoCU6xixq+k5HA2agLBgAlknn8NhGGw9UllbfCXlnQAYQ6yutpNBSXb2AhoEc8nVtDwARfI4KOhXYLB0ftfX0xHjb5TJNX0lKF08NBrWNL8ltW0U6W6aJtnwIG867Z+FLAJ9EGTRkAjEBoIhAzTtOfvI1sqS4ksLSawRWsgC9DK3L3GXYO1afaP/5XzuN6ZRnxlzi4j3JCAWdKNzujhKcqM1sww3SbmaU2uYZCqHXse1lmOktPd375PZVmbVZJxVPOqRoQKsETqT12PG29EwcipYO2vbEk70jBeUolgpFaWYq3xNYOKuB4DVbJxDLY+VSAxMVEsaHGelZVFZWU1krrK05zHEw79p1T3BatD12/7RMKQ8kYM9KxlDdSWm+etwwJgp/Lu3LeU3vr8XJZao2lY/4l0xIhp1KfbsZSePJj2FawV4yIwaZfbQYuW3qeK6aNGQCMQogjU/tJ20As1LyvpM/5aYZwwrIHatddZU+SqKrBswysxYoceLOtIGnSg5EUGSGJKxdpQGLBMJXXEkZR+yInGXGBVRalPNViKoiht5FiPBazXOhfxxaalMQn9h1PZ7q2Uv/pnmaO1JqXK8hf0UZGzrEgFZTkM5lOVta8kmKTjkm3rJS3jsFOMMipgV5sicF96nHIRL9fpS6kjj1TJNccg61MFrrpqKs1/5VX5/W3iRBXdYscYm2cOFoxO0eC+56hgwGN23kpRsSYn9A6QHmbEQZL8Y/0rzIw/lbjuGaw691JJ+R5R0aaneJYfqXgcwWw1aQQ0AqGDQMhImjCc6XLMOTL/h3nJQVfPNu4SLEdBmAvcs+Rj6jL2LJkfHDT1fiMPAllfvOlz3qATZjiYOzRT9k9fmE+FIUMFCktca1IaGyA9JellO/+k1U/cJvOJUL1irhEbIYy8c54wcmWp66+WFUbobQFGQviBlFRZsnUNpQw7XOJG3f2CrEkNtAnC7sUL6QDvetOux55L+AWiYOsLVLY14rAmMyG2G517/Cu0bN1LYjU7ZvCV+2167ZaF1Je35bvg5IXMED/iDRPs9OPyR+V48NCpLKVeRGu3fCA7CKWnDKZBfc+W+nbs/Z9R79c/381tzqfzTnpX2s0tWE9JvE40s/cZrOCvJn8LX6OgDmgENAIdDoGQkTSxfnEVW7dW+M9nsnSEjQkUwfp07xKP6k7FQfrc9dU7tIeZB6jaK1HJwRs28noDKo+Kh8UulqgoKv5zFe362tcwBGkb/j3TMydZR72rn7idijYuV9UYS1tQdxFbtZqpnCXRnczosdxESdDm9C3vPU1K3QwjIjBM3z1kPXO2iFOqainPfcv9/VujKnWtwdanCrpZbWmQaXrYiGtkQPXHvzjUo7B0xSYEJxwymw4aMpU27ficsBSkLsJGBZuzvmSJ0MZzn5NodOZlrKr2WDAXl+4izFminlOPnEtjBl9F5ZW5tPi3+wlrMBVhE4P/LLmJ73+V5D3lyMfYGOlGSmTjoay9P6ls+qgR0AiEAAJhPXr2bsbPWftABMwBKkaXw85MNMtYa2nuHXa2EWta/rCX79kmUpg5PZgw1jIOmzZXsu5atIAZ79uyiw+sZ7GkpSkEQyPUHxEdS1ivCSkTuxc1hrB3bFRqZ4JEKwy2jkqwJCeWLYxLeUeh/VnoBltfHc20eHRkhE12EMrOW9XorfbMnYTqNj6mqywnCbQTkDlvXExnwobwpRXZYmXblJ2IzPXqsEZAI9A+EAhJptla0PozzZ1fvNFaTet2NAIaAY2ARqANEAgZ9WwbYKeb1AhoBDQCGoG/GAIhYwjUFvfNUZxHe77/SJouXFezaXhb9EW3qRHQCGgENAItj4BWz7Y8xroFjYBGQCOgEQgRBLR6NkRupL4MjYBGQCOgEWh5BDTTbHmMdQsaAY2ARkAjECIIaKYZIjdSX4ZGQCOgEdAItDwCmmm2PMa6BY2ARkAjoBEIEQQ00wyRG6kvQyOgEdAIaARaHgG95KTlMW5UC9jRqOfpl0nZnZ+/Ic6iG1VRAwt1GnM8pR14DJeqpg0v3r/fnYEaWLXOrhHQCGgEOjwCIc00+0+6lbe1G0CVeXtp/QszOtTNikpOFy8s6DR8c5ZsZy8lrUAJ/YYY7Yaxw2viTe47CkWNHEpxF00gx+r1VPLy2xQWGUkpD95D1Q4n5d/1T+MyIjqnU2TXDOPcHHCXV5BzfW2XbOY8Ohy6CKTNvZ+qdu2hwoefCXiRSHes30TF814NmN6SkZE9u1Hy3TdT+WeLqOyjz5u9qTCbjayDBxj1VtudjMVuchcWG3EdIRAWE00p999B1aVllD/9Yely4s1XUWSPrlT0+AtUtWNXky4jpJkmGCY8hkTGxDcJJF24YyAQwYzQ0q83EbuEE2KmKed+3Y87/2yKPsbj/cUviaqZaWZPusY/OqjzxOsvp6gDR1DO1NuZUTuCKqMztS8EInt1p7DYmDo7FdmbfeWq56vOXC2TEM79isjoxB9/j4P75m4F70ryfb6emtCGu6iECh95hhwr1zV3k42qLyI9jVIfvJcqFi2hktcX1KojLCrK896zEw9FUaOGUXhiPIUnJxFppqlgCa1jyY4NtP3jF+Wi4DGltQjeTsp2bZHm3LzhfShT5c+/k2PNBp9LdBc1flQd2b0rv5SJRBFepu1Tsz4JBQRKXnmXXHuzQ+FS6rwGV24+lb37ETPodLIddQiBSaVMv432XX4LM9DGvx91NtjAhDBblLxnEd06N7Bk82QPKUnTmsiOmoccLMjkLV+yX4TgrzK+zyAKC4+k0p2sbvlzdUD3WtHprBIZepjUBe8lRRv+IJe9olbdloRkSuw/gqI79yBnSSEVrvuNKpVzZ2/uxAEjxBE0PJbACwocYdvSurLz6dVUvNnDGOELFNIxqGLfTjn6t4e2sFk8qGTrOva92Z/i2aF26fYNPm7FJIP3LzqjpzjbtiankZ3V1XkrfyRXRZmRJa7nQIKXE5Bqt9rs2svIyY6VWXJPHMjXmt6DytmxN1yZmb2nwAsKVMoguGXDdcfwHC2wgwcVf+rSpQtlZg6S6FWrVlJubq5/lhY5dyxbSeVffldv3VBb2Q4ZTXhJXXv3kX3pH+Rm1Y8Q+1GNGuFxPo2RLChq5BCqrvAMOKqydpErr0Di8YeRbtSBw0VicHO8Y91Gqtruuc9Ij+iUSpHdupArv4Bshx5I9j9Wi7ow+vijiFjNXP4V99fs7Ya94aA9SAmu/EJyrFhDrpw8VFWL0Hb0kQdTWLRN2qz8bQWRaTReq0BdEXzN1mGZ0iZG9c4/t4lKvLqisqYES2NRwwcTPsDVdrtcC9z32X/lZyVA/yDBhScmSP8jUpPJdgS/xzz4qPxhqU/+8LhYsrIaHqq2qh07yc7XUG2vkeqRbunfh5yMKZzQRx06WtT0lT/+6lOP6qjlgH5y/6rkvta45FPpOELdZ2EJFORk1ay7xNe5vCR4/6D6jxo+SO6zg9X8uB9mkqkBzuNYu5Eiu/O7zs+Cq6CIKpf87HMdUgb3dvQwwRlTBtXOuqdKLAP7sWp1oDwbmJ5wbtlubrZBYXdevvFelLz2HmW8NU+emaiDRlLF19/71GUZ0JesQw6Qb6d9OT+rpmdZZYT0bh2aSeFJieTauVueFfM7ofLhiGcUzxakaTc/J7hv6l2L6MJaQ5a0gSEoIi2Fn/2hEq52VvEAuHWmsEKGaSZljqYDLrtHmBJQ7HnaJQGNWOBqK3PKdHHyLGh7/+wF+2jdvHvEUTSiEgeOpAEX3cE+KG3mbMIcfrvvQp+4bsdPoO4nTjLaRmKvMy6nbR8+7+OnMvPKGVIOjCY6ndVA7J4M1I0m0oqHr2Pfl7ulXNKgMRKv/ra8+xTl/LZInVL6weO4vQvkHFIhjIYUFW1a4TN/CwfWAy76uzBolQfHPuOvpRUPXsvzvXsk+oAr7qXIaI8fSZUP12lmhohPHTWW+p13o9F3xFW7qmjTaw9RwVrP/rtdjj6bHWKfiiSp35baRcLdx51PWxY8TTlLv5Zz9Td58kU0fsIEOZ0371ma//LLKqnNj8n3TeMP13DffvDHf+/4KyQOo97kGbf5pCfdcYNxXrbgE1YhvS/nMSceQwnXXmqkqUDlT7/zHNrT8sGLHX8axZx8nEqiuEnninpMMWTLoAFUNPd5SQeDhZoqPIVVTorYF2rxv9+g8v/UYAy1Xurjs+Ujo7Lh6Ny6g/Juuc8cFVQ4/dUnKTze91kB4yqY9YghuYN5AReou8GkiRmt0JWTqfAh9vP6028+bSXdMpXwcQVW8ZPHG2lxF46n7AlT5Dz66MMo8UYOMzNRBEadd+ds42NtZSaTNO1qcm7aQvigK4q/+G+UO226kQ/xSbdeI5KUygM1pNFPFclH22FjKPEGz/1GNObEcm+825TDE0zga4s57QSfeDCRvDtmU3WlZ0CBa7MdeYgwDjASRfEX/Y0luZuNQQwYddpjs2RwpfK4eVBUixiLFH5Grd6Bm0oHswHOzUHOzVuZkQ2iCNNzJvOGfH/BrBVhyIhBaPEzNe9v0p03yIBJ5VHHkpfeorKPv1CncsS0Sdx5Z/ncg4RrLqGca+8k155swj3EvVCE+2u8e6Z3UqW31DGypSpu7Xr7XXBLDdj84YDTZfz8qf8F0wyGCQkOfiMtsQkEw5uBl93Njqz5wWVCfcIwuS4wIjiBhjQGJmSmpANGUfeTapgo6nM77cKAIrneQKSkRPFZydKcuZ+QTp1lxRQeaa3FsAPVBYaJvikGDKkuecghVLDmF8kO5g2JVlFVRSnXbfHgY63BBwwbPjcjeVCh6lJl1BESZP/zGR/vBxDMEngIY774Dlo26zKqKucPj4nAMIGHusYejJU/0zRlb1IQo/Hyz78h5+ZtUg9G5jjHKDQQxU44g2xHH+6TZP9lmfEyW4dkCsN0syRQ+NBTLPHt5Y9EX2Zqxxpl8NHOvf4fcp50+7Xy4c/7+/3CLBAJiVER/KE6lq+R+qu2Z4lEFH/FJP4QHCh1wsBDUfkX3wqzjJt4JoVZLZR/34OUfNdNIvEWeTMl3nSlMEwwIKgNLf16CcPAx9vOqmc1msfHCKNySD3FL75J1WXlFDVmpEg6qr2GHCFtl330BUuNf8hH3jb2MEI/YaTiPx+MjyvaLXr2FZGEwHwSmUFWsrQeSMqNv/Bc+fBW/vCzSJ4YaIAgXaAcypQt/C9V/m+pYBZ9wliZh8u5gt9/E+GDCsaB+x838SyRdOIvnkgF9z8quSA1QfUIRlkw61+sPmGjMVZBBiLgqySo1H9ND5SF0E8wTEihpW8tpCqWqOInjSdLZn9KuPpiY6CjCkM6K3v/P2JUlHjNpXIfY/hacN9BCZdfIAwTUmPR0y+TlSVi3G9/ij3jRGGYrn25VDjnCRlQJN97C9kOP4iijzuSKr75wb9Ig86hZcFADVSx+EejbNK0qcIwMfAqfeN9wiAp/pLzGIej+X6v5vvjGUDDGAeMtGLR9+TOLeDnbgThmY/n68P0CPoNimJNDp5TDL6KnniBJfFNIt0nTL2Iwiyeb24xP0Olb3zAmpjOlHTXjTLwUAZZ0GIoqi4v97z3PGBTVPbhZ4Kna/deFdXoo6c3jS7ePgpC1aqkJEhOq+feSqkjj2Jp6hqfDkKtCYkUVL5nG616zPOiDbzkLlHrgplBPQrGBeYBchTl0abXHzYkrtju/SVe/fU8o2YEuuPTl2nvD5+Ks+j43qyiMTEllV8dN7/5COUt9zzQkGqh0gVt/+Ql+aUMPZQGMCOqj+Bke/UTt4kE2HfCdZI94/BThGlCPZVx2MmeKpj5r33uXirZ4lEXId5Zpj6/RGue8rQFKTLtwBqmYG6/xykXGwxz+yd8rUs+ph6nTKaux44XRttt3Hm0/aN/m4uIF5gdn86nUfe8SNaEFLLEJfqk46SkpIS/hZ6HvsL0oNfKWE8EVFJOs1Uj16leqkBFMVcDac1M7uJSIu8IOKJTiiRB7eNYt0nCUAfiZyZ8IEFKPQmVrAqb80G1ZVZvCVPje5R0x/U8kh8sVpEqPyRFd0mZMCPnhj/FCANqUFGFcaYwq1UYAT4yIlHw/RVm1q83xZ7L0upZJxNG86BwVneCytlwQlkOqo+zJDTwL+/2WT4lSt/8gKA+hloVTBLSpUF8Dwruf4yqq6qogpmtMCuWFqKZYZk/wiq/Y8VaH0mlcoln8AcmAip97xMqfftDCRc9tVUGKWCQ+EG6VOQZ6HgkraJd2dTpxUdFpavS48af7qnj8edZvbzdE376JUq63fMOqXw44nogbe2P4lgKAhXMeNioL2/NHMp45zm5VqUdUHVA7QzVJ6g0/VPCQMcyoA+Rl2liIEJ8T8HkcY8rWNKCWtrfgC2GmSaoYMa/qMrLEAqYeaY+cA/FnnNqo5hmZO+elPLPu0SdCgYFqvj2fwaDkykGHnTBKj3vtpnG4AfPVuqjMwmDUcU0i556ScqrPzx3YMK4DkjaiqknMCMFlbz4hlHWXlBIOdfUfAPdxSWEH4WHSV4MUNS7JxHeP+Dl/95joNVcFBJM09apq4FH3rLvZc5x39KvqM+5VxsfeWQwqzGjUjrTiNuf4vRwioyFYsFDMV37CNMs3bae4vsOIWtSGo2Z9QZVZO+g3d8upNxli1VWOUalePTrkLr2fP+xkVaybZ0R9g+U795qMEykYU6wsZT7+2KW5ByU+9s31JdVrpACVZ8wAFBSYWnWJoNhoq3snz5vcJMxXXoZZbJ//I+E93z3oTBNnMR2q1HVqIxqYADmDqap+qPScYRKFr/WJqiR9jenCQkDo3uo01J5PsW+bBVV8sdDfZwa3F++N7Gnj6OYU44XQwbiEXSYV2oPj4/1qQ7SIEbMIHdFhRzxMVD4wVIYJB9z/rgqwpwhmCbmyxSBUUPySOJrsbP04eB5UsS5uY3GUGTXziItWPr3ZtVrtHzEsLwHFJ4QTy4T03Rl5wrDVO2gbajYsHwiEFXw3F4gEqtVToidcLpcn8qjpBBoAMxM026aS3TxHB2YNhi6IgyYQJgzVmT/1XcwpOLrPbKKFJIWKGXOPT7ZFS4YUCjJHxkgBSuCNAkCdiCUgXYBc79yzyWW+8pz8P5ME2p75DE/k7Jkip8JtNkYCoviARlLyEoNjsFo8XOvGVXhvoPQR8x3+lOkd85R8jDm8ZMnUNTBozwqfZ6nDvOq19X1Ip/qawUPJto7hQTTNEsvyogFozSoIs3LTaCCVQTVa4TXWEXF4RjFTBK0deHz1P+CmwlMFARDmn7n38Sq2Ato+RxWE3kJqk5QZV62N6b+g6M4v/5MQeao2JclOaH6czkqWaUbzQY9nhfYmtTJqKV0h0dSMiIaEVBYQq2t1CFV5aUypwkVrSW+thQJn6MgMPaORvgY5d/zIMVfdp6oUi0sxcX97QyWNJdTwey5Db6cxOsuI6gT8QGvYrUWPkbhMTGiJlQfV1VpdZWL83lVTl4p3KzOVPNLYK5mUkYqMKpRBGaPAULseWeL4QSMJ+IvPY8lnQVU9oFn8KPy1ndEP1MfnUFQ24EJOFhFCxUnDHfwAfe/DreX8at6sQ4WBGklEJmZiTldzaFimUEgcm7ylQRd2Tm+2dw1AwskyDwrBhumAUdjlwmpjz+el4rF//Nt13tWXWn3iffpn5o+8EpQav7av0w1tCB+BLzdlWV+sXxZXCeYX2PIuWGzzMOGJyWQLKNiqRJTD0q1rbQzmGe0r1xbqwmZG0YsDwjVvCykdRi9uXZnE4yv8C5BJS7E2hYwaGhnfLQUntR29x8STNNe6NGLA91YtiTNW/GDjGbUR16hjnk7RVBTQpXqT5DIQJAsV82dJkwzbfTRorJUc58JbKkq1racz2UHo7JRNEu7GEEpZiKV1PEXTJ46itaKjuuVKQY44RbMgXpG0lVlnnnFin27jPxQATeVwOwt8UkexsxtgXmCMat5Xnv+vkY1kZiYSLCgBWVlZVFZWe2PQKMqboZCUM1CBYUPUPSJx3hGzfwRsfTtVbeFold69G/exiopfKRzpkwzFoxD6sTcWkPJtdfDFGSJi6lweKpHpexmq1UzQaLGDyP6mDNPolhW38ZNOofKPvyvGCCZ8+4vDEkPDLPyh1+o8F/PGln9JSCVoBiKcc4fYhCsagNRILW25GcjGKgKS5nRK2vKQOWDjcPgIoINlMB0MIgBmSXRYOtBPjerEXFfMYeOebemEqygQTDgMpNSs5vjoCKFMZoP8fMHKVANoHzSGnCCTQ0K5jxJGa8/LVa+lj49xXhMqUSrsnbv93ph2IV1pVCV77vsJqNlGNf5EA/45Tr4fkTw8wvNQHDkUdMGl7f5cjGL7/hUvmebcRGdxhwnyzF6nTnFiFOBsl1/qqAwQzCB/NU/Uz4bzcAoB1afmMMEdTueLbWYEUKVijk5bCmnKKHfMBXkeZrtnjA/qAMuvI1sbEwDoxeUx5Z0DSZ8cNVPFcYI1D/Om5Z+yDgxbDLP31bmeJilozBHpEBkxdIZWK9iWYklLoktam+XvqomjPrRjiLVpjfOrHLuM+FawhyxqMC9+bG8pDF01VVTaf4rr8rvbxMnNqaKliljwgJSRPknX1Ll9z9JW2bLR9W4UndaMweoqJojj6blA80Sh3mHFViENoaqIEnxhxrMG/ObiqKPPUKCMNAwyHQdkA6xWxIMMNAfGAg1hCLSPHPAWDKhCKrWuhgO1KBKSkR+qIlB9c0RSibTH6QfkJrDMyU1SqLCchWQzYS/LOsxV9yAMAYBstyFjbH8qcESH99XDAxgFW2WyKPHHupfNRvX5Mt9hNGaItvhYySIOe4mE2s5SnjOGpQwlW0amMTQjvsIi10wZ39S16skUp9nkTNbhw7yLyLLqhAZfZzn+VUZMEBTamIVJ/OafGLp21NFteoxJCRNSJBY+6h2/xk2bW5AEKFK3PfLl5R+yInCPIZc/6CP5am5UOexZ7IqdpJIU7AIxRpQRWbmsWXBMzT81sclKZmNd/BTtPOrt1UwqCPmUAdfPbtWXhj4KCOfDS/5pkOaHnLDQz5ldi16zzjf8dmrsowFETDUwU/Rrq89+XqdcRl1PupMFW0cx8x83Qj/8vdzCHvgZhx6kkiWqSOOJPwUQeLe/e376rRDHGPOPJkNU0b59BVSR+GDT0lcLBuLxLJFJFSCzm1s7covqc3LlMxzZqoCGAth3V0iWxZWfveTrL/DWlBZM8ejaYy4IRkms+Uf5kthFAPrykYRf8wquA1IeGmP30+lbIkJBioSH6eVffi5US22FMMHveI7XpvLH1nsjgJmhtG9sl40MtcTsK9cwyrmowhLJPBBwxrMeF4Wsj9K5a3nYFGKdYT4gSHASrkhVMJWvxhgYEkCpBfHH6tkDhD3zzpkoLEEKNg6sbQFFsSJ117qmY/k+eX4C84JWFwseE2qTtxDxbxdLG1hfSIMXlJm3s7bNt5L5Yy9k62jMferDHpyr78rYN11RZazMRqWG6U9MoMNnxaKpar/shKULXljgRgvQXrD7jhhkRGEZTqSxhbVzUGw6sa8JJ5VzC1X8bsAQ7UYnp/v9MIjYgWMTQ8ieX0sBm149otfeJ2cGz2GWVGjhhIMfcA8oeEIxGiLn3xRjIjQd0jUTn6XIni9MvLn3cFbG3KbijDoxLOL5yBl1h1sRbuOoPYv//QrlaVFj5EtWnsrVr7+xVk09MZ/GSpKWNFi4wIskzDTtoXPCSPsAibBI3Dz8gqoZBVhbjSeVZ8yR+hVe2Jkn/3Tf30Md1Bm3fP30cCL7zQ2B0AdMAyClBqI6to0IFDe+uJgmJQ2+hgjGxh12U7PqByRe5d8ItcIK1fztWIg4L88xKikjgDUsavYMnnQVTNFTauyYY3r+uenG6rpasbJIGMuyRRnJHoCbvMmCnVn8yvV9FMYy5gNZvxrdO3L4Q9znBifqDQwnbKFnxlLEFQ8joi3smWgdcRgY71eKY/EhWlyOqwaYVgE83r88DxhqUj8JRM56L1whZc6R8XeJMxbm6n4mfls4cjLpXiOEnNPIKwHFGtV77pAxMFIJGbc0bIkAOdoF0soip9/TU4b8lf5/c9UzpICmDPWzYEwt+Viy1XPR933BiINTMboH89b5f/j/2o3ab7e2qlitJTLa0qT750mbZvVwT6SjKpHHVVdfuf4CMO4JeGqyTxnfb7kgvSM+wd8zIS1gqKJ8UZCclbWnhgogWliWQ3W2ibeeKXP84J56PIvFtdUp6o2tcGKXU+6SuMzWAlDvYm54oRrL5N0GAJ51gzXZISVammPD2W5huqTPFc8yFAGRjWN1xeq3Q8pgUEYP9tYEpIw5UKe53/As3SJtS+x554qy0dUzXj+FLMEI8UzCkaoBhlKY+M5r7kOvCNY5wvrZVmn7F2rjAFWdYDNJAofeIISrrmUrLyRBH6CcysxzbAePXvX9FxdeQc+wnDHzQYx/rvx1LokZpg2tqCNSs0gZ3GBLML3N1aBkQ92tsE8XhWvncQcIdYc1kVQe8LC1IH6WEWK9ZMtQd1OmGhsbrD6idulLVgGl2Zt3m//ZLchNoYCNmB0TSFcK3Y/Kt+9rcHMtynttkVZSAzhvDSl6s9tzTKfBpUb5haxhMT/A92Y64NRCwwrwNDrUslBFYtddLCvqiyf4Q9hk4jfHxh0wLBDqcvM9WEuE5sgYJvC/LvniBQsBlBN3PcTbUAVDAtOGEFV7dzjY2Fq7kNQYbZDsA7sR9gRSOYmgyq0/0yYl4vgARl2fBKrVr/Bzv5L+6bKtWL+fPM2Y4ME3xzeM74OaBqIvznOrSyVNaHNgPXXFcnPAZ4rDN5ce/YF3HUJRaHCh3ESBlH1Ed4P5Hfl5MrzVV/+1k4POabZ2gC2RXv+TNMsWbZFf3SbGgF/BPyZpn+6PtcIdFQEwjtqx3W/NQIaAY2ARkAj0NoIhMycZmsD15btFa5fZsyfOpqoZm3L69Bthy4CmNuCz0fnxhqL9dC9Wn1lfyUEtHr2r3S39bVqBDQCGgGNQJMQ0OrZJsGnC2sENAIaAY3AXwkBzTT/SndbX6tGQCOgEdAINAkBzTSbBJ8urBHQCGgENAJ/JQQ00/wr3W19rRoBjYBGQCPQJAQ002wSfLqwRkAjoBHQCPyVEPhLLzkZdNUs2R4rf9WPlP0je3vQpBHQCGgENAIagf0g8Jdmmgn9Pd5KXOx3syWZZq8zr6DkwR7vDupebPvoBSpc97s6bdMjturCpt7VvM9j/vSHpS+JN18l22MVPf4CwSO7P2HjZvh0dO3LC+g93T9/ez/Htl3Jd99M2Jwa6wvbirAJunUw73/qpWq7kz1A7PbxjKLS9LHxCGDLOWz9pgib6TvxnDd1e0FVYSsdYyecwU69D+S9Yf8r7tqsgwZS/BTeHH39Ztk0vZW68ZdqJuSY5vBbnxDH00WbltOfb3u8jzT2jtpSu9Dgaz2bS+/88k32kNK4XfSxLyw8sJgpKindfNqm4bCoKI9TWNMHA54w4AxXXBMFYJqpc+4WR77+vvLa9EKa0Dh8F8JrQmSPbk2opelFsYds8n231qoIjn0LH3mGHCvX1UoLNiLt8dmydy72gv2rU+ItU2VQ6I+D+Al99LnW27vVvwN+5+IE+sARlDP1dvbs4fBLZTdb7DUGz4yFB7Hoe0RGmpyHR0fXyqsjmgeBkGOa2JQcTpGj03vUi9D2j//NecJ8vIKYC4Wzc2ls1g6yJqaZkxoUhj/OKO5XXI8B1PnI0xtUtj1mhpSJTcJB8GDRMMex7fGK2l+fxJvKux/xRzBdnFTDlVfK9Nto3+W3ELxHNIYiumRQOHsZ0VSDQOm7H4vLtqgxI9hbzBCyHXkIJfBG8M3hTLqmlcaHIrvzZuj8jlGENj9pPIrNWzIkmCbcd8X1OkCQUe6vImPjKXHgSImDh5KyXR7fbpbYBIphyQ8EryUgZ2mRHNWfNamTOG2OZg8niqIzuhv1if9O3r4ujB0LJ/QfLlnEcwj79Ay3WCm+z2CJK2cH1fCgUpq1SX6uirKgmCaYfuKA4RTLTBZOsYs3rWCvJOx02I9srMo77LDDJTYrawdt3lzjEswva7Oexhx/lNRnX7aKXRUNE8excGWkCJt1Q/3lZPdT8OaBPPAiYf91OVUH+GjDoXM1O2eGY2J4h486eJSoIysW/8/HgwV8QlrZDRa8KsCJsP23FbXSLezTD+3i3kQdOloc9Fb++Gtt7wvsFQL9wigdqqxqp1N1v9YxonM6RbH7IUjdDs4LN1D+BMe7UI1VwU1WTh7nH0wWlgKqtm5n35kNV8O72Xt9+ZffSTMlr71HGW/Nk4EKfHBWfP29xItXC/YD6dxQs1VdeGKCBx92fSWOjBkzYAIKw4c3yiKuxCSC/+AOy5Bg2GOFdVimYALtg5O9sMC9VKB7hvIYPNnYxRncPcFJtHhPURU38AgvLHDxZGGPIxgw2H9f6eN1RBw8B3tvG9A2pDNMP5T/dxHFnHo8uwq7SNxx+TPN+p49NInnA/5UobGAhxPHuo0BXchJ94A1pMSBfeUZBXaGKy9Oi2IHz1Ina3tAYOjVFR4PS1VZuwjOxDW1DQIhwTRje/SnzCnTfRCMYhdYKg4MZ/mcqyQdTqL7jL/GJ2/B6p9p46sPGnFdxp7FzO004xyBlGGHyw/hnF8X0Zb3npL9X1UbOb99Q1vefZKiM3oa7cK35a6v3kGRoCmmcy8adPX9omI2F9r19bu088u3zFE0YMAAmvPAAxK3evVqmnLF5T7pLXUSdTjPz7I/wOKnX6ZOLz4qjnbNTNN26IHsA/BScucXivd51Q98fHNvnV7L3Q/mU/ERcGXnsENhz+AHZeDFPe+O2VIcDogTb5zi48Ud9eXdOdv4MFmZCSZNu5qc7NvRMqCvalb8PuZOm27kwxxu2mOz5OOmMqGvgSjhysmGb0yVDl+U6Bf2V1UUycw+ecZtVPnz78Iw0YaiUvZ8D4mmKYQBhXXYIJlHVvXAtyT8fe4df4WKomge0MDPJfwYln+5WAYggps3RxgPFtBPRXm3zZTBCs7hygu+Is0Ehgg/h3DxpQjST+ojMwgDBTOVLfhUHCGb44IJg/mmzPy7TAcY+fn5Kpr7gjjORlyw99Yo34gABmHETDPMFuVTOphnD46q8cz7EwZM8LNpdtUFiR8Oq6E9MJP9t+VUMHuutG++R8iTdMcNRtayBZ8wzu8b5zrQugiEBNOEBOdkaRIESVKIXzonO1oGwaG0ImdpYe28KtF7dBTukzzhLPFF2GIk1l3FXu7ZCTPInr9Xjs3+xyPMzKmzDIYJR9aQOkFwB1aatbFFjIeqy8up/PNvqJq9nysq+/AzYSoudmBsJoymIT3Cj6GLpSHMaYqfRpZ6zUwEZcLZUKj07Q+p4psfxAN7zGknCFPDh9qfItLYByGroeCUGZt8QwKM4I8zCJIe5qBgpCEGD/9byo5qj6XoE8bK/F/OFbf4VAeGCekS1xQ38SyCJBt/8UR2zvyo5Eu4/AK5Nozsi5jxW9kvJJxD+xM+hOizm53glr61UAye4ieNFw/2CVdfzB/15/2LEAYMmH8s5jRXTj7ZDh/TZCMeGAdZ4ByZqWLxj7Xa3F9EJWOlnAKnPX6/SIV5f7/fKALJWBF8cZZ99AVrBP4QrG1jD2P8zhQDqexJ16hsjNUUYZhyb7/6jsNRwqzNdRmZ6wuwRiBl9p0ESQ59Lfv4C5GEY/92BiXefCXZV671kTjru7f1Nbe/dNxrkNM0QAj22YODcMfyNdL/qu1ZIt3HXzFJjHTwrMLATFHKrL9TBPtnxfWWvvMRwc9ozHFHUmQf9ofJJIPL6/8h4aTbrxVn1Lhn6v105ddImXi34Czd/scqyQ9nznjuq7Z7tGgSqf+aFQHPF7lZq2z9yqB6XTbzEmn44DnvCaNB3OonakbUqlcFa5YSfqBDHlqoon2Oe77/mPCDQ+thN3s+tHsWL6wl6fkUaoaT1BFHGEy/aONy2vDSbIrrOdAwRup1+mU+TNPOhgEur/FOaYlngNCYbkCaKJ73qk9RMKdAFH3M4RJtZ4kKBDVa9AlHsUrrIKpYtETi1F9V1m5hmjgvfuF1mS+CqhBGN26eN/Kn4pffpnKv93WzZAMmB4I0iw81qOiprfIxwUcUP0iXisDICx/i0T1T0a5skYbB2BWBGUBSBhPFtVcw44DaV12byhfHEhuoYMbDrKrcLuG8NXMo453nKPqoQwIyTWTKu22GoQ52rFkv5Rr6F9m7J6X88y628EykyG6dpXjFt//jD2Rug6rC9VXt3C1lql1ucQSszv0ryrt9lk8UJGRIrhgkQXJWH+2I9E6SDwxOxUGF3BiKZmYBhon7V/jwM1KFqJt5ABl3/tkUy4ys5PUFRtX13VsjY5ABDMYwNWDpw/P0GPg5nFTC160o2GcPKnOlNkdZUZ/ygCDpjutZQzDYYJqYOwXDhOpcXS/y+0uO6h4p1ThUsiqM/IqgXsZPEVTN/u+yStPH5kEgJJhm80DR9rXAUEjR3h8+pWr2wl6ybZ1IvZCgraxyNtPGDRvoiMOZAbQiQVUFqljysxzxwoJpRh97RC2m6WApwUzOTX9S1JiRHq/2pnk4lafye0+d6lwdob4DxU44nWLPrVGbh/F8HgjzQmamaTfNOUIaxkheqUsxdxZmtQhTA0NRZF/GzN87IJA4VmPiYw5KmXOPHNUf6gCBmfjPLUEqxZxmU0nmSDP7G+poSBDFz73W1Gr3Wz6ya2eCdGTp35vnT6NZVRAm820ohHlql1cTUfnzbxRz0rGU/uJjMq9s/30FVeDesbTVULLiGpkwmMp49wWjuMy/8lkk98VM+7u35nzBhmF1KsRMGlQ87xWfOeKgnz0uH3v6OIo55XiP4Q4/m2HeOsPjPc8R6secLcjhlQzlRP91KAQ8b3+H6nLodtYSn2JcXNnuGsnJzgZGYJrhkRYjvS0CYVarSHdoO/GaSz1d8Fr1WaE+xEeCJThFGE2bSY2Usb7T3+wGKk13cWBpWc2z+Uuyqm7npq0qKEfMjfqQu6ZPWEYDgnRhpuriUvOpMAlEiCTKBkmByL8O5DGMOQIVaEAcDGswb4q1hLLsgAcbUNUpFXMDqgoqKwYCqY/yPCVLWxgIOFhFi3tiO+JgmWtUAwVUVjL/HRal3BR94tFi2WtjqRvq6oL/e7zBS2LCU5Klf8Ctym8qAAlONpAx0/7urTlfsOHcm+4haESwxCr57ptk3hyGYaovwT57idddJtMFGKBVbd1BGOSEx8QIPmbsMA0BcgQYNAbbZ52vbRHQTDNY/MPCa+WsNjEINfcZ3alGDehfwO2oMRyxJvsaASCvea40od8wyvvje6lCLZ9x2WvKIyGSP3T9+3tG6nl5eZST48cspHTz/dkOG2MwRhi+GAQcYI3KFn/25auNaDBHM4XHexgW5vr8aX/Wqy420oGKsvS1BaLW8i/bkHPUBYKK2EzhLDWayV3A+fi60C9/S0pzPv9wIEbqn6ch5+7CYiqY8yRlvP60WGbCutjJH2UQ5tGIVYDmwYqlr+m+NKAhSPFgmNAcFP7rWaOkj/TtjcXgp/j51+QHCTFu8niZh8S8caD5aqOyAAGXzKkOY4Ofn3zUmwGytlwU32doGjCfHs9TATCcgoEZKNhnzwYtBdeTM2WaMYcNqRMDCjNV7c6W06jRw42pCHN6nWGv1Fpnuk5oNQRqc4JWa7plGoLBDii6c0+ygYEFetgQZ44HQ/SP4zpgNKQoefAYz3yjqZyrsmZeLr43m8snJFPGEaepIrWOdl6moiht5FhZ1mLuR9HmlSqZuo87XzZE6HrseIrg9aKgimzPx1JlGjRoEM1/5VX5zXngQRXdYkdYs4IKH51H2eddZfxKeC4SBDWtmaCKNYhxU8YsmJ9pCEHqAsWccWKtYv4WnLUy+Efwh02WYjBDl40bvOnRYw/1zylLH6CitfTrVSutwe3WqqEBETxvrebZEqZebBTEDk54ftSSEiRg/qxOYikI1rZmyUfljUhLlSCWoCjCLklKra3i5Gh6B2DVW8gSJiiyZ3c5NuQPhj4gGMvUIh6IYTDWWlT2yZcyb2hhlTEGJ6Cgnj0euABTDJgwyFGkpjLUOY5qygLGaTLgMSWq6QBTlDH3b81kTY6mdoFAyEmaFXt3yJpNqDJH3P60gAxmtXwOW18yHfIgT/KbXnrEJQ852BPPYez6s/X9ZxAtayzBhFFXTJfeNHr6KxKfs/Rr2rKA6+YPMKx2oTq1xCXS6HtekvS6/rD0ReW3JqXR8NuekqxlO/8Uo6XizasIazux7ASbNIy8c55PVVsXePrlE9laJ/g4e5eD2JeydaWJKpb8IiP0KN65xExYlJ0y6w5ZNhBzynFicQmzevNcojl/XeGSF98kfIDizjvLY/XK80GYY4s6aBQvURnos+SirjrM8eVswBI36VxKe2QGGxYtlHkmq3ddnDlf0VMvydKAlAfvpfIPP+f1n1mEeT9lSJR7/V3m7C0ahvVl/OQJYrmLebYqXocJY6nIXt0p+R7e/u+LxWKcpNTPgToDIxEwhNS595Od5yXdlWwExZaWGETYV66RQU/8RX/zGMTY7RR/4fhA1VD6a0+JhbN9Kd9LWH6OGyv5lHFYwEJ1RNp/WSaW2GD8qQ/da0ib1qGDKIotjwvufyzgutg6qmtaNL/PMDbDkh0MTiBtBvXsscQPAyU878l33cjrcn/jZ3OkYO3fIViGQ/2L+9Bp3kNU9iEb3FW5xJAOS13UEitVDus3sfYzcdpUqmRp3MXtOFgqhvpXU9sgEHKS5p9vz6Xy3VvFiKY5IN302oOywYB5rs5crzAyftkUFaxdqoLCVGtOPKEN/57JalhW0ZjKmPOsfeYfbPyz3hxFbqddLGnBUM3kNs3VmVXF5jzNFcZCbIymoU7zZ3pQZWL+C7sERXbvYjQJqQWL5RNvuEKkIXzoCx/xHQgYmfcTgKVt7i33iYEN1IWweITBChbDy36hqqzCVB39473n+DDC3B9LYhKu9cxFQT3noZp7iU0MZI0dz99BfZl06zUUd8E5FNm5kyExqCaM++nftpEh2IC3/ZpueArKcpvPJJww5UI5YhkMdgfChgZYGoL5QVjYesi/AtYQ8DIYzN9B1Y09S+NZrYolFSAYYclmCizZCdPg9amou2Yjh5r6wCCgXsQ8JuZbI/v1JseqdVT07Hypq6F/eX+fJcs1YCSD+4GfjSV/zDO7lVGVwlUdVSP+5yq+kUfsOwwLWjA1PMvBPnsFc57gPYL3UhRv9oB9m228lhnqXpD/u5k//SFhrFinic0UsL4TgzZsnOFPZQs/Ewt1MFQsicE9i+JlTZraDoGwHj1717wNbdePDt0y5jOxvyyWuZhVtk25qAirjWK79xOGXZm3tylVtXpZtdAbHw0sS7DyxxA7Ask8YRN7A3WhpX9vqmZGirWi/gy8IdVLXdi5aPO2WmtM/evBVoER+IiykYwYiTTCUtS/zmY5hwaAJU98mDEoaTKhPl636uK5t7oMs9AGsJNlPDyggIq2OQiDski+H7Ccxb2FJXJ7omCePbWOGbspGQOpui6CByhQA8MK3Mn3ThnK1ZVdx7cPBDTTbB/3IaR64cM0eaSsSSOgEdAIhAoCIaeeDZUbo69DI6AR0AhoBNofAppptr970uF75Fi/SXxSOti4RJNGQCOgEQglBLR6NpTupr4WjYBGQCOgGTrVswAAAD5JREFUEWhRBLSk2aLw6so1AhoBjYBGIJQQ0EwzlO6mvhaNgEZAI6ARaFEENNNsUXh15RoBjYBGQCMQSgj8PxAtZM621ByIAAAAAElFTkSuQmCC;" vertex="1" parent="1">
                    <mxGeometry x="108" y="60" width="192.45" height="43" as="geometry"/>
                </mxCell>
                <mxCell id="62" value="" style="shape=image;verticalLabelPosition=bottom;labelBackgroundColor=#ffffff;verticalAlign=top;aspect=fixed;imageAspect=0;image=data:image/png,iVBORw0KGgoAAAANSUhEUgAAAZkAAABkCAYAAABU3k29AAABQ2lDQ1BJQ0MgUHJvZmlsZQAAKJFjYGASSSwoyGFhYGDIzSspCnJ3UoiIjFJgf8bAySDGwMGgzcCWmFxc4BgQ4ANUwgCjUcG3awyMIPqyLsis3vfuQdMvv15ekWU9QY3pXSemehTAlZJanAyk/wBxanJBUQkDA2MKkK1cXlIAYncA2SJFQEcB2XNA7HQIewOInQRhHwGrCQlyBrJvANkCyRmJQDMYXwDZOklI4ulIbKi9IMDt467gFurjo+DhQsC1ZICS1IoSEO2cX1BZlJmeUaLgCAylVAXPvGQ9HQUjAyMjBgZQmENUf74BDktGMQ6EWCHQj1aeDAxMuQixhAAGhh0fQF5FiKnqMDDwHGdgOBBbkFiUCHcA4zeW4jRjIwibezsDA+u0//8/hzMwsGsyMPy9/v//7+3///9dxsDAfAuo9xsAqPZflUpwRJgAAABWZVhJZk1NACoAAAAIAAGHaQAEAAAAAQAAABoAAAAAAAOShgAHAAAAEgAAAESgAgAEAAAAAQAAAZmgAwAEAAAAAQAAAGQAAAAAQVNDSUkAAABTY3JlZW5zaG90s+IoVQAAAdZpVFh0WE1MOmNvbS5hZG9iZS54bXAAAAAAADx4OnhtcG1ldGEgeG1sbnM6eD0iYWRvYmU6bnM6bWV0YS8iIHg6eG1wdGs9IlhNUCBDb3JlIDYuMC4wIj4KICAgPHJkZjpSREYgeG1sbnM6cmRmPSJodHRwOi8vd3d3LnczLm9yZy8xOTk5LzAyLzIyLXJkZi1zeW50YXgtbnMjIj4KICAgICAgPHJkZjpEZXNjcmlwdGlvbiByZGY6YWJvdXQ9IiIKICAgICAgICAgICAgeG1sbnM6ZXhpZj0iaHR0cDovL25zLmFkb2JlLmNvbS9leGlmLzEuMC8iPgogICAgICAgICA8ZXhpZjpQaXhlbFlEaW1lbnNpb24+MTAwPC9leGlmOlBpeGVsWURpbWVuc2lvbj4KICAgICAgICAgPGV4aWY6UGl4ZWxYRGltZW5zaW9uPjQwOTwvZXhpZjpQaXhlbFhEaW1lbnNpb24+CiAgICAgICAgIDxleGlmOlVzZXJDb21tZW50PlNjcmVlbnNob3Q8L2V4aWY6VXNlckNvbW1lbnQ+CiAgICAgIDwvcmRmOkRlc2NyaXB0aW9uPgogICA8L3JkZjpSREY+CjwveDp4bXBtZXRhPgq1Y2sFAAA+uUlEQVR4Ae1dB3xUxdY/2SS76Y2Q0EINXUCKBbEr9gqIiu3zoWKXYq8g+Gzv+dTnsxfErigWVCwoKqIiIr2XQKghve+mfed/7s7du5vdkEIKYc7vt3vnTjkz9+zdOXPKzAlK6dy1ijRoCmgKaApoCmgKNAIFbI2AU6PUFNAU0BTQFNAUEApoJqNfBE0BTQFNAU2BRqOAZjKNRlqNWFNAU0BTQFNAMxn9DmgKaApoCmgKNBoFNJNpNNJqxJoCmgKaApoCmsnod0BTQFNAU0BToNEoENJomGuLOCiIorv1o8iOPSg0Koac2RmUt3E5X/fWFoOupymgKaApoCnQQinQ7Exm2MPvULAjvBp5Mv/6kTZ/8Gy1fJ2hKaApoCmgKXDwUKDZ1WW2ULtQq6wgl5w5+0zKJQ49idoOO9m81wlNAU0BTQFNgYOPAs0uyexZ+CXt/XWuyWASBx9PPS6dJJRMGHgM7VvygxdV+/btS+3atZe8n35aQJWVlV7l+kZTQFNAU0BToOVQoNmZzPa5b3hRI2/jCrmvqqoifHzhwYemUrdu3ST73HPOpn37PNKPb119rymgKaApoCnQvBRoMJM58dTTaciwI6oxhCA26CtGYbMF0fZtaTT7vXf2+7QdT73IjauKctf8Wa0+8GrQFNAU0BTQFDg4KNAgmwyYyMIFP1BBfp7JZKrc6ivFYMAUnM4ymjf3i/1SJK73YEo6+gyiqkpy5WRSxh/fVmtTUJBP5eXl5HK5yFVWVq1cZ2gKaApoCmgKtBwKBPk/hRmqKiIljViHa0gSUGN5JIoOHTvSReOulPqoCwZjCBxBkvftV1/QqhXLfcqN9kbdIIrq3JP63fBPRmujSlcpLf/XLVSWn20yLzUGLckoSuirpoCmgKZAy6eAW5Ix7B+Y8AHuS7UJ3igzGJCSVHDdtXMnrVj6FwsglW4GE8QGeQNn2tbNBoMRvEaeB4/RX1hSCvW5dhq3qaAKVwmtfHoKufKyqvUPxqX65RTQaNAU0BTQFNAUaMEUCFGMRY3R917l13RFm4U//0Bdunen6JhYrmowIperjL75cq40DcQSHPFJLMFMh9hElWUuWv3fO6k0a7ff7sD82rVrR7GxsSIVbdiwoRoj8ttQZ2oKaApoCmgKNAsFgjqldPGZ/3ErIoOXrKDUX2AohkQhfIEnec+4oTYbdfE4d0YQ/fj9N7SG1WSqim+74PBIGjj5GQrhK2DXgjlUum+34Me9MyeDCratR1KYCq5vznqLunXtSpXc8UVjRpveZVqNBupo0BTQFNAUaFkUCIEhPSCAg/hyhkCVud6G9evoo3ffpuT27Sk/L5dWLV9WQ/sgsgfbaeuCzwyMbm4VFBVnMC7mc5XllVRYuMTQ37nH8eEH77EkE0c2m4327t1DRUVFFB0dwzjczDHQ+HS+poCmgKaApkCTUyBo5MjTTQ0Z5nGA4i3GnfHt5gFuicKQTaz1POW+9a1Y/Kf9tVVjUS08dTBIT/9/LlnsZjJGTS3RKIrpq6aApoCmQPNTQPbJpKWlNf9I6jGCbu5NmfVoqptoCmgKaApoCjQBBRq0T6YJxldjF0oEU1dUtqZrbKwLNQU0BTQFNAUanQIHNZMRlZrSo1lIpRmNhRg6qSmgKaAp0IwUYCbjNsTUMIioqCjq3LlztRpDhgym7uy27AshISE0atSFlJCQ4FvUaPdWxqLtMo1GZo1YU0BTQFOgThRgJmMY0f21atOmDT3//HP09ddz6b333qYvvviUxrDbsILx46+mM844Td2a15SUTjRlyiQ6+uijzLy6JOLj4+mmm26giIiIGpv5EWKkvpXh1IhAF2oKaApoCmgKNCoFAqrLgoOD6bHH/kldunSh++9/kMaPv44WLfqNJk26jUaMOKbaoCC9KNi6NY0uvHAMzZv3jcqSK3D6A2tblLdtm0jjxl0qmy791Vd5vh5oKl9fNQU0BTQFNAVaBgVsgaSBnj1TqV+/vsxoHqeffvqZ1q1bR0888S/asGEjnXfeueboR4wYQZ9/Poe+542X06c/TGFhYWS32+m1116m3r17S72LLhpDc+Z8TN99N49mzHiYwsPDJH/o0CE0c+brjP8Hevfdt+iII44QxvLcc/+V8jfffJ1GjjzV7MtfAnKYR3IJLJX5a6vzNAU0BTQFNAUalwK2QNIAGERZWTn99tvv5ggqKiro118XUa9evcw8qMaef/5FevjhGTR8+NEs8VwtGyVhj3E47ARGMnHirTR79sd0330P0KBBA+mGG24g2Hkef/wx2rVrF91660Tatm07TZv2EG++LGRm9qTgnzr1YenP7CxAwmNV8qQCVNXZmgKaApoCmgJNSAGPjsunU0gjcmAlMxYrlPHx+ihTMH/+D6ZabPDgw2ngwIGqSK7HHXesXDt27ED4gPmMHn0h/fLLQpFo/vWvpyg7O5tWrlxFsMWAkW3fvl3aQO1WXFzshc/fDeQXK3vRhn9/VNJ5mgKaApoCTU+BgExm/fr1LIk4aMCAw2jFipUyMkzew4YNFdWZGipOW1aANI578Qfbt6dL9uzZn5B186cKn4wYMXl5ef6a7jdPSWNQm2GMSn2mmc1+SacraApoCmgKNCoF/HME7nLduvW0ZctWmjr1IYI00r9/P/EYg9vy11/PMwd18skn0oknnkDHHDNcPM1WrVplliGxePGfMukjyNjff/9NcXGxEj4ZNh6n0ymqtN69e7Eq7R76+OOPCM4BpaVOwQGcVqnJC7F5Y5z4jFvFbIy0VbYxK+uEpoCmgKaApkATUiCgJAOmMGXKHWIneeSR6TL5Z2Zm0rPPPsdG/vkyxPLyCsrMzKIHH7xfpJ6//15Gr776utfw4ZH29tvv0vXXT6DIyAi2wezm+lOpoKCAHnpoGk2ePEmM+7iHY4FSl/3111K67bZbJALmF18Y4QK8EJs3CIxm3MCJQaXN4haQ6HLeeIrvd4TXSNI+e4Vy1/7lldeSbiI7pVLPy2+XIaV9ymNd1zLGGhQUTD06nUIDel5CcdFdyOnKo3e/HlUn0iXEdKfRp75ltil15dJbc88273VCU0BT4MBRICCTQRcZGRlspL9J9qtERkaax+qr7m+7bZIkQ0ND3RJIqdyfffZZci0oKJTriy++RK+88qowIquNBXYZfLAfxpqPRnAGgGszmM7+wC9z8Zu5P0yNUx7ZsTs5EpK9kDvikrzu63PT9shTKeX0y6TpmhfupdJM/3F46oM7NCrGHLMjvm19UDRKm8G9r6Tjh97DoR4qKK9gO78frjr34yovpn05a6Vd5/YjKMwRV2ccuoGmgKZA7ShQI5NRKMAAfJmAKsMVzgD4AGDHuf7668QZYPPmzZKHLzCLQDgC5cNOs19gZuJXMdaCRJrtc2eSI7E9RaX0pHbHnrPfR6ptBUdsIoVGGxNksCO8ts0O6np9up8v43/+g8FUXmEsaur6QIXFe+jTH6+RZhPG/E720Oi6otD1NQU0BWpJgVoxmVrikmqws5x77gV1adKwumAmboYCZhNsD6OY1MMosmMqVVWUc9CzdVSwZXW1PqI696Lobv0kZHTBllVUtHOLWSeifVeZvJ1Zeyj+sKOpeHcaFWxdQ22HnUxBIXba9+f3VFFaTLaQUIru3l/alexNp2BHGNcfLsHWclb9wZE+DdtSYfpGwqeipKhWTCYoOIRiehxGGGN5cQGPfw0V79nmGV+HbhQaFUthSZ3MPDxLSCTi6hAVbt8g40M6yBZMsb0GUXhyZwqJiBZ8mX//RGX5OSj2ANMwrvdgimRGmL/Z267mqVQHfNyoPccV6tOnrzRfuXIFq1YzrahqnQ6zx1JymwFSv01sTyovL6GOScPkvrzCSTsz/jRxhYSEU7cOJ1J8TDf2jiyjPZnLaec+Dg3Okk99ITQkgnqkjKT46K6UV5hOW3bMp1JW0/lCbFRnSml3NEWGJ9HufUtp+55FvlX0vabAIUeBA85kmoeChhMzJtPUy27nSJtRPKlUko0na3iawZ6w4Y1HZGjBYRHU59qpIlVYx5q3cTltmPlPCQGdOm6STMrc2GRgZUX5FOqexJOOPIVW/Ps2CkvsQH2ueUjQgAlEtOtioiwrzKOV/76V0K4uEMEMpO9104QhWNvlrltKG978JzPOCkodN4XCkzpaiwl2HwUbZj5KOWsWy+2wGe8JM1RluHY++yrKXLqANr//jGQHsUdgv5se89BkJHkxNWvb2uBT9S+//AoaPWaM3L744gs08403VFGdrl07HE9njPi3p40tlC482bD9QW327LsGI4uO7EDjL1jgqedOgTF8+O0lVFSyr1rZ/jIuOOlVQv9WsPap8k8a9iAN6n25upVrZu4G+uCbsVTG6jkNmgKHKgUC7vg/WAgC6YU5AU/KUdTzyrtZmmC1ETOYoCAbufKyRJWmmANqdh97i2cyBRPBhyG25yCeqA0VimTwV1VlhSmNAAfwASAVQNqwgjAYNy7kQ9LofM7/WavsN43Jvu+Eh00G48rN5Oighhoyrs8QSjnDmMRKM9KFeakyIIZkBYaGD6QfBWC0qAdJCoyqwlkiRYlDTqToLn0k3faIUz00QQ4/h5VhSiX3V23wWesfiPSm9O9o1twz5VPB0omrrMi8n/XFGV5dZOdtom9/u5te/+xkYSxpu36m2KgUGnn0o171anPTKelIYTBgTmBSL80+mj5bcB1tY5xWGJB6sTCYUmcu/fjnNPp4/pUiySTG9aJTjpxmrarTmgKHHAVCoGnq1q2rddEuRMB86dZCmWUqT10VtdR9oCuYAM9cqroFvydftVWVrPcq7XtVdXHtcOJoYSwYbA5Ppls+eEYmVHtsG4rrM1SqQopJYPUXQEkaQazyGnj7f4U5JbEhPW3Oi1KOr+yVv7MxfRd1PHWsTNQrnrqNhk17W8rBRKyAiXzFkzeRLdROA6fwsThMPKjO6INnrdVqTLc94hSRwlBp14JPKP0rwwNq6NRZwniSjzmTtn/5Jm2Y9bjg6TTyEuo48mJJr33pAS+Vn2Ty18a3n6Sc1X+QjdWI9ph4CmvbiXpddbcUx/QcKOrE5OGeiRr18zetoAGTnibQzhdqg0+1gcegctwoKTaYmyqryxW2l+w8w75XVVnOP3G5eW/FU1C0i5mP4XSC/PzCHfTVwol049ilrG47zFq1VmlIRgCo43ax+guwdecC+ciN++vYwbdL6pMfrqaMbEM1+9Hey+imS1ZQr67n0LxFd1ir67SmwCFFgZDFi/8wpn/M4H5A5Sp2gCsA+f7ypNBSFuhe5Qe6KtwoV32add3cz5ofmZIqEzsm9x3fvGuu2CF9ZPzxrTSFKkpBzurFpioLqjJhPtw2jA30CsoKcsiVny23kABgU1EAlZwVilhScOYY6hgwprC2HcVGY62zvzTsIQoSB59ACf2P4meyGdIZF9hCHaL6skowqn6gKxhs6mVTxDbjW0d5vIXGGCEZYMPKXmHYEXBtd9y5vk2EYe8Pn2oEFRk+TQlQbQ0fOJHdm1PYO9FzindoMEu4dYSN6d/QaVWPUa8uZzG+zpS26xdau3UO5eSnmZhs7FLtYJsRYOxp75v5SASzWg8QFZFMhcV7Ja2/NAUONQqEREVFyyxu5TFqx7w3MRRbUbnWe2s6UDnyrWzBXz2V5//q5i0mHuuOfrjcBtkM/CWsTsIzWMuBESt5BcW7t6oklezeRuSWcOxxbc18L+nLSiCuEcSbRmEfUVC6b5dKCrMBkwHAEaHCVWqW1ZSws7eYAn9SBMrAEJzZtZuw2h13HkE6UgAmUs6MUklhNnZiAMBhAWC1HxXvNY72kQL3V23xWds0ZToxrjfBhgJ7XE5BGhv957M9pIQG9rxUmHVdxwIHg4+/v5KOG3K3SEJJCYfRkYfdwJLMj6w2myDowsMMBo26a7d+5rcLjEGDpsChSoEQrPwBuCjm4j05MwMRHoIKbjJJE+thAcZRLkY7ayVUlMboAR24ERi3xo0brzEAsyupLxVUG+lUcowhG/dqrM7sDIpISuHyKvEa8+dRVpq5x+iSv+GNtXfR13If1bWPmV+6b6eZrksislMPs3p4MsbBwM9rZTCVFmZjj/cwFKMykTML+1wGy+2uHz+movRNqsi8KruQmaESLPH4QoeTR5tZcGrIWfMne5odbjorqEIwHjtLSfZoDxOOSumlis1rbfGpBrGxseJhhvv09HQqKvJIgqrOgbyeevQjgu4bVk+tS/tC0pAiBvW6LGA3OJ8P9rtAsCNjMb03bxRLReE0IHUsjRg0mbp1PImS4vtRRs4acSYAU6uodNH8xQ8GQqPzNQUOWQp4ncKMCRsTuJrO3dO4cCCZzFEu0oKq4aGbtOVbruH+VnXc93LhL+nDyDN6MvKACbgNpoFyA0x8amwYoDlCVYuoaNt6I5tddruNuoFi2LUYhvR4Vjl1Od8w6JfADdjN6LADH27CcX2HSl1gwkpfqbw8mGuXgttzm0HHUtJRp5m2jPKSQq/GzpwM8z7x8OMNDzF5HiM73+JqHZM6kIp2baXsVb+Ld5w9ro24U2OMCsqK8lRS3KthD5IfUOVamHpB2jopSx5+pio1r061iZPHknLmFez+3Z3aHH6sWW4maolP1b/uugk0881Z8rlo7FiV3WjXiDDDhgTGoKBf9wtV0u91b9YKgsorPqarn3LPewhJ5e91bzLzmiv1OiWzKtMNBcW7RWWWlGC4s6t8XMGcNGgKHMoUYBcpTOyYey0SA9+rv5e6gkhqPlTXQIRTbdTVqOetvvIu82Dyh9tT15Lyqbj7l8+o3YkXiP0iLLEd9b1+hsFQuB48qwCwZez+5XNqf/z5Yt/oO2G6p2NOpbMtp97A/cBWYYW9v31jvRUGBpUUPNXscYnscPCclBft2Eyrnr1d7CFQhcFWgo2bh9/9ojA+5cnmqyYTxuHuAU4B+ACU1FKwdTUlDDhG8gbf94rsCfK3aXPXgjnU273fp8NJowgff1BbfP7aNkUe9sTERHakUae8SUvXvi5eZcP6XVtj12u2zKHufEzNpWfMYQbyGW/wdNKiZU/J9cjDJrAUdAWt2fKJnBCQlNCP+nY39oBt3/Oriff73+/jPmfSxad/KP1m5qyjON6n06fruSxXV5GvB5zZUCc0BQ4BCph6AkOKMSQJI208vZrWlaSCXEPa8FwVnRQOVQdtwQvk6mZmCp9Rx8DhwWdgsvIPVV/hVlejpue7kk8HWP3MFHKy0d1L/cHMExspFcA7a88vhipF5UG62fndB7SbJ1uAYrjCd03ma9b2qqNysRcHLs8K8jevpJ3fexuCUbb+1WmGTSUA3lXP3kF5G5YpNKarNHDnsdeXFYpZ0hEnB3ZfVhKatXzLR/8jpf6D0wAYjPcZZMbCAnlKdSjteWyZf/1oolL0qC0+1bCS1UgmqDWMmVH/hBqPLwaoq+AJhk2Tpx41g47oP4E2bp9HcC0OBNhYuSn9W5Y4wth2M46G9LmaVYeGU0d+4U6CzQV4zjr2aRrW7zoqLs2kBUumE/bAKMCmyy9/uY1//3Kpe+ax/2Hng1splp0F0vf8pqrpq6bAIUmBoE4pXQ7g379paQiGgwlHMSnVOyZTqHwqXE7CTny1816V44qd8OJtxhNh8e40WeVby2uTxl6SAZOflqo7589mRvW+7NKHdxlcpBsCcCwA/uDwSMJ+GUgxVZWWSbsOyHH2mKNNO4LEhP00gQAu3pHsgYcTA2ryYKstvkD9NHZ+SHCYnBCwN2tlvY+esY4RqrToiA7inuxvp7+1blREO8IBnIUle8ULrSEnDVjx6rSmwMFKAWEyarLe30MEqhcof3/46lqu+lFXtEe6ucCXyez45p3mGoruV1NAU0BToEVSgDdjGpO0uhqjNGK0WCdz5HukBgg/nsldqS8UDqMeWhh1/Jd7ylQ7tDBgf/03L3NRo9RXTQFNAU0BTYGaKcCGfyso5mE4A6CkOgOQXGujanV829R0711W2/69um+2G1d+Fu3++TPpP3et55DGZhuQ7lhTQFNAU6CFUSAopXPXg9Ym08JoqYejKaApoCmgKeBDAdO7zCdf32oKaApoCmgKaAo0mAKayTSYhBqBpoCmgKaApkAgCmgmE4gyOl9TQFNAU0BToMEU0EymwSTUCDQFNAU0BTQFAlFAM5lAlNH5mgKaApoCmgINpoCPC3OD8WkEB4gCOLGg8zlXC7Yd896R4GIHCHWNaNoOO4USh57Idapo/WvTa9z5XyMiXagpoCmgKcAUaNVMJnXcFD7mpSeVZu2hda9MPah+cEd8kpwSjUEjNk3BNj5FuQkgpkd/s19EDSV3+Ocm6LrBXTgOP4yirhhDrlXrqOCN9ykoJIQSHr+fqlxllH3PIyb+4HZJFNIh2byv5KidFem7qLIo8JE7ZmWd0BTwQwH7YUa4ELx7VsA7WeV0kmutcUivfWBfeS9Rp6qCQ0TsyaCKjEzsdLc2I1t8HIV2S6Fyfi8r9hlh370quG8ix5xLYcOHUtGcr6l04R9k79uLoq8ZR2XrNlH+K2/7a9Lkea2ayYDB4ETjkAgOzKah1VMgmBlHaI+uHELUrQVmJiP3Pk8edckFFH6icTq1tah85x7KffQZKt+BuD4HDyQ+M4MqC4so+75HD55Bt7KRJky7Q55oz+jxXk8WP/V2qioppb2XXi/5CdPuxA53rzpVfLhv4ayPqOhzz6nteD+jrxpLxV/Np/yX3/Kqb72x9+sl73ho1xRhMsHJiXJvC285ISZaNZOx/hgHW7pg+3ra9vlrMmyc6NxUgNOYi3Zuke4q+YDR1gylvy4m1/LVFJLajcKPPYpCOvLhlo/cSxlX38ZxIep3GGlz0Cu4fTLZeCLTcJBQgKWW/BdmUlBkJIWNOIJC+f2L/selVL5rDzmXLD9IHqL2w2xVTAYhi+P7HylPn7XslxqpgHgt0d1YdLWFUOGOjZS/eVU1kRUIwpM6crCw4YILpyvnrf+bKpzVw+mGcmjn2NRBFN4uhcoKcil37RIqVcHA3COJ7TlIVjE4URmnNCNwWlhiB8rfsoryNxmMJCyxvUhfaFKSsUNa+vaHvnA4J6Bg61qOPZNK0RyArZADt1nDBEgF91d4cmcJzoaInE5WH2atWEQVHBFTQVTnXoRTmAGqX0R89AeQDGN78bNyJNJiDgSHPq2nO+OUZhV+GmEW8NwRbGMC7XDCsy+0b9+e+vTpK9krV66gzExWHzQBgMEUf/sTEX8KZn5Aye++QLbYaArp3JHK09JlBFBbOIYOpODktlSZlcNqjw1Uvs34XaxDDHLYRVVRvnuvqDccA/tRKK8yy7duo9Lf/jKr1haf2SBAwhYVKZMTioOCWXJzhBJUMwpcazawmtClbuUa2rM72fv3lvfcuWxVtefAZIfncLGqxTGgL4X2SaWyrdvJ+cdSLzy4gSoSqp/QXj2oIjObnH+toMqc6iEVQniFbYuNEWYe3CaeJ1X+f/J4SxcurlEN5NthUEQ4hXbvQpA2rf2gfywIyjZtlSaKLmX8GyFooePoITLW0kV/VusPz+oYNogXF+2pqqycyjZskd+3sRcYCNsu7x2PuGjOVxT/4BRyDBlAEaedqJmM7w/fku7j+gyh3lffL5M4xtX57Kv8Gq1xdH6fax6SoGDW8SNq5doX7zcjYyJMcc8r7uIYLGHWajKZLnnQO5xvx1PGUKfTxpl9o0GXc/9BaZ++7BWnpc+1UwUXJubwpE4SbgAZHWksLX/yJo79skvaxfUdJvXU15YPn6N9S+arW0o6ciT3d6ncQ+qAk4CCvI3LvexPCHjW84o7haGpOrh2G30jLX/8RrZXGaqh3uMfoJBwI46KqofntDIP5LcZfDz1uPhWc+zIQ7TOjW89IeGdcd/+hAs4gNpZSAr+sDbtJd1p5CW0Zfb/aN/i7+VefV1++RU0eswYuX3xxRdo5htvqKImu1bBLsO67+C2bUSiAZPBnz7mxv+rNgYwjdwn/+cl7YR060xQjZT+/heBwWBSVFD47idU+OHndcKn2ga6Oo4cTLG3XmMWIzQE+leQdfs0c+LFWBK4TCZkdwUokDHR5T/voXX8fRPJFhPFK+q9FJLSQaESJpPz6LPmPRgH1D5gyCbw6jzv6Veo5KdFZhYScZMmUEiXTlTw9scUfflosyzqstG0d4xn/GZBgASYQdzk66nwg8+o8D0j7hOqJsy4W5hpxuU3SUs7T9aoV7ZxC4GpKoi+8iLKnPyQyVjxO7d95d+q2LxW7N1HWXc/4sXIzMJGSmCxAybjRc9G6qs50IY0R6eN0WePSyd5Jnl+4RGkCx9fSL10sslgICEgbgoiVcLQ3uvq+2jlUxOlCfAJg8GfhyduBA3Dal9FqVR443oPpk6ne5gO8CF+DSbsEMbrD5QUIjFbWFqwjhPSD6Jn2kLs1RicP1xgMBgb4uMAIDUg5HTO6j/kHswOEpMChIS2sUFf6GP30AcMDjFnQpgJK1yqjbpCQkm9hOnj1imDuYAewsiuvIuWPnw1lRcXqOpyBYMBPdQzpjCtfJmMV4MG3MDYWTzvB55c0wRLVVmZ3GOVuj+wxUQLg0E9GFsBiN/jWrZadOXl29INtcb4cWJojTjjJNGXS0XLV9jRQ6kyr4Dyn36ZmVY2hR0zjCpz86VGffBZUHsloerDyhuQ+Mx0Ni67KOvO6WYdSFQK4iZPEAYDqaTwnY8Jq/3oqy5mpncCSxirqPRXy+GuzKxs8bEG8wmyUfS1l5HjqCEU3CaBKrKyxd6FiR04MAbYESBBRV50LsVOvJacK9b4naCjLxslTK104e8i2YCBNyaAwUB6wfsQNfZ8gmE++sqxlDP9KbNb/M6QJFyr11NwQpw8g2PIQIq9ZTzlPFydAZkND2SCpa3wk41Q5yUs3dUVSn5YyI4D+8j5t6EJKduyTZ65fNvOuqJqtPqtgslA9aVW4ViZr3p6CseoP45X6zd4EQ5qJkg8gOLdabTyP8yYGHpddY+o2TD5Q12FiR6TLcCVl0Ub337SXNFHdkqVfPXV+dzxKknb575BexbOlckpumtfslkmcbOSO7Hp3X9T1rKFcgepCSo2wLYvXpdPwmFHU0+euPcHCMqG0M2QMLqPMVZzCMMMJgN1QfLwMwwUzCzXvPQAFWxZLffILyvKM9Gvfs7oC1JK4tCTzHxrIuXMK00Gs+0LflYOZZ1y5uUcrnm0MKaOIy+mbZ+9am0ip1RvnzuTBt//GtljEig0KtarHDcFBQVUwSoEQAlLFPUF/MHKXpzlac448633nhJJQRoIiowQ5uE4YrDkVWbnmkym5PufCR8FFawug1NB3F03k31AP79MBnWzbp9qqmZcqz3eRvXFp/q3XsFUyne4mSF7KYGRqntrPVHPDTtcPOwg3TChpbh8+05q89Q0gneSF5Ph0vyXZlHpL8YixcGeS2AiId07C5PBhAgGA0kh98nnBVfZ+s3yXsChIvLsU1lqmW0dgqRdy9d4SU0Kf7WKByijMiePcp9gaZMhb+deavvaU17SGaTWzFvuNXuDBFP2rxdEZerPWcSseAAS4vX4yD0UFOYgGOyJGTsk55L5v9QZOzzK8FGA37Wmd17Va8prq2AyYW09on3W0p/FZpKx+DvqNoo9OiyeHFa1kiOhHQ264zkut7HE4RH7ES0TTKYwbR1Fc9x7e1wiDXv4HY6wuZ12/TiHMpcu8Pp9HAlJco9V/e6fPzfLCtLWmmnfBMImKwaDskB2FN92/u4z/1rAkoKLMpf8QN1ZBYbnVWMCw1TPX5i+0WQwwLP3t3n+0NWYF9HesANJ+0VfSt3dP30qTAY3kR17SJ71Sz0nmCGYjBqPtQ5UZPg0NTh48sVHQdnmNGNiYoYswLSMPGckRZx5iqzuKZSlNvf7ZIs2FiGqrbpWFhSaDEblmdd64DPb1jMRmtpVWgbZQyn5vRerYQlhd25fcP653MwqY9dbMBnYVQB2ttMAYL9J/vAVSeNL7EJ8DXH3Zxa4EyW//O6b1aj3TlZBKYAEBg8uqwoTZVBRRY0bRXBpx4SvwJpWeQf6KnRk5gKA91kuMziobFsjtAomY10dK6M1/M6hGrK6L0MlpgCqsGDef+ILDmYqgK1zXqbUSycaIZr5HobzHpfcxqqxS2nZoxOkDr6gegKUZnnUE5JRw5crn9UOBwhKMtIFE1QxFa5SVrGFswHfmADtcW3NXgq3bzTT9U0oWkLNCOMloLy4UGwyUJmFRleXUhBzBwBG2NJA9hawSqWqpITKd2eYq3w1ztibrqbwU4+XCaqcVU2QlGwRERR23FHmXgdVV11990mofFzrg8/avj5p2B4AFaw+gyrLF6Da8wL+XatKPZ5qStUIqRhgS4iXK54T3lC+AKbkD6C6akqAZOIFle6FgzsTdiUY3GWeYGeCsg2b+bmdvKA42e9CyAtXA2/A8GCPguNBxNkjWY13ESU8dh9lXHmLl52vgd20mOatgsk4cz3eSJHsaZW1fCGvrIK9GAwoDruDAqiNoNryBaz4AZBcVj49WZhM4pATRIWkbDcx7Mkl3mhcr8KJiT2MwlmaQp9q8hUkAb5qUydA02rZUV36iMHdFgobTriUlxcZE0dJhkcvC5VcQwHMMTQ6zmBk3BeYDRiZslM5s3mirgfExsYSPMwA6enpVFRUVA8sdW9SsZsnF1b7BIIw7KXhxcq+ayabdhVINWAygQATVSCoD75AuGqbr1RosD/kv/BmbZsFrAdmRTSADfy/eakSAzZwF2C13iBwL2qs0gjSkNB8vehq0w8YPiD3Py9R6c+GlAXvt4izTqlN82p1sLEyiCVdL3BLvdgM7A+g8iz65EuRFOGpFznqbCqa/YW/qgd1nrE8OagfwbCvqEdoO+xkce/tct41Ksu8Fu1k3bEboBbDpJm96nfKZvsFjPDwioINBtDxlIvYDbcDQbUFmwKOWFEQ02OASlIJe4oJ8AvV87LbKYyN5zByoz2OaKkz4MVUH9XY5ifPXZZ01EhxZLDan0r3GczFlbtPpAxUhSs2vLvgphwaFcceZ3fIWFUXZp/uP4bkq3G486wqwG5jbiTYuEQl6UYCd+X6wHXXTaCZb86Sz0Vjx9YHxYFvwyt36M7BNJThHp2EnzC8fn0daHzWUfDKGF5hGK8viBMEM0r7oP4yIfuWYzVdF1DSEBwfqgHUP24VULWyBmaIPYxxqJ31QAcni/qCLc6QusvY6K8g7CTDAK/u63KFmhT/ISU5oq3YW/hamW8s+gLhy3thphRFsfNEY9EvUN9NkV/9rWyKXg9wH5BQsPdE7e4fMPlpvz1AtZPxx7eUdNRpMtn2v/lxL88sa6N2x5/HqrFxslqHxxT24CiwTrZbZj9PA6c8I0XxbKzHR8GO795XyVpdYQPqd/2ManVh0FdG/fWve5dDhdX/lie82uyc/5F5v/2rWeIWjQwY5vFRsPN7o16Xc6+mdsedp7LN67Bpb5vpP+68kHCGWvLRp4vk0mbQsYSPAkh0u378WN0e/FdWP8J4DE+r+Htu5b0uS8hxxOGyd6ReD3eg8VkGAWMv9rS0eXo6OX9fQpWlLiphryqcAgA9f/GX31ME25bgslv08Zfs/ZZvbEA9aQSVskRSl+NHsGcGJyLAJtPmiQdMacZ+WF9ysCddzvT/yJ4Yy/AOSBLqSkiVoewqHnfHjeJNV2+GzyMqW79JGEI8u2IXfz6PgpPaUuTos+s91uKv57OL9hj29Jth7NxnZht53umCr+izeTXihXSIfU3YvR954Vle0gwYqZVxKURwi4e34MEArUKSAaHXvfawMARFdHiZOXN89LJcmDbnJfF4wgsLsLrrQkWmQNl2oIKCLUfqcZu9i77yMtSjzdqXHzS9z1R7OAJACvIHgTY5+qu7vzxfRwQwtqIdm8xme375grZ/+aYwUzOTE2Ccvu7G1nJ/aajHVrLnnvKEU3Wwx2jV05NMVWGVm7ZSburCvXXiqi2uldZNn4GrWZsckHSVOTb/6LA3BJv/4MIbO/E6dkc+ggre/FAqez0jctQzq6sflHXC56d9oKxcdpeGOgwnFsBbDPtRYMxWkP/au8Jc4KaNneWxvHcl8tzTWPIJNt2gVd2Az8UHpirIuvNhce3GvpuYG6+WT9jxR1NVfiFV+p6zVQM9FL7aXKFaKphl0B4bOuHlBsaPfC9Q/amrKvS5h+oQrsugGZ4hcsw54vIsEolqU4dr0ey5VLJgkTgXwMsOUglUeWDwVg9FQennvSt47R0pEmkGKfd4bexajcWN7yeYN5AeLBCU0rmr5+05WEZdwzihBqtkA7jvbvtqTVi0DWMPM0ebZCrLz5FNg77GaRj1sXMddohy3rsCGwf2fAQCqKHggeUCPlZZYf9KY0DHU8eamzFXPXuH9AXPucL0TTWOT04TYIYJ2oAxNATwrDjdoHhXWp2ZVUP6bY62cAOGvh7eZ+rP35BxHGh8tR4Lv/PYZGmLi2FHAD6Y0Zch1BqRURHquRDehQ/PMkg39Z2g69It3KdhtMdv0WA7D3ccZLfzps1ubJvbWi/bju/YoX7ExlxiGw32VgWyx/i2a833rY7JtOYfSz2bL5OxSi6qjr5qCmgKaAq0BAq0GnVZSyCmHoOmgKaApoCmgDcFWoXh3/uRWv9d7rql5mGWrgaqvVo/tfQTagpoCjQnBbS6rDmpr/vWFNAU0BRo5RTQ6rJW/gPrx9MU0BTQFGhOCmgm05zU131rCmgKaAq0cgpoJtPKf2D9eJoCmgKaAs1JAc1kmpP6um9NAU0BTYFWTgHNZFr5D6wfT1NAU0BToDkpcEi7MPe97mE51C575SKvMMnN+YPovjUFNAU0BVoTBQ5pJhOTapymXMFxZ/Yu+rrRftcu5433CoGMjtI+e4Vy1/7VaH3WBbHEgJ9+F1XxgYrZDz0pTXFWF44gyXvmFcIBjFawRUfJWUohHdrJCbMuPmxQoiNaK9UijZOBY2/8PyrgkMDquPVaNKNEPgjStW5ji4sAWJux6zqaArWhAM6gC+OopBLziCNf2vv2ouhrxhFCjNflQNPa9NXYdVodkxk45VmJI5O3cRltft84Hbm+RER8+n43/lOa7/j2XT7B+bt6ocK5Yjgh2gqOOM8Bhtb85kgHOTgMbI+uXkG7HIMHcDTEaD6FOI7IwmQQFz5mAodh9jnSvXzbDsq87f46DR/ngQUntyV/0RlrQoSzqxAGWYNBAZz8ixOXs+97VJOkmSkQe/M/yDF0EO2bcEeDzkLDicz4TyJcAMIrBycnyr0t3IgZ1cyPWafuWx2TwSGQCKIVnsQT0X5g2+evco0gr1OLrU1sHIwMh2MC7LFGxExreW3TiEfj4HFFpfSkdseeU9tmLa5ecPtkObEWh0QWf/EtlfDLb4uM5BNxR1BIl/3T+0A9EE5CrtiD4FkaQAH8LraGBgXTpDwgFAjpxAeQcngI4kNDNRgUaBVMBsfxR3XpLU+kju4PiYwmFQ0SJygX7TQiICK6ZQRLFgAVObKsME/u1ReiPSLIV7glPHN4cicTn8Sv4eNcEJI2JnWgNJOTjTmmDSJURnfrJ3nFHNAMJzwj2iY+FSVFtWIyYJKxPQdSJDMlBFHL37jcb9iCsLAwGj6cozcypKdvp02bPEf8S+YB/grn49wBCKWL4+MVOJeuUEm5Qv0Wyqfz4pj8ypxcswxHwxPHVSnbtNXMUwnUdwwdSBUZWVT659/V4p0Lzi6dpHoZq8pqOvEXga0QbAz9IP6I48jBEnisZMGv1Y+GVwPwc8Vx+ZCyEOsjpFN7Y3wcY6aU49Vbj5gPTkrkeCSJRghfFQWRJT17355UkZnNDNH7xGvgdXAkREiJLlZ/uCzx6K3DQHn4sUdSUHgYn+i7g0qXLDelTZxGjJguAJyCTI5QibCo2mPM1oiRwW0SRP3p4jDDHFuBwjh8QXD7JHIuXSnjVu2A1z74MD4Cvz2HD9hJzr9XVfstVN0ar/zfcAzsJ89f5XRKgDFEhHX+uczv6c+QTm2xMUILSLg4zh8TdenCxV71hXYIwMYq23L+fZ2gneUYf0SYrOJ4OginbIUg/q/YOeYOfg8VLRTl8ryH8/Oyarh8+w5yMo2tv60VR0jnjqK2svH4cMJy6e9Ljd+DT7d28JgEH0v/AMfh/fmUaOPEdtBRBV2TQv7CfwHSCv4PCGWN0N6tFVoFk0HI5T7XPOT1GyEGjMpDXJllj14n5QgqZo0iicwcjo65YdbjZvv2x5/PzMA7gFHCgGMIH8C+P+fTlo+ek/PDVB/7lvxAWz78L4Undzb7RWyXnd99YOKtTSKiXRfqe/30aqGjd37/Ie349j0vFD179qRHH3tM8latWkXXjP+HV3lj3ezv+HLHsEEUN/l6KvzgMyp8b445jIQZd8vEl3H5TWYeEhFnnExR40aZeTEcYz7rzuletqCw4cMo9pbxZh3YiTJvvc+8tyYS2L6EPzXivNv7G4sPlEPiyrprhrVqjWnEZQk79iiZBKwRGaOvuIgy/jHRnPARox31siY/ZE4WIawGxPM6lyyjnBlPm/3EXHs5x3U/1bxHAgwE46ri5wbYIiOoDavAghMT5F59IUhV1qQH5RaMM/bWa1QRM5pgip96u3mfdfs0L2aOoGWRF54p4X4RGEsioXJtxD6BmhNjcPBkG3f/RK8Im5hwsx98vM42N0zeGA+CpoFJqv6Inz/3if9JLBhzsJyI4xg3IbyIKHj7Y4mHo8qiLhtNe8cYzxk19jyv9wR1EPALtFPRJ+PuuIlgM8y44mavhUjkBWfIsyKAWMEbRjBBBD0TGlpUvwgfkHX3DKGHGgPCAcTddbMsMlQerlBR4l0OCnN40R5lcXfdgosAQirjuQS4r4QHJ0ukUiPD+MbCDXRpjRDSGh4KEkIZSysASCoCvLop48BcABWADOmywtzqdVFgAVduhtSxsUSBcMUAhGdG0C6AM3uPXA/4F6+I+kx42GQwCHwGqQaA4/0L0zc0irNAVXExFXMkRUwICoo+/UrsJRW7PM9a/PUPFHXphRTOERWx6kR8cqyYsRprCCAwU+FHX1DJdz9RBAfTQkAtTBaZt9xrokWAKkyEgDb/8l5QmJUsCUzQway2gGoNq1rot4NZlVEfAKNCREk4G8Te8H+E8UacejwVf/NjndBFnHaiMBhIYWC+WFFHjxstUS1jrr+S8jj4GAATP8YPCQcSY1VRMTmGHS7SlOqw9NfF/FyGdJ74zHRZfYMxKyjnydcfII48jMeFH88VJhlxzmn8pyhnqSGY4u6+WRhMwZsfiAQRPvIEwsQef+9EyrjKM2n6wxsoDxIoniOPg4Rh5Y6FAoKmlS7+22TS1rbRl42i4m9/4v5/l3cMNANADYWFCBY4uY//l/B8sWwbhPNIzA1Xcd5zUq943o8SMAzvEaJHKlB4iuZ8JVmQiDAOYulKjOtMT4SUDuffNf7BKbRv/CTVlPDbiJTNfeY9+6pI23aWVKIuPl/qgDFl3my8q4jaCWaJ30L9nyqyc0xceLcx5oqMTMrloHige/wDkyQgHgKxlfywUOriWpGxjyXJlXIPSQf/0fJt3k44JuIWnAhpwWOr9dCgCls67Sqpf+SjH8nEjLxVz3pWdgpZzurFhA/gqCc8q2xVjuvunz+XDwKgDZj4lBTtXjCnmiRhbXMg0m0GjTCZZN6GZYRQy1Gde5nOB13OudqLyThdLv6PVEjXhQU1xxGvaXxYrea/OMurCv54voDVIibbyFFnkWPIAPlUcXx51C18/1O/k4YvDn/3Fbv2UiF7mAEKeFINZ1UJ1BdQmyg1A/6w/tRs/vCpvHxesRbPNZw1EAWxvgCVTcFbH0nzwqS5BGkEga6ojkwmiiUeQM7UJznolqEeyVr9KCV/8BKFH3eUyWSgjgEUz//FlOZ8GRp+M6X2qeIAWVXMKNS9NA7wpVbqqhjqMkDYiCN4RR4mUpv67TFJh7HEBFUWGG29aMjvJ0Iy4z0pYbUhIjxCKsXzIpKkL7iWr6H8598ws0t/+UPSiFwJwJicf62QNPCCdghRrKCYJRVEl4w4/USTyUBlioVB2eY0UZuibgxHCAVgcSPvLqfzntsqDCK0Z3f+fbtzILMtwnQx+QOy7nnEbF/Cvw0+ChTtVSA1qMhUWtXBFcwPkDP1X1TuXsAhYmqbx+6X0MuKycDYj48CSO6+/1FV1tKvrYLJtHQi13Z8cAxQsGfhXImsWZC2VqQqSGh2VgFaYcP69TTimOHWrEZPY7It+vwbCVfrGDJQwtfiTw17DTxq6gPOVWu9msElGhNRSEpHk8l4VajlTV3comtCCVWGAujPAQhlXCfgFStUSICER+/3aooIkwDFVBGuF6Ge4267lpw8wbnYLoK8SpZoGgpiw/CDBLQGqAlcVUF9MJmQzp3qxWQq9mYKg1H48Czy27J9wx+UsL3LHyBMMqB0MdtB3ADGhYickBxgv4L9Dyos19qNYg+DzQoLE1EPchvFPNFcPBT5CuYF6U5BUKjxW4T2MphMSBdjnJXZjDvX0JaouvW5wmNTFggWDQEkS9iV8Pu3RtBMpgX9qqHRCeZoinYZqhBkONmhAEwG4aBbAlTm5YvEAakDxtCEf94rqjWoIHyN3LUZL2LDW0GtAKGSqy9U5hWYevr64lDtYNsxAaolgC3IuNbyWzElTDBwQPAHcFYAQLrAaj7y4gvETgJbSfT/XczS1GxRUfprW9s8J9RUfkA8ojjf16FC3atyP01rzKpkVawVKt0qWXGNtxa401aGbi1WDNr3XVH4ghNiTSeTIlYF2u+fRJGjzxY7h4MlHajZoGJUALsNwCqNqDJcEY4ZEJzYRq6+e8Uksx5fWFBUlhZVawlJFKGbWyNoJlPbXzWIPXh8oMri1aJsN+FtA+v9K12GYRdo7PGJPti8bT0xPQZQ1t8/Sx3ljl3h9LRHQQi/sKmpqVInKyuL9u2zTIaS2/hf+POVstoDhuXwE4/xUptBH68A6SB7qJfHkyqDKsMKthhjAoBOur5QVVZW36Z1bldVbqgsgyx7GEJSu3rhES87fl8wrny2T+wPYJfAB6vbiPNOp8jz2XA97kIq+pTVmA2wgVWVeOxu1jFA4gD4OhsEY58UA2wI9QHFXFVbW5yxcICXlz9QCwzfsgr26hNXbbZVQVpREOxeiFTs8bwr4iHGdhKo+sJYLYf3ruR7Vm1Z/q8VLJlAOipkxm3Fp/CqKzwkAaG9e6is2l3ZvuoPwOzgKOAFXBdjVAzdq6wV3FSfOQ/yh4KBHhDerjOFYcL392Mjz5oPBuKbxzjgJKAgvt8ww15iaVdR6lmlRXftS6Ex8ZQ84mzVpNrVaYlimXj48eImbR1H3iZD14yGnUZeIhs4O5w0moJ5vw6gZO92uaqvvn370sw3Z8nn0cceV9mNdoUbLz6+AEMmAKoLgLKjWD2yrHpzqWT5wuY1E5i+ql2Z29BvlrXQRCVPgAAHu/4qgErIFzCxYkUe2qOLb5H3Ktb6jrGXHLyhMMljFezLBAQRq43AmJXarRryWmTAXgEQ12FJGV+QAgB1tYcZrZlpsWu3khqQBzUgoK74ytmzDhB+ynFyxRdoCTdsqM18VYnFrF6EUV154BV+Mtdsh0QZq2QBykYiN+4vq0QhdhO2K8FDDlK7FZR0Zc1T47D38ai+vcr5HcDvZO/fx8wOO8Z4V+qjBTCRtOBEq5NkSvZslz0zUC0NuuN/QnpM7sseZU8ShqMe/8SbwXBefP8jjXxOY1f/1o+fR1XZ4wKmBVwR7bvSkIeMFei+xd/TltmMm1dG8GqDKis0KpaG3P+6tAv0BVdqVd8el0gDb39Oqhbt2CxOCvmbVhL21sCNGZtKD7/7RS9UW2cb4/LKbMIb+2F9xdMGf1DnCraj8PODecBID/WUMlTKhMBlMLjC2wYqIriLBgLoqeHuW/Ljr2KwhQHaucx7f4Z4B1nUCVDfqAmiIn2X1A+Ev7HzMVa4B0PiIB4jdmnbB/St1m3ec69TwrQ7KOHxB6j403lUxnstcDRP2PFMG6ZX5s33SBu4YGMCK/lpkezrwOkLmKyxCvYnUUCaDOU9IG34uB3n70tYHcMqOfZEqmmF7js4eIBhcYDfMp7dmEsXLWGX72NFkipn+panpfs2qfU9xgVvOniX4YNxOf9YWuv2qFj44ecUcdYp4nkISa5i525RJ2KRBq9HXyj65Cupiwkd6k44l1hBHEz4nYSHGE6dcLEXF6QuxxGDmQH0oj2jxxvVua+C9z4Vt+o2Tz5EcEfGXi77gD7CkPdeer0VrdiD4IkWO5k96H76jSCBuXgfmdoHU/DObPGcjGc35oK3ZzPDCSa4aQPgCdkaodUxmc3vP009r7hTJBm1MbMhP9zGtx6nbqNuIHsM20ssK0yFExN/ryvvMsty1izmc8qONIp54vCF9a9Ok/FhH48/fGuev5d6/+MBiu7qWelUljlp41tPCgOy4qvkTXUKrKo7lXegr9iABgNoaO9U+Sj8sNFYffzBVApmfUjRV11srozBgPAH9gK32gdeS/BeUhIMJk0rPrSBm6qVXlgdx4wfJ+hg6MVEf8BBkdfyO7LCy+hGlfEdJmjXstUEt1a4qIJhwL1bDMo+9XKf/B+vrq8Vg7M5Xl4pF3+zwLzF6jmC3YdBPwHGB/ft/JffMutYE7ns+hx/30SRMkP4zCuAi+lRad30WlVpNLG8M0aG5zv73n9SwiP3iLs0XKYBmJyzH3zCU6mOKexjwYIAx60AoA5DP9XAQuNqZZyBdyxnxn9k/wlUhwpgZymY+YG6Na9QT+I9gvShPAzNQk5A4sjkPUfxD0wWNS9UvQqwH8kKYCw8copmZqAYAsqV9OdVl12ksQnXPqifuR+qkFVhismU/vonFaZ8Km7q6v3F+wKmp5xKrPhaQzoopXNXy9+gNTxS0z8D7DE4nwxu01YVWkNGEmwPo8hOPWTHf2nWnoagOuBtRU3BK/CgMDvvCt9tGlx9O0I9ePHgzxhI1262YdWGnXdBl7Obq/WUALP8IEjIzn/eWS+76t2u5YGGjR34wax6rGTpQVQyPnYWrMAhVQTxxkwwUeznaCqAUT4khXf8p+2ot/MEpIKkWf8VjzScqYYTHcQbjCf+hgKkPzAuqNywoPELvCBMfv8lsXXsvXiCX1ugaienSbANDfuRoPINiJMbSN+JvOO/hvde4a3xyu87aEKVFVS2laVEn9+/xrYHWaFmMgfZD6aHqylwMFDAl8k05ZjBNGKuuUzUfVDLYR+KhuajQKtTlzUfKXXPmgKaAs1NgcgLzhR3b4wD0nOezybj5h7fodi/ZjKH4q+un1lToJEpgHPYcE6Y70GVjdwtuVaukX4r2PUYe27q4vzQ2GM7VPFrddmh+svr59YU0BTQFGgCCtiaoA/dhaaApoCmgKbAIUoBzWQO0R9eP7amgKaApkBTUEAzmaagsu5DU0BTQFPgEKXA/wOWzdt3qUvShQAAAABJRU5ErkJggg==;" vertex="1" parent="1">
                    <mxGeometry x="-210" y="158" width="175.87" height="43" as="geometry"/>
                </mxCell>
                <mxCell id="63" value="Tarea" style="rounded=1;whiteSpace=wrap;html=1;fontColor=#FFFFFF;" vertex="1" parent="1">
                    <mxGeometry x="-356" y="429" width="120" height="60" as="geometry"/>
                </mxCell>
            </root>
        </mxGraphModel>
    </diagram>
</mxfile>